<svg xmlns="http://www.w3.org/2000/svg" viewBox="0 0 756.68 110.6"><defs><style>.cls-1,.cls-4,.cls-5,.cls-8,.cls-9{fill:#fff;}.cls-1,.cls-10,.cls-2,.cls-5,.cls-8,.cls-9{stroke:#898989;}.cls-1,.cls-10,.cls-2,.cls-9{stroke-linejoin:round;}.cls-1,.cls-2{stroke-width:0.32px;}.cls-10,.cls-2{fill:none;}.cls-3{fill:#95d5f1;opacity:0.5;}.cls-5,.cls-8{stroke-miterlimit:10;}.cls-5{stroke-width:0.34px;}.cls-6{opacity:0.6;}.cls-7{fill:#9e3937;}.cls-8{stroke-width:0.35px;}.cls-10,.cls-9{stroke-width:0.31px;}</style></defs><g id="レイヤー_2" data-name="レイヤー 2"><g id="色手前"><rect class="cls-1" x="707.01" y="42.45" width="47.94" height="64.75"/><rect class="cls-2" x="710.25" y="48.64" width="8.78" height="7.52"/><rect class="cls-2" x="721.18" y="48.64" width="8.78" height="7.52"/><rect class="cls-2" x="732.06" y="48.64" width="8.78" height="7.52"/><rect class="cls-2" x="742.94" y="48.64" width="8.78" height="7.52"/><rect class="cls-2" x="710.25" y="57.97" width="8.78" height="7.52"/><rect class="cls-2" x="721.18" y="57.97" width="8.78" height="7.52"/><rect class="cls-2" x="732.06" y="57.97" width="8.78" height="7.52"/><rect class="cls-2" x="742.94" y="57.97" width="8.78" height="7.52"/><rect class="cls-2" x="710.25" y="67.3" width="8.78" height="7.52"/><rect class="cls-2" x="721.18" y="67.3" width="8.78" height="7.52"/><rect class="cls-2" x="732.06" y="67.3" width="8.78" height="7.52"/><rect class="cls-2" x="742.94" y="67.3" width="8.78" height="7.52"/><rect class="cls-2" x="710.25" y="76.63" width="8.78" height="7.52"/><rect class="cls-2" x="721.18" y="76.63" width="8.78" height="7.52"/><rect class="cls-2" x="732.06" y="76.63" width="8.78" height="7.52"/><rect class="cls-2" x="742.94" y="76.63" width="8.78" height="7.52"/><path class="cls-3" d="M708.74,43.68v64.75h47.94V43.68Zm12,41.71H712V77.87h8.79Zm0-9.33H712V68.54h8.79Zm0-9.33H712V59.21h8.79Zm0-9.33H712V49.88h8.79Zm10.92,28H722.9V77.87h8.78Zm0-9.33H722.9V68.54h8.78Zm0-9.33H722.9V59.21h8.78Zm0-9.33H722.9V49.88h8.78Zm10.88,28h-8.78V77.87h8.78Zm0-9.33h-8.78V68.54h8.78Zm0-9.33h-8.78V59.21h8.78Zm0-9.33h-8.78V49.88h8.78Zm10.88,28h-8.78V77.87h8.78Zm0-9.33h-8.78V68.54h8.78Zm0-9.33h-8.78V59.21h8.78Zm0-9.33h-8.78V49.88h8.78Z"/><polygon class="cls-4" points="746.23 80.95 743.15 80.95 681.99 80.95 679.27 80.95 679.27 87.13 682.17 87.13 682.17 109.71 743.34 109.71 743.34 87.13 746.23 87.13 746.23 80.95"/><rect class="cls-2" x="726.55" y="91.83" width="9.27" height="17.99"/><rect class="cls-2" x="696.61" y="91.83" width="8.07" height="12.79"/><rect class="cls-2" x="704.68" y="91.83" width="8.07" height="12.79"/><rect class="cls-2" x="688.54" y="91.83" width="8.07" height="12.79"/><polygon class="cls-2" points="746.23 81.06 743.15 81.06 681.99 81.06 679.27 81.06 679.27 87.24 682.17 87.24 682.17 109.82 743.34 109.82 743.34 87.24 746.23 87.24 746.23 81.06"/><rect class="cls-2" x="679.27" y="81.06" width="66.96" height="6.18"/><rect class="cls-2" x="717.28" y="91.83" width="9.27" height="17.99"/><path class="cls-3" d="M683.31,88V110.6h35.12v-18H737v18h7.51V88Zm30.59,17.39H689.69V92.62H713.9Z"/><polygon class="cls-5" points="572.79 82.46 557.1 67.58 557.07 67.58 557.07 60.23 571.05 60.23 557.07 47.06 557.07 47.06 557.07 39.73 565.64 39.73 544.14 18.99 544.15 18.99 544.15 0.17 541.5 0.17 541.5 18.99 541.51 18.99 520.01 39.73 528.57 39.73 528.57 47.06 528.57 47.06 514.59 60.23 528.57 60.23 528.57 67.55 512.86 82.46 526.78 82.46 526.78 94.08 558.86 94.08 558.86 82.46 572.79 82.46"/><g class="cls-6"><polygon class="cls-7" points="574.2 83.56 558.51 68.68 558.48 68.68 558.48 61.34 572.46 61.34 558.48 48.16 558.48 48.16 558.48 40.83 567.05 40.83 545.55 20.09 545.56 20.09 545.56 1.28 542.91 1.28 542.91 20.09 542.92 20.09 521.42 40.83 529.99 40.83 529.99 48.16 529.98 48.16 516.01 61.34 529.99 61.34 529.99 68.65 514.27 83.56 528.19 83.56 528.19 95.18 560.27 95.18 560.27 83.56 574.2 83.56"/></g><ellipse class="cls-4" cx="666.47" cy="60.33" rx="16.92" ry="6.27"/><ellipse class="cls-4" cx="616.57" cy="37.95" rx="26.25" ry="9.73"/><path class="cls-8" d="M238.56,31h-75v9H177l-.91,9.54h-8.55v6.08h8l-3.76,39.25h-4.2v4.47H181V94.81h-2.51l3.76-39.25h38.22l3.77,39.25h-3v4.47h13.43V94.81h-3.71l-3.76-39.25h7.47V49.48h-8.05l-.92-9.54h12.91Zm-54.86,9h12.5v9.54H182.79ZM206,49.48V39.94h13l.91,9.54Z"/><g class="cls-6"><path class="cls-7" d="M240.14,32h-75v9h13.41l-.92,9.54h-8.54v6.08h8l-3.76,39.24h-4.2v4.48h13.43V95.78H180l3.76-39.24H222l3.76,39.24h-3v4.48H236.2V95.78h-3.71l-3.77-39.24h7.48V50.46h-8.06l-.91-9.54h12.91Zm-54.86,9h12.49v9.54h-13.4Zm22.25,9.54V40.92h13l.92,9.54Z"/></g><polygon class="cls-9" points="45.53 69.28 30.4 59.91 15.28 69.28 0.16 78.65 6.95 78.65 6.95 104.9 53.85 104.9 53.85 78.65 60.65 78.65 45.53 69.28"/><rect class="cls-10" x="14.46" y="81.84" width="6.91" height="6.91"/><rect class="cls-10" x="23.07" y="81.84" width="6.91" height="6.91"/><rect class="cls-10" x="14.46" y="90.43" width="6.91" height="6.91"/><rect class="cls-10" x="23.07" y="90.43" width="6.91" height="6.91"/><path class="cls-10" d="M41.34,83.69a5.86,5.86,0,0,0-5.85,5.86V103.3H47.2V89.55A5.86,5.86,0,0,0,41.34,83.69Z"/><circle class="cls-10" cx="44.41" cy="94.45" r="1.56"/><path class="cls-3" d="M46.51,70.17,31.39,60.8,16.26,70.17,1.14,79.54H7.93v26.25H54.84V79.54h6.79ZM22.35,98.22H15.44v-6.9h6.91Zm0-8.58H15.44V82.73h6.91ZM31,98.22h-6.9v-6.9H31Zm0-8.58h-6.9V82.73H31Zm17.22,14.55H36.47V90.44a5.86,5.86,0,0,1,11.71,0Z"/><circle class="cls-3" cx="45.39" cy="95.34" r="1.56"/><ellipse class="cls-4" cx="80.51" cy="61.36" rx="16.92" ry="6.27"/><ellipse class="cls-4" cx="101.95" cy="51.63" rx="26.25" ry="9.73"/></g></g></svg>