<svg xmlns="http://www.w3.org/2000/svg" xmlns:xlink="http://www.w3.org/1999/xlink" viewBox="0 0 249.37 498.9"><defs><style>.cls-1{mask:url(#mask);filter:url(#luminosity-noclip-2);}.cls-12,.cls-16,.cls-2,.cls-20,.cls-6,.cls-8{mix-blend-mode:multiply;}.cls-2{fill:url(#_裼_胙琅韃_511);}.cls-3{mask:url(#mask-2);}.cls-4{fill:url(#_裼_胙琅韃_4019);}.cls-5{mask:url(#mask-3);filter:url(#luminosity-noclip-12);}.cls-6{fill:url(#_裼_胙琅韃_509);}.cls-7{mask:url(#mask-4);filter:url(#luminosity-noclip-5);}.cls-8{fill:url(#_裼_胙琅韃_1619);}.cls-9{mask:url(#mask-5);}.cls-10{fill:url(#_裼_胙琅韃_132);}.cls-11{mask:url(#mask-6);filter:url(#luminosity-noclip-7);}.cls-12{fill:url(#_裼_胙琅韃_2122);}.cls-13{mask:url(#mask-7);}.cls-14{fill:url(#_裼_胙琅韃_262);}.cls-15{mask:url(#mask-8);filter:url(#luminosity-noclip-9);}.cls-16{fill:url(#_裼_胙琅韃_511-2);}.cls-17{mask:url(#mask-9);}.cls-18{fill:url(#_裼_胙琅韃_4019-2);}.cls-19{mask:url(#mask-10);filter:url(#luminosity-noclip-11);}.cls-20{fill:url(#_裼_胙琅韃_510);}.cls-21{mask:url(#mask-11);}.cls-22{fill:url(#_裼_胙琅韃_4020);}.cls-23{mask:url(#mask-12);}.cls-24{fill:url(#_裼_胙琅韃_4022);}.cls-25{fill:none;}.cls-26{fill:#a29d8f;}.cls-27{fill:url(#_裼_胙琅韃_72);}.cls-28{fill:url(#_裼_胙琅韃_72-2);}.cls-29{fill:url(#_裼_胙琅韃_72-3);}.cls-30{fill:url(#_裼_胙琅韃_72-4);}.cls-31{fill:url(#_裼_胙琅韃_62);}.cls-32{fill:#9c968a;}.cls-33{fill:#9e998c;}.cls-34{fill:#a19b8f;}.cls-35{fill:#a39d91;}.cls-36{fill:#a6a094;}.cls-37{fill:#a8a296;}.cls-38{fill:#aaa599;}.cls-39{fill:#ada79b;}.cls-40{fill:#afa99e;}.cls-41{fill:#b1aca0;}.cls-42{fill:#b4aea3;}.cls-43{fill:#b6b1a6;}.cls-44{fill:#b8b3a8;}.cls-45{fill:#bbb6ab;}.cls-46{fill:#bdb8ae;}.cls-47{fill:#bfbab0;}.cls-48{fill:#c2bdb3;}.cls-49{fill:#c4bfb6;}.cls-50{fill:#c6c2b9;}.cls-51{fill:#c9c4bb;}.cls-52{fill:#cbc7be;}.cls-53{fill:#cdc9c1;}.cls-54{fill:#d0ccc4;}.cls-55{fill:#d2cec6;}.cls-56{fill:#d4d1c9;}.cls-57{fill:#d7d4cc;}.cls-58{fill:#d9d6cf;}.cls-59{fill:#dad7d0;}.cls-60{fill:#dbd8d1;}.cls-61{fill:#dcdad2;}.cls-62{fill:#dedbd4;}.cls-63{fill:#dfdcd5;}.cls-64{fill:#e0ddd6;}.cls-65{fill:#e1ded7;}.cls-66{fill:#e2dfd8;}.cls-67{fill:#e3e1da;}.cls-68{fill:#e4e2db;}.cls-69{fill:#e6e3dc;}.cls-70{fill:#e7e4dd;}.cls-71{fill:#e8e5de;}.cls-72{fill:#e9e6e0;}.cls-73{fill:#eae8e1;}.cls-74{fill:#ebe9e2;}.cls-75{fill:#eceae3;}.cls-76{fill:#edebe5;}.cls-77{fill:#efece6;}.cls-78{fill:#f0ede7;}.cls-79{fill:#f1efe8;}.cls-80{fill:#f2f0e9;}.cls-81{fill:#f3f1eb;}.cls-82{fill:#f4f2ec;}.cls-83{fill:#f5f3ed;}.cls-84{fill:#f7f5ee;}.cls-85{fill:url(#_裼_胙琅韃_94);}.cls-86{fill:url(#_裼_胙琅韃_94-2);}.cls-87{fill:url(#linear-gradient);}.cls-88{fill:#1f1d1e;}.cls-89{fill:#121212;}.cls-90{fill:#040001;}.cls-91{fill:url(#_裼_胙琅韃_78);}.cls-92{fill:#6b6e6c;}.cls-93{fill:#fff;}.cls-94{fill:url(#radial-gradient);}.cls-95{clip-path:url(#clip-path);}.cls-96{fill:url(#_裼_胙琅韃_3945);}.cls-97{fill:url(#名称未設定グラデーション_1302);}.cls-98{fill:url(#名称未設定グラデーション_1303);}.cls-99{fill:url(#名称未設定グラデーション_1304);}.cls-100{fill:url(#名称未設定グラデーション_1305);}.cls-101{fill:url(#名称未設定グラデーション_1306);}.cls-102{fill:url(#名称未設定グラデーション_1307);}.cls-103{fill:url(#名称未設定グラデーション_1308);}.cls-104{fill:url(#名称未設定グラデーション_1309);}.cls-105{fill:url(#名称未設定グラデーション_1310);}.cls-106{fill:url(#名称未設定グラデーション_1311);}.cls-107{fill:url(#名称未設定グラデーション_1312);}.cls-108{fill:url(#名称未設定グラデーション_1313);}.cls-109{fill:url(#名称未設定グラデーション_1314);}.cls-110{fill:url(#名称未設定グラデーション_1315);}.cls-111{fill:url(#名称未設定グラデーション_1316);}.cls-112{fill:url(#名称未設定グラデーション_1317);}.cls-113{fill:url(#名称未設定グラデーション_1318);}.cls-114{fill:url(#名称未設定グラデーション_1319);}.cls-115{fill:url(#名称未設定グラデーション_1320);}.cls-116{fill:url(#名称未設定グラデーション_1321);}.cls-117{fill:url(#_裼_胙琅韃_3949);}.cls-118{fill:url(#名称未設定グラデーション_1321-2);}.cls-119{fill:url(#名称未設定グラデーション_1320-2);}.cls-120{fill:url(#名称未設定グラデーション_1319-2);}.cls-121{fill:url(#名称未設定グラデーション_1318-2);}.cls-122{fill:url(#名称未設定グラデーション_1317-2);}.cls-123{fill:url(#名称未設定グラデーション_1316-2);}.cls-124{fill:url(#名称未設定グラデーション_1315-2);}.cls-125{fill:url(#名称未設定グラデーション_1314-2);}.cls-126{fill:url(#名称未設定グラデーション_1313-2);}.cls-127{fill:url(#名称未設定グラデーション_1312-2);}.cls-128{fill:url(#名称未設定グラデーション_1311-2);}.cls-129{fill:url(#名称未設定グラデーション_1310-2);}.cls-130{fill:url(#名称未設定グラデーション_1309-2);}.cls-131{fill:url(#名称未設定グラデーション_1308-2);}.cls-132{fill:url(#名称未設定グラデーション_1307-2);}.cls-133{fill:url(#名称未設定グラデーション_1306-2);}.cls-134{fill:url(#名称未設定グラデーション_1305-2);}.cls-135{fill:url(#名称未設定グラデーション_1304-2);}.cls-136{fill:url(#名称未設定グラデーション_1303-2);}.cls-137{fill:url(#名称未設定グラデーション_1302-2);}.cls-138{fill:url(#_裼_胙琅韃_3945-2);}.cls-139{fill:url(#名称未設定グラデーション_1301);}.cls-140{fill:url(#名称未設定グラデーション_1300);}.cls-141{fill:url(#名称未設定グラデーション_1299);}.cls-142{fill:url(#名称未設定グラデーション_1298);}.cls-143{fill:url(#名称未設定グラデーション_1297);}.cls-144{fill:url(#名称未設定グラデーション_1296);}.cls-145{fill:url(#名称未設定グラデーション_1295);}.cls-146{fill:url(#名称未設定グラデーション_1294);}.cls-147{fill:url(#名称未設定グラデーション_1293);}.cls-148{fill:url(#名称未設定グラデーション_1292);}.cls-149{fill:url(#名称未設定グラデーション_1291);}.cls-150{fill:url(#名称未設定グラデーション_1290);}.cls-151{fill:url(#名称未設定グラデーション_1289);}.cls-152{fill:url(#名称未設定グラデーション_1288);}.cls-153{fill:url(#名称未設定グラデーション_1287);}.cls-154{fill:url(#名称未設定グラデーション_1286);}.cls-155{fill:url(#名称未設定グラデーション_1285);}.cls-156{fill:url(#名称未設定グラデーション_1284);}.cls-157{fill:url(#名称未設定グラデーション_1283);}.cls-158{fill:url(#名称未設定グラデーション_1282);}.cls-159{fill:url(#_裼_胙琅韃_3954);}.cls-160{fill:url(#名称未設定グラデーション_1281);}.cls-161{fill:url(#名称未設定グラデーション_1280);}.cls-162{fill:url(#名称未設定グラデーション_1279);}.cls-163{fill:url(#名称未設定グラデーション_1278);}.cls-164{fill:url(#名称未設定グラデーション_1277);}.cls-165{fill:url(#名称未設定グラデーション_1276);}.cls-166{fill:url(#名称未設定グラデーション_1275);}.cls-167{fill:url(#名称未設定グラデーション_1274);}.cls-168{fill:url(#名称未設定グラデーション_1273);}.cls-169{fill:url(#名称未設定グラデーション_1272);}.cls-170{fill:url(#名称未設定グラデーション_1271);}.cls-171{fill:url(#名称未設定グラデーション_1270);}.cls-172{fill:url(#名称未設定グラデーション_1269);}.cls-173{fill:url(#名称未設定グラデーション_1268);}.cls-174{fill:url(#名称未設定グラデーション_1267);}.cls-175{fill:url(#名称未設定グラデーション_1266);}.cls-176{fill:url(#名称未設定グラデーション_1265);}.cls-177{fill:url(#名称未設定グラデーション_1264);}.cls-178{fill:url(#名称未設定グラデーション_1263);}.cls-179{fill:url(#名称未設定グラデーション_1262);}.cls-180{fill:#111210;}.cls-181{mask:url(#mask-13);}.cls-182{fill:#4a3390;}.cls-183{mask:url(#mask-14);}.cls-184{mask:url(#mask-15);}.cls-185{fill:#bf98c4;}.cls-185,.cls-191{opacity:0.7;}.cls-186{mask:url(#mask-16);}.cls-187{fill:#009fd1;}.cls-188{fill:#9ec1e6;}.cls-189,.cls-195,.cls-196,.cls-197,.cls-198,.cls-199,.cls-200,.cls-201,.cls-202,.cls-203,.cls-204,.cls-205,.cls-206,.cls-207,.cls-208,.cls-209,.cls-210,.cls-211,.cls-212,.cls-213,.cls-214,.cls-215{fill:#040000;}.cls-190{mask:url(#mask-17);}.cls-191{fill:#9b9b9b;}.cls-192{mask:url(#mask-18);}.cls-193{fill:#2f3030;}.cls-194{fill:#131313;}.cls-195{opacity:0.95;}.cls-196{opacity:0.9;}.cls-197{opacity:0.86;}.cls-198{opacity:0.81;}.cls-199{opacity:0.76;}.cls-200{opacity:0.71;}.cls-201{opacity:0.67;}.cls-202{opacity:0.62;}.cls-203{opacity:0.57;}.cls-204{opacity:0.52;}.cls-205{opacity:0.48;}.cls-206{opacity:0.43;}.cls-207{opacity:0.38;}.cls-208{opacity:0.33;}.cls-209{opacity:0.29;}.cls-210{opacity:0.24;}.cls-211{opacity:0.19;}.cls-212{opacity:0.14;}.cls-213{opacity:0.1;}.cls-214{opacity:0.05;}.cls-215{opacity:0;}.cls-216{filter:url(#luminosity-noclip-10);}.cls-217{filter:url(#luminosity-noclip-8);}.cls-218{filter:url(#luminosity-noclip-6);}.cls-219{filter:url(#luminosity-noclip-4);}.cls-220{filter:url(#luminosity-noclip-3);}.cls-221{filter:url(#luminosity-noclip);}</style><filter id="luminosity-noclip" x="150.45" y="-7230.23" width="3.76" height="32766" filterUnits="userSpaceOnUse" color-interpolation-filters="sRGB"><feFlood flood-color="#fff" result="bg"/><feBlend in="SourceGraphic" in2="bg"/></filter><mask id="mask" x="150.45" y="-7230.23" width="3.76" height="32766" maskUnits="userSpaceOnUse"><g class="cls-221"/></mask><radialGradient id="_裼_胙琅韃_511" cx="-8146.31" cy="2113.07" r="2.13" gradientTransform="matrix(0.47, -0.53, 0.74, 0.67, 2440.14, -5689.41)" gradientUnits="userSpaceOnUse"><stop offset="0" stop-color="#fff"/><stop offset="0.13" stop-color="#fbfbfb"/><stop offset="0.25" stop-color="#efefef"/><stop offset="0.38" stop-color="#dbdbdb"/><stop offset="0.5" stop-color="#bfbfbf"/><stop offset="0.63" stop-color="#9b9b9b"/><stop offset="0.75" stop-color="#6f6f6f"/><stop offset="0.88" stop-color="#3b3b3b"/><stop offset="1"/></radialGradient><filter id="luminosity-noclip-2" x="150.45" y="17.3" width="3.76" height="3.63" filterUnits="userSpaceOnUse" color-interpolation-filters="sRGB"><feFlood flood-color="#fff" result="bg"/><feBlend in="SourceGraphic" in2="bg"/></filter><mask id="mask-2" x="150.45" y="17.3" width="3.76" height="3.63" maskUnits="userSpaceOnUse"><g class="cls-1"><path class="cls-2" d="M153.34,18c.87.79,1.13,1.93.57,2.55a1.9,1.9,0,0,1-2.59-.3,1.91,1.91,0,0,1-.58-2.55C151.3,17.07,152.46,17.21,153.34,18Z"/></g></mask><radialGradient id="_裼_胙琅韃_4019" cx="-8146.31" cy="2113.07" r="2.13" gradientTransform="matrix(0.47, -0.53, 0.74, 0.67, 2440.14, -5689.41)" gradientUnits="userSpaceOnUse"><stop offset="0" stop-color="#fff"/><stop offset="0.13" stop-color="#fbfbfb"/><stop offset="0.25" stop-color="#efefef"/><stop offset="0.38" stop-color="#dcdbdb"/><stop offset="0.5" stop-color="#c0bfbf"/><stop offset="0.63" stop-color="#9c9b9b"/><stop offset="0.75" stop-color="#716f6f"/><stop offset="0.88" stop-color="#3e3b3b"/><stop offset="1" stop-color="#040000"/></radialGradient><filter id="luminosity-noclip-3" x="149.43" y="-7230.23" width="1.67" height="32766" filterUnits="userSpaceOnUse" color-interpolation-filters="sRGB"><feFlood flood-color="#fff" result="bg"/><feBlend in="SourceGraphic" in2="bg"/></filter><mask id="mask-3" x="149.43" y="-7230.23" width="1.67" height="32766" maskUnits="userSpaceOnUse"><g class="cls-220"/></mask><radialGradient id="_裼_胙琅韃_509" cx="-7836.21" cy="2112.98" r="0.9" gradientTransform="matrix(0.56, -0.62, 0.74, 0.67, 2941.61, -6247.69)" gradientUnits="userSpaceOnUse"><stop offset="0" stop-color="#fff"/><stop offset="0.09" stop-color="#f9f9f9"/><stop offset="0.22" stop-color="#e7e7e7"/><stop offset="0.36" stop-color="#cbcbcb"/><stop offset="0.52" stop-color="#a2a2a2"/><stop offset="0.69" stop-color="#6f6f6f"/><stop offset="0.87" stop-color="#313131"/><stop offset="1"/></radialGradient><filter id="luminosity-noclip-4" x="107.94" y="-7230.23" width="3.46" height="32766" filterUnits="userSpaceOnUse" color-interpolation-filters="sRGB"><feFlood flood-color="#fff" result="bg"/><feBlend in="SourceGraphic" in2="bg"/></filter><mask id="mask-4" x="107.94" y="-7230.23" width="3.46" height="32766" maskUnits="userSpaceOnUse"><g class="cls-219"/></mask><linearGradient id="_裼_胙琅韃_1619" x1="107.94" y1="20.16" x2="111.4" y2="20.16" gradientUnits="userSpaceOnUse"><stop offset="0" stop-color="#fff"/><stop offset="1"/></linearGradient><filter id="luminosity-noclip-5" x="107.94" y="17.17" width="3.46" height="5.96" filterUnits="userSpaceOnUse" color-interpolation-filters="sRGB"><feFlood flood-color="#fff" result="bg"/><feBlend in="SourceGraphic" in2="bg"/></filter><mask id="mask-5" x="107.94" y="17.17" width="3.46" height="5.96" maskUnits="userSpaceOnUse"><g class="cls-7"><path class="cls-8" d="M111.4,17.17h-.48a3,3,0,0,0,0,6h.48Z"/></g></mask><linearGradient id="_裼_胙琅韃_132" x1="107.94" y1="20.16" x2="111.4" y2="20.16" gradientUnits="userSpaceOnUse"><stop offset="0" stop-color="#fff"/><stop offset="1" stop-color="#040000"/></linearGradient><filter id="luminosity-noclip-6" x="137.12" y="-7230.23" width="4.24" height="32766" filterUnits="userSpaceOnUse" color-interpolation-filters="sRGB"><feFlood flood-color="#fff" result="bg"/><feBlend in="SourceGraphic" in2="bg"/></filter><mask id="mask-6" x="137.12" y="-7230.23" width="4.24" height="32766" maskUnits="userSpaceOnUse"><g class="cls-218"/></mask><linearGradient id="_裼_胙琅韃_2122" x1="137.12" y1="20.16" x2="141.36" y2="20.16" gradientUnits="userSpaceOnUse"><stop offset="0"/><stop offset="1" stop-color="#fff"/></linearGradient><filter id="luminosity-noclip-7" x="137.12" y="17.17" width="4.24" height="5.96" filterUnits="userSpaceOnUse" color-interpolation-filters="sRGB"><feFlood flood-color="#fff" result="bg"/><feBlend in="SourceGraphic" in2="bg"/></filter><mask id="mask-7" x="137.12" y="17.17" width="4.24" height="5.96" maskUnits="userSpaceOnUse"><g class="cls-11"><path class="cls-12" d="M138.38,17.17h-1.26v6h1.26a3,3,0,0,0,0-6Z"/></g></mask><linearGradient id="_裼_胙琅韃_262" x1="137.12" y1="20.16" x2="141.36" y2="20.16" gradientUnits="userSpaceOnUse"><stop offset="0" stop-color="#040000"/><stop offset="1" stop-color="#fff"/></linearGradient><filter id="luminosity-noclip-8" x="148.25" y="-7230.23" width="3.76" height="32766" filterUnits="userSpaceOnUse" color-interpolation-filters="sRGB"><feFlood flood-color="#fff" result="bg"/><feBlend in="SourceGraphic" in2="bg"/></filter><mask id="mask-8" x="148.25" y="-7230.23" width="3.76" height="32766" maskUnits="userSpaceOnUse"><g class="cls-217"/></mask><radialGradient id="_裼_胙琅韃_511-2" cx="-8150.84" cy="2112.99" r="2.13" xlink:href="#_裼_胙琅韃_511"/><filter id="luminosity-noclip-9" x="148.25" y="19.64" width="3.76" height="3.63" filterUnits="userSpaceOnUse" color-interpolation-filters="sRGB"><feFlood flood-color="#fff" result="bg"/><feBlend in="SourceGraphic" in2="bg"/></filter><mask id="mask-9" x="148.25" y="19.64" width="3.76" height="3.63" maskUnits="userSpaceOnUse"><g class="cls-15"><path class="cls-16" d="M151.13,20.33c.88.78,1.14,1.92.58,2.54a1.89,1.89,0,0,1-2.59-.3c-.88-.78-1.14-1.92-.58-2.54A1.89,1.89,0,0,1,151.13,20.33Z"/></g></mask><radialGradient id="_裼_胙琅韃_4019-2" cx="-8150.84" cy="2112.99" r="2.13" xlink:href="#_裼_胙琅韃_4019"/><filter id="luminosity-noclip-10" x="150.89" y="-7230.23" width="1.67" height="32766" filterUnits="userSpaceOnUse" color-interpolation-filters="sRGB"><feFlood flood-color="#fff" result="bg"/><feBlend in="SourceGraphic" in2="bg"/></filter><mask id="mask-10" x="150.89" y="-7230.23" width="1.67" height="32766" maskUnits="userSpaceOnUse"><g class="cls-216"/></mask><radialGradient id="_裼_胙琅韃_510" cx="-7832.91" cy="2112.48" r="0.9" gradientTransform="matrix(0.56, -0.62, 0.74, 0.67, 2941.61, -6247.69)" gradientUnits="userSpaceOnUse"><stop offset="0" stop-color="#fff"/><stop offset="0.09" stop-color="#d6d6d6"/><stop offset="0.23" stop-color="#9e9e9e"/><stop offset="0.36" stop-color="#6e6e6e"/><stop offset="0.5" stop-color="#464646"/><stop offset="0.63" stop-color="#282828"/><stop offset="0.76" stop-color="#121212"/><stop offset="0.89" stop-color="#040404"/><stop offset="1"/></radialGradient><filter id="luminosity-noclip-11" x="150.89" y="18.1" width="1.67" height="1.64" filterUnits="userSpaceOnUse" color-interpolation-filters="sRGB"><feFlood flood-color="#fff" result="bg"/><feBlend in="SourceGraphic" in2="bg"/></filter><mask id="mask-11" x="150.89" y="18.1" width="1.67" height="1.64" maskUnits="userSpaceOnUse"><g class="cls-19"><path class="cls-20" d="M152.23,18.36a.76.76,0,1,1-1,1.11.82.82,0,0,1-.17-1.15A.83.83,0,0,1,152.23,18.36Z"/></g></mask><radialGradient id="_裼_胙琅韃_4020" cx="-7832.91" cy="2112.48" r="0.9" gradientTransform="matrix(0.56, -0.62, 0.74, 0.67, 2941.61, -6247.69)" gradientUnits="userSpaceOnUse"><stop offset="0" stop-color="#fff"/><stop offset="0.09" stop-color="#d7d6d6"/><stop offset="0.23" stop-color="#a09e9e"/><stop offset="0.36" stop-color="#706e6e"/><stop offset="0.5" stop-color="#494646"/><stop offset="0.63" stop-color="#2b2828"/><stop offset="0.76" stop-color="#151212"/><stop offset="0.89" stop-color="#080404"/><stop offset="1" stop-color="#040000"/></radialGradient><filter id="luminosity-noclip-12" x="149.43" y="20.48" width="1.67" height="1.64" filterUnits="userSpaceOnUse" color-interpolation-filters="sRGB"><feFlood flood-color="#fff" result="bg"/><feBlend in="SourceGraphic" in2="bg"/></filter><mask id="mask-12" x="149.43" y="20.48" width="1.67" height="1.64" maskUnits="userSpaceOnUse"><g class="cls-5"><path class="cls-6" d="M150.76,20.74a.76.76,0,1,1-1,1.11.76.76,0,1,1,1-1.11Z"/></g></mask><radialGradient id="_裼_胙琅韃_4022" cx="-7836.21" cy="2112.98" r="0.9" gradientTransform="matrix(0.56, -0.62, 0.74, 0.67, 2941.61, -6247.69)" gradientUnits="userSpaceOnUse"><stop offset="0" stop-color="#fff"/><stop offset="0.09" stop-color="#f9f9f9"/><stop offset="0.22" stop-color="#e8e7e7"/><stop offset="0.36" stop-color="#cbcbcb"/><stop offset="0.52" stop-color="#a4a2a2"/><stop offset="0.69" stop-color="#716f6f"/><stop offset="0.87" stop-color="#343131"/><stop offset="1" stop-color="#040000"/></radialGradient><linearGradient id="_裼_胙琅韃_72" x1="248.12" y1="160.85" x2="248.12" y2="102.84" gradientUnits="userSpaceOnUse"><stop offset="0" stop-color="#f4f2ec"/><stop offset="0" stop-color="#dedcd5"/><stop offset="0.01" stop-color="#c0bdb5"/><stop offset="0.01" stop-color="#a8a49b"/><stop offset="0.02" stop-color="#959186"/><stop offset="0.03" stop-color="#878378"/><stop offset="0.04" stop-color="#7f7b70"/><stop offset="0.05" stop-color="#7d796d"/><stop offset="0.2" stop-color="#e4e1dc"/><stop offset="0.72" stop-color="#e4e1dc"/><stop offset="0.8" stop-color="#e4e1dc"/><stop offset="0.84" stop-color="#e2dfd9"/><stop offset="0.87" stop-color="#dad7d1"/><stop offset="0.89" stop-color="#cdc9c3"/><stop offset="0.91" stop-color="#bab6af"/><stop offset="0.93" stop-color="#a19e94"/><stop offset="0.95" stop-color="#848074"/><stop offset="0.95" stop-color="#7d796d"/><stop offset="1" stop-color="#f4f2ec"/></linearGradient><linearGradient id="_裼_胙琅韃_72-2" x1="5997.52" y1="-3420.13" x2="5997.52" y2="-3456.37" gradientTransform="translate(5998.77 -3271.53) rotate(180)" xlink:href="#_裼_胙琅韃_72"/><linearGradient id="_裼_胙琅韃_72-3" x1="5997.52" y1="-3374.32" x2="5997.52" y2="-3410.55" gradientTransform="translate(5998.77 -3271.53) rotate(180)" xlink:href="#_裼_胙琅韃_72"/><linearGradient id="_裼_胙琅韃_72-4" x1="5997.52" y1="-3338.65" x2="5997.52" y2="-3357.81" gradientTransform="translate(5998.77 -3271.53) rotate(180)" xlink:href="#_裼_胙琅韃_72"/><linearGradient id="_裼_胙琅韃_62" x1="124.65" y1="497.79" x2="124.65" y2="1.11" gradientUnits="userSpaceOnUse"><stop offset="0" stop-color="#151314"/><stop offset="0.02" stop-color="#828283"/><stop offset="0.03" stop-color="#8b8b8c"/><stop offset="0.05" stop-color="#a3a3a3"/><stop offset="0.08" stop-color="#cbcaca"/><stop offset="0.1" stop-color="#f1f0ef"/><stop offset="0.47" stop-color="#efeeed"/><stop offset="0.6" stop-color="#e8e7e6"/><stop offset="0.69" stop-color="#dddcdb"/><stop offset="0.77" stop-color="#cccbca"/><stop offset="0.83" stop-color="#b6b5b4"/><stop offset="0.89" stop-color="#9a9999"/><stop offset="0.94" stop-color="#7a7979"/><stop offset="0.99" stop-color="#565555"/><stop offset="1" stop-color="#4d4c4c"/></linearGradient><linearGradient id="_裼_胙琅韃_94" x1="1.57" y1="49.5" x2="247.72" y2="49.5" gradientUnits="userSpaceOnUse"><stop offset="0" stop-color="#d3cfc6"/><stop offset="0" stop-color="#e2e0da"/><stop offset="0.01" stop-color="#efeeeb"/><stop offset="0.02" stop-color="#f8f8f6"/><stop offset="0.02" stop-color="#fefdfd"/><stop offset="0.05" stop-color="#fff"/><stop offset="0.82" stop-color="#fff"/><stop offset="0.95" stop-color="#fff"/><stop offset="0.98" stop-color="#fefdfd"/><stop offset="0.98" stop-color="#f8f8f6"/><stop offset="0.99" stop-color="#efeeeb"/><stop offset="1" stop-color="#e2e0da"/><stop offset="1" stop-color="#d3cfc6"/></linearGradient><linearGradient id="_裼_胙琅韃_94-2" x1="1.57" y1="449.38" x2="247.72" y2="449.38" xlink:href="#_裼_胙琅韃_94"/><linearGradient id="linear-gradient" x1="124.65" y1="495.38" x2="124.65" y2="3.52" gradientUnits="userSpaceOnUse"><stop offset="0" stop-color="#5a5b5b"/><stop offset="0" stop-color="#4f5050"/><stop offset="0" stop-color="#3a3a3a"/><stop offset="0.01" stop-color="#2a2929"/><stop offset="0.01" stop-color="#1e1e1e"/><stop offset="0.02" stop-color="#181717"/><stop offset="0.04" stop-color="#161515"/><stop offset="0.11" stop-color="#212121"/><stop offset="0.2" stop-color="#2a2a2a"/><stop offset="0.8" stop-color="#2a2a2a"/><stop offset="0.89" stop-color="#212121"/><stop offset="0.96" stop-color="#161515"/><stop offset="0.98" stop-color="#181717"/><stop offset="0.99" stop-color="#1e1e1e"/><stop offset="0.99" stop-color="#2a2929"/><stop offset="0.99" stop-color="#3a3a3a"/><stop offset="1" stop-color="#4f5050"/><stop offset="1" stop-color="#5a5b5b"/></linearGradient><linearGradient id="_裼_胙琅韃_78" x1="124.65" y1="492.97" x2="124.65" y2="5.93" gradientUnits="userSpaceOnUse"><stop offset="0" stop-color="#616165"/><stop offset="0" stop-color="#545357"/><stop offset="0" stop-color="#3b3a3c"/><stop offset="0.01" stop-color="#272426"/><stop offset="0.01" stop-color="#171415"/><stop offset="0.02" stop-color="#0c080a"/><stop offset="0.02" stop-color="#060203"/><stop offset="0.04" stop-color="#040001"/><stop offset="0.83" stop-color="#040001"/><stop offset="0.96" stop-color="#040001"/><stop offset="0.98" stop-color="#060203"/><stop offset="0.98" stop-color="#0c080a"/><stop offset="0.99" stop-color="#171415"/><stop offset="0.99" stop-color="#272426"/><stop offset="1" stop-color="#3b3a3c"/><stop offset="1" stop-color="#545357"/><stop offset="1" stop-color="#616165"/></linearGradient><radialGradient id="radial-gradient" cx="147.76" cy="20.16" r="8.27" gradientUnits="userSpaceOnUse"><stop offset="0" stop-color="#040001"/><stop offset="0.26" stop-color="#090506"/><stop offset="0.58" stop-color="#161414"/><stop offset="0.93" stop-color="#2d2c2c"/><stop offset="1" stop-color="#323232"/></radialGradient><clipPath id="clip-path"><path class="cls-25" d="M151.31,22.12a2,2,0,1,1,2-2A2,2,0,0,1,151.31,22.12Z"/></clipPath><linearGradient id="_裼_胙琅韃_3945" x1="149.93" y1="18.77" x2="152.7" y2="21.54" gradientUnits="userSpaceOnUse"><stop offset="0" stop-color="#1d315b"/><stop offset="1" stop-color="#172146"/></linearGradient><linearGradient id="名称未設定グラデーション_1302" x1="149.94" y1="18.78" x2="152.69" y2="21.53" gradientUnits="userSpaceOnUse"><stop offset="0" stop-color="#1d3159"/><stop offset="1" stop-color="#172249"/></linearGradient><linearGradient id="名称未設定グラデーション_1303" x1="149.94" y1="18.79" x2="152.68" y2="21.53" gradientUnits="userSpaceOnUse"><stop offset="0" stop-color="#1d3057"/><stop offset="1" stop-color="#18244b"/></linearGradient><linearGradient id="名称未設定グラデーション_1304" x1="149.95" y1="18.79" x2="152.68" y2="21.52" gradientUnits="userSpaceOnUse"><stop offset="0" stop-color="#1d3054"/><stop offset="1" stop-color="#19254e"/></linearGradient><linearGradient id="名称未設定グラデーション_1305" x1="149.96" y1="18.8" x2="152.67" y2="21.51" gradientUnits="userSpaceOnUse"><stop offset="0" stop-color="#1d2f52"/><stop offset="1" stop-color="#1a2651"/></linearGradient><linearGradient id="名称未設定グラデーション_1306" x1="149.97" y1="18.81" x2="152.66" y2="21.5" gradientUnits="userSpaceOnUse"><stop offset="0" stop-color="#1d2e50"/><stop offset="1" stop-color="#1b2853"/></linearGradient><linearGradient id="名称未設定グラデーション_1307" x1="149.98" y1="18.82" x2="152.65" y2="21.49" gradientUnits="userSpaceOnUse"><stop offset="0" stop-color="#1d2e4d"/><stop offset="1" stop-color="#1c2956"/></linearGradient><linearGradient id="名称未設定グラデーション_1308" x1="149.98" y1="18.82" x2="152.64" y2="21.49" gradientUnits="userSpaceOnUse"><stop offset="0" stop-color="#1d2d4b"/><stop offset="1" stop-color="#1d2a59"/></linearGradient><linearGradient id="名称未設定グラデーション_1309" x1="149.99" y1="18.83" x2="152.64" y2="21.48" gradientUnits="userSpaceOnUse"><stop offset="0" stop-color="#1d2c49"/><stop offset="1" stop-color="#1e2c5c"/></linearGradient><linearGradient id="名称未設定グラデーション_1310" x1="150" y1="18.84" x2="152.63" y2="21.47" gradientUnits="userSpaceOnUse"><stop offset="0" stop-color="#1d2b47"/><stop offset="1" stop-color="#1f2d5f"/></linearGradient><linearGradient id="名称未設定グラデーション_1311" x1="150.01" y1="18.85" x2="152.62" y2="21.46" gradientUnits="userSpaceOnUse"><stop offset="0" stop-color="#1d2b44"/><stop offset="1" stop-color="#202e62"/></linearGradient><linearGradient id="名称未設定グラデーション_1312" x1="150.01" y1="18.86" x2="152.61" y2="21.45" gradientUnits="userSpaceOnUse"><stop offset="0" stop-color="#1d2a42"/><stop offset="1" stop-color="#213065"/></linearGradient><linearGradient id="名称未設定グラデーション_1313" x1="150.02" y1="18.86" x2="152.61" y2="21.45" gradientUnits="userSpaceOnUse"><stop offset="0" stop-color="#1c293f"/><stop offset="1" stop-color="#223168"/></linearGradient><linearGradient id="名称未設定グラデーション_1314" x1="150.03" y1="18.87" x2="152.6" y2="21.44" gradientUnits="userSpaceOnUse"><stop offset="0" stop-color="#1c283d"/><stop offset="1" stop-color="#22326b"/></linearGradient><linearGradient id="名称未設定グラデーション_1315" x1="150.04" y1="18.88" x2="152.59" y2="21.43" gradientUnits="userSpaceOnUse"><stop offset="0" stop-color="#1c273b"/><stop offset="1" stop-color="#23346e"/></linearGradient><linearGradient id="名称未設定グラデーション_1316" x1="150.05" y1="18.89" x2="152.58" y2="21.42" gradientUnits="userSpaceOnUse"><stop offset="0" stop-color="#1b2638"/><stop offset="1" stop-color="#243571"/></linearGradient><linearGradient id="名称未設定グラデーション_1317" x1="150.05" y1="18.9" x2="152.57" y2="21.42" gradientUnits="userSpaceOnUse"><stop offset="0" stop-color="#1b2536"/><stop offset="1" stop-color="#253674"/></linearGradient><linearGradient id="名称未設定グラデーション_1318" x1="150.06" y1="18.9" x2="152.57" y2="21.41" gradientUnits="userSpaceOnUse"><stop offset="0" stop-color="#1a2434"/><stop offset="1" stop-color="#263877"/></linearGradient><linearGradient id="名称未設定グラデーション_1319" x1="150.07" y1="18.91" x2="152.56" y2="21.4" gradientUnits="userSpaceOnUse"><stop offset="0" stop-color="#192231"/><stop offset="1" stop-color="#26397a"/></linearGradient><linearGradient id="名称未設定グラデーション_1320" x1="150.08" y1="18.92" x2="152.55" y2="21.39" gradientUnits="userSpaceOnUse"><stop offset="0" stop-color="#19212e"/><stop offset="1" stop-color="#273a7d"/></linearGradient><linearGradient id="名称未設定グラデーション_1321" x1="150.08" y1="18.93" x2="152.54" y2="21.38" gradientUnits="userSpaceOnUse"><stop offset="0" stop-color="#18202c"/><stop offset="1" stop-color="#283c80"/></linearGradient><linearGradient id="_裼_胙琅韃_3949" x1="150.09" y1="18.93" x2="152.53" y2="21.38" gradientUnits="userSpaceOnUse"><stop offset="0" stop-color="#171e29"/><stop offset="1" stop-color="#293d83"/></linearGradient><linearGradient id="名称未設定グラデーション_1321-2" x1="150.1" y1="18.94" x2="152.53" y2="21.37" xlink:href="#名称未設定グラデーション_1321"/><linearGradient id="名称未設定グラデーション_1320-2" x1="150.11" y1="18.95" x2="152.52" y2="21.36" xlink:href="#名称未設定グラデーション_1320"/><linearGradient id="名称未設定グラデーション_1319-2" x1="150.12" y1="18.96" x2="152.51" y2="21.35" xlink:href="#名称未設定グラデーション_1319"/><linearGradient id="名称未設定グラデーション_1318-2" x1="150.13" y1="18.97" x2="152.5" y2="21.34" xlink:href="#名称未設定グラデーション_1318"/><linearGradient id="名称未設定グラデーション_1317-2" x1="150.14" y1="18.98" x2="152.49" y2="21.33" xlink:href="#名称未設定グラデーション_1317"/><linearGradient id="名称未設定グラデーション_1316-2" x1="150.15" y1="18.99" x2="152.48" y2="21.32" xlink:href="#名称未設定グラデーション_1316"/><linearGradient id="名称未設定グラデーション_1315-2" x1="150.15" y1="19" x2="152.47" y2="21.31" xlink:href="#名称未設定グラデーション_1315"/><linearGradient id="名称未設定グラデーション_1314-2" x1="150.16" y1="19.01" x2="152.46" y2="21.31" xlink:href="#名称未設定グラデーション_1314"/><linearGradient id="名称未設定グラデーション_1313-2" x1="150.17" y1="19.01" x2="152.45" y2="21.3" xlink:href="#名称未設定グラデーション_1313"/><linearGradient id="名称未設定グラデーション_1312-2" x1="150.18" y1="19.02" x2="152.45" y2="21.29" xlink:href="#名称未設定グラデーション_1312"/><linearGradient id="名称未設定グラデーション_1311-2" x1="150.19" y1="19.03" x2="152.44" y2="21.28" xlink:href="#名称未設定グラデーション_1311"/><linearGradient id="名称未設定グラデーション_1310-2" x1="150.2" y1="19.04" x2="152.43" y2="21.27" xlink:href="#名称未設定グラデーション_1310"/><linearGradient id="名称未設定グラデーション_1309-2" x1="150.21" y1="19.05" x2="152.42" y2="21.26" xlink:href="#名称未設定グラデーション_1309"/><linearGradient id="名称未設定グラデーション_1308-2" x1="150.22" y1="19.06" x2="152.41" y2="21.25" xlink:href="#名称未設定グラデーション_1308"/><linearGradient id="名称未設定グラデーション_1307-2" x1="150.23" y1="19.07" x2="152.4" y2="21.24" xlink:href="#名称未設定グラデーション_1307"/><linearGradient id="名称未設定グラデーション_1306-2" x1="150.23" y1="19.08" x2="152.39" y2="21.23" xlink:href="#名称未設定グラデーション_1306"/><linearGradient id="名称未設定グラデーション_1305-2" x1="150.24" y1="19.09" x2="152.38" y2="21.23" xlink:href="#名称未設定グラデーション_1305"/><linearGradient id="名称未設定グラデーション_1304-2" x1="150.25" y1="19.09" x2="152.37" y2="21.22" xlink:href="#名称未設定グラデーション_1304"/><linearGradient id="名称未設定グラデーション_1303-2" x1="150.26" y1="19.1" x2="152.37" y2="21.21" xlink:href="#名称未設定グラデーション_1303"/><linearGradient id="名称未設定グラデーション_1302-2" x1="150.27" y1="19.11" x2="152.36" y2="21.2" xlink:href="#名称未設定グラデーション_1302"/><linearGradient id="_裼_胙琅韃_3945-2" x1="150.28" y1="19.12" x2="152.35" y2="21.19" xlink:href="#_裼_胙琅韃_3945"/><linearGradient id="名称未設定グラデーション_1301" x1="150.29" y1="19.13" x2="152.34" y2="21.18" gradientUnits="userSpaceOnUse"><stop offset="0" stop-color="#1d325a"/><stop offset="1" stop-color="#172245"/></linearGradient><linearGradient id="名称未設定グラデーション_1300" x1="150.3" y1="19.14" x2="152.33" y2="21.17" gradientUnits="userSpaceOnUse"><stop offset="0" stop-color="#1d3259"/><stop offset="1" stop-color="#172244"/></linearGradient><linearGradient id="名称未設定グラデーション_1299" x1="150.31" y1="19.15" x2="152.32" y2="21.16" gradientUnits="userSpaceOnUse"><stop offset="0" stop-color="#1d3258"/><stop offset="1" stop-color="#172243"/></linearGradient><linearGradient id="名称未設定グラデーション_1298" x1="150.32" y1="19.16" x2="152.31" y2="21.15" gradientUnits="userSpaceOnUse"><stop offset="0" stop-color="#1d3257"/><stop offset="1" stop-color="#182343"/></linearGradient><linearGradient id="名称未設定グラデーション_1297" x1="150.33" y1="19.17" x2="152.3" y2="21.14" gradientUnits="userSpaceOnUse"><stop offset="0" stop-color="#1d3255"/><stop offset="1" stop-color="#182342"/></linearGradient><linearGradient id="名称未設定グラデーション_1296" x1="150.33" y1="19.18" x2="152.29" y2="21.13" gradientUnits="userSpaceOnUse"><stop offset="0" stop-color="#1d3254"/><stop offset="1" stop-color="#182341"/></linearGradient><linearGradient id="名称未設定グラデーション_1295" x1="150.34" y1="19.19" x2="152.28" y2="21.13" gradientUnits="userSpaceOnUse"><stop offset="0" stop-color="#1d3253"/><stop offset="1" stop-color="#192440"/></linearGradient><linearGradient id="名称未設定グラデーション_1294" x1="150.35" y1="19.19" x2="152.27" y2="21.12" gradientUnits="userSpaceOnUse"><stop offset="0" stop-color="#1d3352"/><stop offset="1" stop-color="#19243f"/></linearGradient><linearGradient id="名称未設定グラデーション_1293" x1="150.36" y1="19.2" x2="152.26" y2="21.11" gradientUnits="userSpaceOnUse"><stop offset="0" stop-color="#1e3351"/><stop offset="1" stop-color="#19243e"/></linearGradient><linearGradient id="名称未設定グラデーション_1292" x1="150.37" y1="19.21" x2="152.26" y2="21.1" gradientUnits="userSpaceOnUse"><stop offset="0" stop-color="#1e334f"/><stop offset="1" stop-color="#19253d"/></linearGradient><linearGradient id="名称未設定グラデーション_1291" x1="150.38" y1="19.22" x2="152.25" y2="21.09" gradientUnits="userSpaceOnUse"><stop offset="0" stop-color="#1e334e"/><stop offset="1" stop-color="#1a253c"/></linearGradient><linearGradient id="名称未設定グラデーション_1290" x1="150.39" y1="19.23" x2="152.24" y2="21.08" gradientUnits="userSpaceOnUse"><stop offset="0" stop-color="#1e334d"/><stop offset="1" stop-color="#1a253b"/></linearGradient><linearGradient id="名称未設定グラデーション_1289" x1="150.4" y1="19.24" x2="152.23" y2="21.07" gradientUnits="userSpaceOnUse"><stop offset="0" stop-color="#1e334c"/><stop offset="1" stop-color="#1a253a"/></linearGradient><linearGradient id="名称未設定グラデーション_1288" x1="150.41" y1="19.25" x2="152.22" y2="21.06" gradientUnits="userSpaceOnUse"><stop offset="0" stop-color="#1e334b"/><stop offset="1" stop-color="#1b2639"/></linearGradient><linearGradient id="名称未設定グラデーション_1287" x1="150.42" y1="19.26" x2="152.21" y2="21.05" gradientUnits="userSpaceOnUse"><stop offset="0" stop-color="#1e3349"/><stop offset="1" stop-color="#1b2638"/></linearGradient><linearGradient id="名称未設定グラデーション_1286" x1="150.43" y1="19.27" x2="152.2" y2="21.04" gradientUnits="userSpaceOnUse"><stop offset="0" stop-color="#1e3348"/><stop offset="1" stop-color="#1b2637"/></linearGradient><linearGradient id="名称未設定グラデーション_1285" x1="150.44" y1="19.28" x2="152.19" y2="21.03" gradientUnits="userSpaceOnUse"><stop offset="0" stop-color="#1e3347"/><stop offset="1" stop-color="#1b2636"/></linearGradient><linearGradient id="名称未設定グラデーション_1284" x1="150.45" y1="19.29" x2="152.18" y2="21.02" gradientUnits="userSpaceOnUse"><stop offset="0" stop-color="#1e3346"/><stop offset="1" stop-color="#1c2635"/></linearGradient><linearGradient id="名称未設定グラデーション_1283" x1="150.45" y1="19.3" x2="152.17" y2="21.01" gradientUnits="userSpaceOnUse"><stop offset="0" stop-color="#1e3344"/><stop offset="1" stop-color="#1c2634"/></linearGradient><linearGradient id="名称未設定グラデーション_1282" x1="150.46" y1="19.31" x2="152.16" y2="21.01" gradientUnits="userSpaceOnUse"><stop offset="0" stop-color="#1e3243"/><stop offset="1" stop-color="#1c2633"/></linearGradient><linearGradient id="_裼_胙琅韃_3954" x1="150.47" y1="19.31" x2="152.15" y2="21" gradientUnits="userSpaceOnUse"><stop offset="0" stop-color="#1e3242"/><stop offset="1" stop-color="#1c2632"/></linearGradient><linearGradient id="名称未設定グラデーション_1281" x1="150.48" y1="19.32" x2="152.14" y2="20.99" gradientUnits="userSpaceOnUse"><stop offset="0" stop-color="#1e3140"/><stop offset="1" stop-color="#1c2531"/></linearGradient><linearGradient id="名称未設定グラデーション_1280" x1="150.49" y1="19.33" x2="152.14" y2="20.98" gradientUnits="userSpaceOnUse"><stop offset="0" stop-color="#1d303d"/><stop offset="1" stop-color="#1b252f"/></linearGradient><linearGradient id="名称未設定グラデーション_1279" x1="150.5" y1="19.34" x2="152.13" y2="20.97" gradientUnits="userSpaceOnUse"><stop offset="0" stop-color="#1d2f3b"/><stop offset="1" stop-color="#1b242e"/></linearGradient><linearGradient id="名称未設定グラデーション_1278" x1="150.51" y1="19.35" x2="152.12" y2="20.96" gradientUnits="userSpaceOnUse"><stop offset="0" stop-color="#1d2d39"/><stop offset="1" stop-color="#1b232c"/></linearGradient><linearGradient id="名称未設定グラデーション_1277" x1="150.52" y1="19.36" x2="152.11" y2="20.95" gradientUnits="userSpaceOnUse"><stop offset="0" stop-color="#1c2c37"/><stop offset="1" stop-color="#1a222a"/></linearGradient><linearGradient id="名称未設定グラデーション_1276" x1="150.53" y1="19.37" x2="152.1" y2="20.94" gradientUnits="userSpaceOnUse"><stop offset="0" stop-color="#1c2b34"/><stop offset="1" stop-color="#1a2129"/></linearGradient><linearGradient id="名称未設定グラデーション_1275" x1="150.54" y1="19.38" x2="152.09" y2="20.93" gradientUnits="userSpaceOnUse"><stop offset="0" stop-color="#1c2932"/><stop offset="1" stop-color="#192027"/></linearGradient><linearGradient id="名称未設定グラデーション_1274" x1="150.55" y1="19.39" x2="152.08" y2="20.92" gradientUnits="userSpaceOnUse"><stop offset="0" stop-color="#1b2830"/><stop offset="1" stop-color="#191f26"/></linearGradient><linearGradient id="名称未設定グラデーション_1273" x1="150.56" y1="19.4" x2="152.07" y2="20.91" gradientUnits="userSpaceOnUse"><stop offset="0" stop-color="#1a262d"/><stop offset="1" stop-color="#181e24"/></linearGradient><linearGradient id="名称未設定グラデーション_1272" x1="150.57" y1="19.41" x2="152.06" y2="20.9" gradientUnits="userSpaceOnUse"><stop offset="0" stop-color="#1a252b"/><stop offset="1" stop-color="#181e23"/></linearGradient><linearGradient id="名称未設定グラデーション_1271" x1="150.58" y1="19.42" x2="152.05" y2="20.89" gradientUnits="userSpaceOnUse"><stop offset="0" stop-color="#192329"/><stop offset="1" stop-color="#171d21"/></linearGradient><linearGradient id="名称未設定グラデーション_1270" x1="150.59" y1="19.43" x2="152.04" y2="20.88" gradientUnits="userSpaceOnUse"><stop offset="0" stop-color="#192226"/><stop offset="1" stop-color="#171c1f"/></linearGradient><linearGradient id="名称未設定グラデーション_1269" x1="150.6" y1="19.44" x2="152.03" y2="20.87" gradientUnits="userSpaceOnUse"><stop offset="0" stop-color="#182024"/><stop offset="1" stop-color="#161b1e"/></linearGradient><linearGradient id="名称未設定グラデーション_1268" x1="150.61" y1="19.45" x2="152.02" y2="20.86" gradientUnits="userSpaceOnUse"><stop offset="0" stop-color="#171f22"/><stop offset="1" stop-color="#161a1c"/></linearGradient><linearGradient id="名称未設定グラデーション_1267" x1="150.62" y1="19.46" x2="152.01" y2="20.85" gradientUnits="userSpaceOnUse"><stop offset="0" stop-color="#171d1f"/><stop offset="1" stop-color="#15191a"/></linearGradient><linearGradient id="名称未設定グラデーション_1266" x1="150.63" y1="19.47" x2="152" y2="20.84" gradientUnits="userSpaceOnUse"><stop offset="0" stop-color="#161b1d"/><stop offset="1" stop-color="#151819"/></linearGradient><linearGradient id="名称未設定グラデーション_1265" x1="150.64" y1="19.48" x2="151.99" y2="20.83" gradientUnits="userSpaceOnUse"><stop offset="0" stop-color="#15191a"/><stop offset="1" stop-color="#141617"/></linearGradient><linearGradient id="名称未設定グラデーション_1264" x1="150.65" y1="19.49" x2="151.98" y2="20.82" gradientUnits="userSpaceOnUse"><stop offset="0" stop-color="#141818"/><stop offset="1" stop-color="#131516"/></linearGradient><linearGradient id="名称未設定グラデーション_1263" x1="150.65" y1="19.5" x2="151.97" y2="20.81" gradientUnits="userSpaceOnUse"><stop offset="0" stop-color="#131616"/><stop offset="1" stop-color="#131414"/></linearGradient><linearGradient id="名称未設定グラデーション_1262" x1="150.66" y1="19.51" x2="151.96" y2="20.8" gradientUnits="userSpaceOnUse"><stop offset="0" stop-color="#121413"/><stop offset="1" stop-color="#121312"/></linearGradient><mask id="mask-13" x="150.45" y="17.3" width="3.76" height="3.63" maskUnits="userSpaceOnUse"><g class="cls-3"><path class="cls-4" d="M153.34,18c.87.79,1.13,1.93.57,2.55a1.9,1.9,0,0,1-2.59-.3,1.91,1.91,0,0,1-.58-2.55C151.3,17.07,152.46,17.21,153.34,18Z"/></g></mask><mask id="mask-14" x="148.25" y="19.64" width="3.76" height="3.63" maskUnits="userSpaceOnUse"><g class="cls-17"><path class="cls-18" d="M151.13,20.33c.88.78,1.14,1.92.58,2.54a1.89,1.89,0,0,1-2.59-.3c-.88-.78-1.14-1.92-.58-2.54A1.89,1.89,0,0,1,151.13,20.33Z"/></g></mask><mask id="mask-15" x="150.89" y="18.1" width="1.67" height="1.64" maskUnits="userSpaceOnUse"><g class="cls-21"><path class="cls-22" d="M152.23,18.36a.76.76,0,1,1-1,1.11.82.82,0,0,1-.17-1.15A.83.83,0,0,1,152.23,18.36Z"/></g></mask><mask id="mask-16" x="149.43" y="20.48" width="1.67" height="1.64" maskUnits="userSpaceOnUse"><g class="cls-23"><path class="cls-24" d="M150.76,20.74a.76.76,0,1,1-1,1.11.76.76,0,1,1,1-1.11Z"/></g></mask><mask id="mask-17" x="107.94" y="17.17" width="3.46" height="5.96" maskUnits="userSpaceOnUse"><g class="cls-9"><path class="cls-10" d="M111.4,17.17h-.48a3,3,0,0,0,0,6h.48Z"/></g></mask><mask id="mask-18" x="137.12" y="17.17" width="4.24" height="5.96" maskUnits="userSpaceOnUse"><g class="cls-13"><path class="cls-14" d="M138.38,17.17h-1.26v6h1.26a3,3,0,0,0,0-6Z"/></g></mask></defs><g id="レイヤー_2" data-name="レイヤー 2"><g id="線裏"><path class="cls-26" d="M248.57,160.85h-1.34v-58h1.34a.8.8,0,0,1,.8.8V160A.8.8,0,0,1,248.57,160.85Z"/><path class="cls-27" d="M248.21,160.85h-1v-58h1a.8.8,0,0,1,.8.8V160A.8.8,0,0,1,248.21,160.85Z"/><path class="cls-26" d="M.8,148.6H2.14v36.24H.8A.8.8,0,0,1,0,184V149.4A.8.8,0,0,1,.8,148.6Z"/><path class="cls-28" d="M1.17,148.6h1v36.24h-1A.81.81,0,0,1,.36,184V149.4A.8.8,0,0,1,1.17,148.6Z"/><path class="cls-26" d="M.8,102.79H2.14V139H.8a.8.8,0,0,1-.8-.8V103.59A.8.8,0,0,1,.8,102.79Z"/><path class="cls-29" d="M1.17,102.79h1V139h-1a.8.8,0,0,1-.81-.8V103.59A.8.8,0,0,1,1.17,102.79Z"/><path class="cls-26" d="M.8,67.12H2.14V86.27H.8a.8.8,0,0,1-.8-.8V67.92A.8.8,0,0,1,.8,67.12Z"/><path class="cls-30" d="M1.17,67.12h1V86.27h-1a.8.8,0,0,1-.81-.8V67.92A.8.8,0,0,1,1.17,67.12Z"/><path class="cls-31" d="M232.7,8.68c-6.88-5.1-16.39-7.57-29.07-7.57H45.69C33,1.11,23.48,3.58,16.61,8.68,7.37,15.52,2.68,27.44,2.68,44.11v410.7c0,16.8,4.69,28.75,13.92,35.54,6.91,5.08,16.15,7.44,29.09,7.44H203.63c12.91,0,22.15-2.37,29.07-7.47,9.23-6.81,13.91-18.75,13.91-35.51V44.11C246.61,27.44,241.93,15.52,232.7,8.68Z"/><path class="cls-32" d="M45.68,498.9c-13.18,0-22.63-2.43-29.73-7.65-9.54-7-14.38-19.27-14.38-36.44V44.11c0-17,4.84-29.26,14.38-36.32C23,2.55,32.75,0,45.68,0h158c12.93,0,22.66,2.55,29.73,7.79,9.53,7.06,14.36,19.28,14.36,36.32v410.7c0,17.13-4.83,29.38-14.36,36.4-7.12,5.25-16.57,7.69-29.73,7.69Z"/><path class="cls-33" d="M233.33,7.82c9.52,7,14.35,19.26,14.35,36.29v410.7c0,17.11-4.83,29.35-14.35,36.37-7.11,5.24-16.55,7.68-29.7,7.68H45.68c-13.17,0-22.61-2.43-29.71-7.65-9.52-7-14.35-19.25-14.35-36.4V44.11c0-17,4.83-29.24,14.35-36.29C23,2.59,32.76,0,45.68,0h158C216.55,0,226.27,2.59,233.33,7.82Z"/><path class="cls-34" d="M233.31,7.86c9.51,7,14.33,19.24,14.33,36.25v410.7c0,17.1-4.82,29.32-14.33,36.33-7.11,5.24-16.54,7.67-29.68,7.67H45.68c-13.16,0-22.6-2.42-29.68-7.63-9.52-7-14.34-19.23-14.34-36.37V44.11C1.66,27.1,6.48,14.9,16,7.86,23.06,2.63,32.77.09,45.68.09h158C216.54.09,226.25,2.63,233.31,7.86Z"/><path class="cls-35" d="M233.28,7.89c9.5,7,14.32,19.22,14.32,36.22v410.7c0,17.09-4.82,29.3-14.32,36.3-7.09,5.23-16.52,7.66-29.65,7.66H45.68c-13.15,0-22.58-2.42-29.66-7.63-9.5-7-14.32-19.21-14.32-36.33V44.11c0-17,4.82-29.18,14.32-36.22C23.07,2.67,32.78.13,45.68.13h158C216.53.13,226.23,2.67,233.28,7.89Z"/><path class="cls-36" d="M233.26,7.92c9.48,7,14.29,19.21,14.29,36.19v410.7c0,17.07-4.81,29.27-14.29,36.26-7.09,5.23-16.51,7.66-29.63,7.66H45.68c-13.14,0-22.56-2.42-29.63-7.62-9.49-7-14.31-19.19-14.31-36.3V44.11c0-17,4.82-29.16,14.31-36.19C23.09,2.71,32.79.17,45.68.17h158C216.52.17,226.21,2.71,233.26,7.92Z"/><path class="cls-37" d="M233.23,8c9.48,7,14.28,19.18,14.28,36.15v410.7c0,17.06-4.8,29.25-14.28,36.23-7.08,5.22-16.49,7.65-29.6,7.65H45.68c-13.13,0-22.54-2.42-29.61-7.61-9.48-7-14.28-19.17-14.28-36.27V44.11C1.79,27.14,6.59,15,16.07,8,23.11,2.75,32.8.21,45.68.21h158C216.51.21,226.2,2.75,233.23,8Z"/><path class="cls-38" d="M233.21,8c9.46,7,14.26,19.17,14.26,36.12v410.7c0,17-4.8,29.22-14.26,36.19-7.08,5.22-16.48,7.64-29.58,7.64H45.68c-13.12,0-22.53-2.41-29.58-7.6-9.47-7-14.27-19.15-14.27-36.23V44.11C1.83,27.16,6.63,15,16.1,8c7-5.2,16.71-7.73,29.58-7.73h158C216.5.26,226.18,2.79,233.21,8Z"/><path class="cls-39" d="M233.18,8c9.45,7,14.24,19.14,14.24,36.08v410.7c0,17-4.79,29.19-14.24,36.16-7.07,5.21-16.46,7.63-29.55,7.63H45.68c-13.12,0-22.51-2.41-29.56-7.59-9.45-6.95-14.25-19.13-14.25-36.2V44.11C1.87,27.17,6.67,15,16.12,8,23.15,2.83,32.82.3,45.68.3h158C216.49.3,226.16,2.83,233.18,8Z"/><path class="cls-40" d="M233.15,8.06c9.45,7,14.23,19.12,14.23,36.05v410.7c0,17-4.78,29.17-14.22,36.12-7.06,5.21-16.45,7.63-29.53,7.63H45.69c-13.12,0-22.5-2.41-29.54-7.59C6.7,484,1.92,471.86,1.92,454.81V44.11c0-16.93,4.78-29,14.23-36C23.16,2.87,32.82.34,45.69.34H203.63C216.48.34,226.14,2.87,233.15,8.06Z"/><path class="cls-41" d="M233.13,8.1c9.43,7,14.21,19.1,14.21,36v410.7c0,17-4.78,29.14-14.21,36.09-7,5.2-16.43,7.62-29.5,7.62H45.69c-13.11,0-22.48-2.41-29.52-7.58C6.74,484,2,471.85,2,454.81V44.11c0-16.91,4.78-29,14.21-36C23.18,2.91,32.83.38,45.69.38H203.63C216.48.38,226.13,2.91,233.13,8.1Z"/><path class="cls-42" d="M233.1,8.13c9.42,7,14.2,19.08,14.2,36v410.7c0,17-4.78,29.12-14.19,36.06-7.05,5.19-16.42,7.6-29.48,7.6H45.69c-13.1,0-22.47-2.4-29.49-7.57C6.78,484,2,471.83,2,454.81V44.11c0-16.9,4.78-29,14.2-36C23.2,3,32.84.43,45.69.43H203.63C216.47.43,226.11,3,233.1,8.13Z"/><path class="cls-43" d="M233.08,8.16c9.4,7,14.17,19.07,14.17,36v410.7c0,17-4.76,29.09-14.17,36-7,5.19-16.39,7.6-29.45,7.6H45.69c-13.09,0-22.45-2.4-29.47-7.56C6.81,484,2,471.82,2,454.81V44.11c0-16.88,4.77-29,14.19-35.95C23.22,3,32.85.47,45.69.47H203.63C216.46.47,226.09,3,233.08,8.16Z"/><path class="cls-44" d="M233.05,8.2c9.4,7,14.16,19,14.16,35.91v410.7c0,17-4.76,29.07-14.16,36-7,5.18-16.37,7.59-29.42,7.59H45.69c-13.08,0-22.43-2.4-29.44-7.56-9.4-6.9-14.16-19-14.16-36V44.11c0-16.87,4.76-28.95,14.16-35.91C23.23,3,32.86.51,45.69.51H203.63C216.45.51,226.07,3,233.05,8.2Z"/><path class="cls-45" d="M233,8.23c9.38,7,14.14,19,14.14,35.88v410.7c0,16.94-4.76,29-14.14,35.95-7,5.18-16.36,7.58-29.4,7.58H45.69c-13.07,0-22.41-2.39-29.42-7.54-9.38-6.9-14.14-19-14.14-36V44.11c0-16.85,4.76-28.93,14.15-35.88C23.25,3.07,32.87.55,45.69.55H203.63C216.44.55,226.05,3.07,233,8.23Z"/><path class="cls-46" d="M233,8.27c9.37,6.94,14.13,19,14.13,35.84v410.7c0,16.93-4.76,29-14.13,35.92-7,5.17-16.34,7.57-29.37,7.57H45.69c-13.06,0-22.4-2.39-29.39-7.53-9.38-6.9-14.13-19-14.13-36V44.11c0-16.84,4.76-28.9,14.13-35.84C23.27,3.11,32.88.6,45.69.6H203.63C216.43.6,226,3.11,233,8.27Z"/><path class="cls-47" d="M233,8.3c9.36,6.94,14.1,19,14.1,35.81v410.7c0,16.91-4.74,29-14.1,35.88-7,5.17-16.33,7.57-29.35,7.57H45.69c-13,0-22.38-2.39-29.37-7.53-9.36-6.88-14.11-19-14.11-35.92V44.11C2.21,27.28,7,15.24,16.33,8.3,23.29,3.15,32.89.64,45.69.64H203.63C216.42.64,226,3.15,233,8.3Z"/><path class="cls-48" d="M233,8.33C242.3,15.26,247,27.3,247,44.11v410.7c0,16.9-4.74,29-14.09,35.85-7,5.16-16.31,7.56-29.32,7.56H45.69c-13,0-22.36-2.39-29.34-7.52C7,483.82,2.26,471.75,2.26,454.81V44.11C2.26,27.3,7,15.26,16.35,8.34,23.31,3.19,32.9.68,45.69.68H203.63C216.41.68,226,3.19,233,8.33Z"/><path class="cls-49" d="M232.93,8.37C242.26,15.29,247,27.31,247,44.11v410.7c0,16.89-4.74,28.94-14.07,35.82-7,5.15-16.3,7.54-29.3,7.54H45.69c-13,0-22.34-2.38-29.31-7.51C7,483.8,2.3,471.73,2.3,454.81V44.11C2.3,27.31,7,15.29,16.38,8.37,23.32,3.23,32.91.73,45.69.73H203.63C216.4.73,226,3.23,232.93,8.37Z"/><path class="cls-50" d="M232.9,8.4C242.23,15.31,247,27.33,247,44.11v410.7c0,16.87-4.73,28.91-14.06,35.78-7,5.15-16.28,7.54-29.27,7.54H45.69c-13,0-22.33-2.38-29.29-7.5-9.33-6.86-14.06-18.91-14.06-35.82V44.11c0-16.78,4.73-28.8,14.06-35.71C23.34,3.27,32.92.77,45.69.77H203.63C216.39.77,226,3.27,232.9,8.4Z"/><path class="cls-51" d="M232.88,8.44c9.31,6.9,14,18.9,14,35.67v410.7c0,16.86-4.72,28.88-14,35.75-7,5.14-16.27,7.53-29.25,7.53H45.69c-13,0-22.31-2.38-29.26-7.5-9.32-6.85-14-18.88-14-35.78V44.11c0-16.77,4.73-28.77,14.05-35.67C23.36,3.31,32.93.81,45.69.81H203.63C216.38.81,226,3.31,232.88,8.44Z"/><path class="cls-52" d="M232.85,8.47c9.3,6.89,14,18.89,14,35.64v410.7c0,16.84-4.72,28.86-14,35.71-7,5.14-16.25,7.53-29.22,7.53H45.69c-13,0-22.29-2.38-29.24-7.49-9.3-6.84-14-18.87-14-35.75V44.11c0-16.75,4.72-28.75,14-35.64C23.38,3.35,32.94.85,45.69.85H203.63C216.37.85,225.93,3.35,232.85,8.47Z"/><path class="cls-53" d="M232.82,8.51c9.3,6.88,14,18.86,14,35.6v410.7c0,16.83-4.71,28.83-14,35.68-7,5.13-16.24,7.51-29.2,7.51H45.69c-13,0-22.27-2.37-29.21-7.47-9.3-6.84-14-18.85-14-35.72V44.11c0-16.74,4.71-28.72,14-35.6C23.39,3.39,33,.9,45.69.9H203.63C216.36.9,225.91,3.39,232.82,8.51Z"/><path class="cls-54" d="M232.8,8.54c9.28,6.88,14,18.84,14,35.57v410.7c0,16.81-4.7,28.81-14,35.64-7,5.13-16.22,7.51-29.17,7.51H45.69c-13,0-22.26-2.37-29.19-7.47-9.28-6.82-14-18.83-14-35.68V44.11c0-16.73,4.71-28.69,14-35.57C23.41,3.43,33,.94,45.69.94H203.63C216.35.94,225.89,3.43,232.8,8.54Z"/><path class="cls-55" d="M232.77,8.57c9.27,6.87,14,18.83,14,35.54v410.7c0,16.8-4.7,28.78-14,35.61-6.95,5.12-16.21,7.5-29.15,7.5H45.69c-13,0-22.24-2.37-29.16-7.46-9.27-6.82-14-18.81-14-35.65V44.11c0-16.71,4.7-28.67,14-35.54C23.43,3.47,33,1,45.69,1H203.63C216.34,1,225.88,3.47,232.77,8.57Z"/><path class="cls-56" d="M232.75,8.61c9.26,6.86,13.95,18.8,13.95,35.5v410.7c0,16.79-4.69,28.76-13.95,35.58-6.93,5.11-16.19,7.49-29.12,7.49H45.69c-13,0-22.22-2.37-29.14-7.46C7.29,483.62,2.6,471.63,2.6,454.81V44.11c0-16.7,4.69-28.64,14-35.5C23.45,3.51,33,1,45.69,1H203.63C216.33,1,225.86,3.51,232.75,8.61Z"/><path class="cls-57" d="M232.72,8.64c9.25,6.85,13.94,18.79,13.94,35.47v410.7c0,16.77-4.69,28.73-13.93,35.54-6.93,5.11-16.18,7.48-29.1,7.48H45.69c-12.95,0-22.2-2.36-29.11-7.44-9.25-6.8-13.94-18.77-13.94-35.58V44.11c0-16.68,4.69-28.62,13.94-35.47C23.47,3.54,33,1.07,45.69,1.07H203.63C216.32,1.07,225.84,3.54,232.72,8.64Z"/><path class="cls-58" d="M232.7,8.68c-6.88-5.1-16.39-7.57-29.07-7.57H45.69C33,1.11,23.48,3.58,16.61,8.68,7.37,15.52,2.68,27.44,2.68,44.11v410.7c0,16.8,4.69,28.75,13.92,35.54,6.91,5.08,16.15,7.44,29.09,7.44H203.63c12.91,0,22.15-2.37,29.07-7.47,9.23-6.81,13.91-18.75,13.91-35.51V44.11C246.61,27.44,241.93,15.52,232.7,8.68Z"/><path class="cls-59" d="M45.69,497.7c-12.92,0-22.15-2.35-29-7.42-9.21-6.77-13.88-18.7-13.88-35.47V44.11c0-16.64,4.67-28.54,13.89-35.36,6.86-5.09,16.35-7.56,29-7.56H203.63c12.67,0,22.16,2.47,29,7.56,9.21,6.82,13.88,18.72,13.88,35.36v410.7c0,16.73-4.67,28.65-13.88,35.44-6.9,5.09-16.13,7.45-29,7.45Z"/><path class="cls-60" d="M45.69,497.62c-12.91,0-22.11-2.35-29-7.4-9.19-6.76-13.85-18.67-13.85-35.41V44.11c0-16.61,4.67-28.49,13.86-35.3,6.84-5.07,16.32-7.53,29-7.53H203.63c12.65,0,22.12,2.46,29,7.53,9.18,6.81,13.84,18.69,13.84,35.3v410.7c0,16.7-4.65,28.6-13.84,35.37-6.89,5.08-16.1,7.44-29,7.44Z"/><path class="cls-61" d="M45.69,497.53c-12.89,0-22.08-2.34-28.94-7.38-9.16-6.74-13.81-18.63-13.81-35.34V44.11c0-16.58,4.65-28.44,13.82-35.23,6.83-5.06,16.29-7.51,28.93-7.51H203.63c12.63,0,22.09,2.45,28.92,7.51,9.16,6.79,13.81,18.65,13.81,35.23v410.7c0,16.67-4.65,28.55-13.81,35.3-6.88,5.07-16.07,7.42-28.92,7.42Z"/><path class="cls-62" d="M45.69,497.45c-12.87,0-22-2.34-28.89-7.37C7.66,483.36,3,471.49,3,454.81V44.11C3,27.56,7.66,15.73,16.81,9c6.82-5,16.26-7.5,28.88-7.5H203.63c12.61,0,22.05,2.45,28.86,7.5,9.15,6.78,13.78,18.6,13.78,35.16v410.7c0,16.64-4.63,28.5-13.77,35.23-6.86,5.06-16,7.41-28.87,7.41Z"/><path class="cls-63" d="M45.69,497.36c-12.85,0-22-2.33-28.83-7.35-9.13-6.71-13.75-18.55-13.75-35.2V44.11C3.11,27.58,7.74,15.78,16.86,9c6.8-5,16.23-7.48,28.83-7.48H203.63c12.59,0,22,2.44,28.81,7.48,9.12,6.76,13.75,18.56,13.75,35.09v410.7c0,16.61-4.63,28.44-13.74,35.16-6.85,5-16,7.39-28.82,7.39Z"/><path class="cls-64" d="M45.69,497.28c-12.83,0-22-2.33-28.78-7.34C7.81,483.25,3.2,471.43,3.2,454.81V44.11c0-16.5,4.61-28.28,13.71-35,6.79-5,16.2-7.47,28.78-7.47H203.63c12.57,0,22,2.44,28.76,7.47,9.1,6.74,13.71,18.52,13.71,35v410.7c0,16.59-4.61,28.39-13.7,35.09-6.83,5-16,7.38-28.77,7.38Z"/><path class="cls-65" d="M45.69,497.19c-12.81,0-21.94-2.32-28.73-7.32C7.88,483.2,3.28,471.4,3.28,454.81V44.11C3.28,27.64,7.88,15.88,17,9.16c6.77-5,16.17-7.45,28.73-7.45H203.63c12.55,0,21.94,2.43,28.71,7.45,9.08,6.72,13.68,18.48,13.68,35v410.7c0,16.56-4.6,28.34-13.67,35-6.82,5-15.94,7.35-28.72,7.35Z"/><path class="cls-66" d="M45.69,497.11c-12.79,0-21.9-2.32-28.68-7.31-9-6.65-13.64-18.42-13.64-35V44.11C3.37,27.67,8,15.93,17,9.23c6.76-5,16.14-7.44,28.68-7.44H203.63c12.53,0,21.91,2.43,28.66,7.44,9.05,6.7,13.64,18.44,13.64,34.88v410.7c0,16.53-4.59,28.29-13.63,35-6.8,5-15.91,7.34-28.67,7.34Z"/><path class="cls-67" d="M45.69,497c-12.77,0-21.87-2.31-28.63-7.29C8,483.1,3.45,471.35,3.45,454.81V44.11C3.45,27.7,8,16,17.06,9.29c6.74-5,16.11-7.41,28.63-7.41H203.63c12.51,0,21.87,2.42,28.61,7.41,9,6.69,13.61,18.41,13.61,34.82v410.7c0,16.5-4.58,28.24-13.61,34.89-6.78,5-15.87,7.32-28.61,7.32Z"/><path class="cls-68" d="M45.69,496.94c-12.75,0-21.83-2.31-28.58-7.27-9-6.62-13.57-18.35-13.57-34.86V44.11C3.54,27.73,8.1,16,17.11,9.36,23.84,4.38,33.18,2,45.69,2H203.63c12.49,0,21.84,2.42,28.56,7.4,9,6.67,13.57,18.37,13.57,34.75v410.7c0,16.47-4.56,28.19-13.57,34.82-6.76,5-15.84,7.31-28.56,7.31Z"/><path class="cls-69" d="M45.69,496.85c-12.73,0-21.8-2.3-28.53-7.25-9-6.61-13.54-18.31-13.54-34.79V44.11c0-16.36,4.56-28,13.54-34.68,6.71-5,16-7.38,28.53-7.38H203.63c12.48,0,21.8,2.41,28.51,7.38,9,6.66,13.54,18.32,13.54,34.68v410.7c0,16.44-4.56,28.13-13.54,34.75-6.75,5-15.81,7.29-28.51,7.29Z"/><path class="cls-70" d="M45.69,496.77c-12.71,0-21.76-2.3-28.48-7.24-9-6.59-13.5-18.27-13.5-34.72V44.11c0-16.33,4.54-28,13.51-34.61,6.69-5,16-7.37,28.47-7.37H203.63c12.46,0,21.77,2.41,28.46,7.37,9,6.64,13.5,18.28,13.5,34.61v410.7c0,16.41-4.54,28.08-13.5,34.68-6.73,5-15.78,7.28-28.46,7.28Z"/><path class="cls-71" d="M45.69,496.68c-12.7,0-21.73-2.29-28.43-7.22-8.94-6.57-13.47-18.23-13.47-34.65V44.11c0-16.3,4.54-27.92,13.48-34.54,6.68-4.95,16-7.35,28.42-7.35H203.63c12.44,0,21.73,2.4,28.41,7.35,8.93,6.62,13.47,18.24,13.47,34.54v410.7c0,16.39-4.53,28-13.47,34.61-6.72,4.95-15.75,7.26-28.41,7.26Z"/><path class="cls-72" d="M45.69,496.6c-12.68,0-21.69-2.29-28.38-7.21C8.4,482.84,3.88,471.2,3.88,454.81V44.11c0-16.27,4.52-27.87,13.44-34.47C24,4.7,33.26,2.3,45.69,2.3H203.63c12.42,0,21.7,2.4,28.36,7.34,8.91,6.6,13.43,18.2,13.43,34.47v410.7c0,16.36-4.52,28-13.43,34.55-6.7,4.93-15.72,7.24-28.36,7.24Z"/><path class="cls-73" d="M45.69,496.51c-12.66,0-21.66-2.28-28.33-7.19C8.47,482.79,4,471.18,4,454.81V44.11C4,27.87,8.47,16.29,17.37,9.71,24,4.78,33.28,2.39,45.69,2.39H203.63c12.4,0,21.66,2.39,28.31,7.32,8.89,6.58,13.39,18.16,13.39,34.4v410.7c0,16.33-4.5,27.93-13.39,34.48-6.69,4.92-15.68,7.22-28.31,7.22Z"/><path class="cls-74" d="M45.69,496.42c-12.64,0-21.62-2.27-28.28-7.17-8.87-6.51-13.36-18.1-13.36-34.44V44.11c0-16.21,4.5-27.76,13.37-34.34,6.63-4.91,15.88-7.3,28.27-7.3H203.63c12.38,0,21.62,2.39,28.26,7.3,8.86,6.57,13.36,18.13,13.36,34.34v410.7c0,16.3-4.5,27.88-13.36,34.41-6.67,4.91-15.65,7.2-28.26,7.2Z"/><path class="cls-75" d="M45.69,496.34c-12.62,0-21.59-2.27-28.23-7.16-8.84-6.5-13.33-18.06-13.33-34.37V44.11c0-16.18,4.49-27.71,13.34-34.27,6.62-4.9,15.85-7.28,28.22-7.28H203.63c12.36,0,21.59,2.38,28.2,7.28,8.85,6.56,13.33,18.09,13.33,34.27v410.7c0,16.27-4.48,27.82-13.32,34.34-6.66,4.9-15.62,7.19-28.21,7.19Z"/><path class="cls-76" d="M45.69,496.25c-12.6,0-21.55-2.26-28.18-7.13-8.82-6.49-13.29-18-13.29-34.31V44.11c0-16.16,4.47-27.66,13.3-34.2C24.12,5,33.34,2.64,45.69,2.64H203.63C216,2.64,225.18,5,231.78,9.91c8.83,6.54,13.3,18,13.3,34.2v410.7c0,16.24-4.47,27.77-13.29,34.27-6.64,4.89-15.59,7.17-28.16,7.17Z"/><path class="cls-77" d="M45.68,496.17c-12.57,0-21.51-2.26-28.12-7.12-8.79-6.47-13.26-18-13.26-34.24V44.11C4.3,28,8.77,16.5,17.57,10,24.16,5.1,33.36,2.73,45.68,2.73h158c12.32,0,21.52,2.37,28.1,7.25C240.53,16.5,245,28,245,44.11v410.7c0,16.21-4.46,27.72-13.25,34.2-6.63,4.88-15.56,7.16-28.11,7.16Z"/><path class="cls-78" d="M45.68,496.08c-12.55,0-21.47-2.25-28.07-7.1-8.77-6.45-13.22-18-13.22-34.17V44.11c0-16.1,4.45-27.56,13.23-34.06,6.57-4.87,15.75-7.23,28.06-7.23h158c12.31,0,21.48,2.36,28.05,7.23,8.78,6.5,13.23,18,13.23,34.06v410.7c0,16.19-4.45,27.67-13.22,34.13-6.61,4.87-15.53,7.14-28.06,7.14Z"/><path class="cls-79" d="M45.68,496c-12.53,0-21.44-2.25-28-7.09C8.91,482.48,4.48,471,4.48,454.81V44.11c0-16.07,4.44-27.51,13.19-34,6.56-4.86,15.72-7.22,28-7.22h158c12.29,0,21.45,2.36,28,7.22,8.75,6.48,13.19,17.92,13.19,34v410.7c0,16.16-4.43,27.62-13.18,34.06-6.6,4.86-15.5,7.13-28,7.13Z"/><path class="cls-80" d="M45.68,495.91c-12.51,0-21.4-2.24-28-7.07C9,482.42,4.56,471,4.56,454.81V44.11c0-16,4.43-27.46,13.16-33.92C24.27,5.34,33.41,3,45.68,3h158c12.27,0,21.41,2.35,28,7.2,8.73,6.46,13.16,17.88,13.16,33.92v410.7c0,16.13-4.43,27.57-13.15,34-6.58,4.84-15.47,7.1-28,7.1Z"/><path class="cls-81" d="M45.68,495.83c-12.49,0-21.37-2.24-27.91-7.06-8.71-6.4-13.12-17.82-13.12-34V44.11c0-16,4.41-27.4,13.12-33.86C24.3,5.42,33.43,3.07,45.68,3.07h158c12.25,0,21.38,2.35,27.9,7.18,8.71,6.46,13.12,17.85,13.12,33.86v410.7c0,16.1-4.41,27.51-13.11,33.93-6.57,4.83-15.44,7.09-27.91,7.09Z"/><path class="cls-82" d="M45.68,495.74c-12.48,0-21.33-2.23-27.86-7-8.69-6.38-13.09-17.78-13.09-33.89V44.11c0-16,4.41-27.35,13.09-33.79C24.34,5.5,33.45,3.16,45.68,3.16h158c12.23,0,21.34,2.34,27.85,7.16,8.68,6.44,13.09,17.8,13.09,33.79v410.7c0,16.07-4.4,27.46-13.08,33.86-6.55,4.82-15.41,7.07-27.86,7.07Z"/><path class="cls-83" d="M45.68,495.66c-12.46,0-21.3-2.23-27.81-7-8.66-6.37-13-17.75-13-33.83V44.11c0-16,4.39-27.3,13.06-33.72,6.49-4.81,15.59-7.15,27.8-7.15h158c12.21,0,21.3,2.34,27.8,7.15,8.66,6.42,13,17.76,13,33.72v410.7c0,16-4.39,27.41-13,33.79-6.54,4.81-15.38,7.06-27.81,7.06Z"/><path class="cls-84" d="M45.68,495.57c-12.44,0-21.26-2.22-27.76-7-8.64-6.35-13-17.71-13-33.76V44.11c0-15.93,4.38-27.25,13-33.65,6.48-4.8,15.56-7.13,27.75-7.13h158c12.19,0,21.27,2.33,27.75,7.13,8.64,6.4,13,17.72,13,33.65v410.7c0,16-4.38,27.36-13,33.72-6.51,4.8-15.34,7-27.75,7Z"/><rect class="cls-85" x="1.57" y="47.73" width="246.15" height="3.55"/><rect class="cls-86" x="1.57" y="447.6" width="246.15" height="3.55"/><path class="cls-87" d="M45.69,495.38c-12.4,0-21.19-2.22-27.66-7C9.45,482.1,5.09,470.8,5.09,454.81V44.11C5.09,28.25,9.45,17,18,10.62c6.45-4.78,15.49-7.1,27.65-7.1H203.63c12.15,0,21.19,2.32,27.63,7.1C239.85,17,244.2,28.25,244.2,44.11v410.7c0,15.95-4.35,27.24-12.93,33.57-6.48,4.77-15.27,7-27.64,7Z"/><path class="cls-88" d="M231.26,10.62c-6.44-4.78-15.48-7.1-27.63-7.1H45.69c-12.16,0-21.2,2.32-27.65,7.1C9.45,17,5.09,28.25,5.09,44.11v410.7c0,16,4.36,27.29,12.94,33.6,6.47,4.75,15.26,7,27.66,7H203.63c12.37,0,21.16-2.23,27.64-7,8.58-6.33,12.93-17.62,12.93-33.57V44.11C244.2,28.25,239.85,17,231.26,10.62ZM243.4,454.81c0,15.68-4.24,26.75-12.61,32.92-6.34,4.67-15,6.84-27.16,6.84H45.69c-12.22,0-20.86-2.16-27.18-6.81C10.14,481.61,5.9,470.53,5.9,454.81V44.11c0-15.59,4.24-26.65,12.62-32.85,6.3-4.67,15.19-6.94,27.17-6.94H203.63c12,0,20.85,2.27,27.15,6.94,8.37,6.2,12.62,17.25,12.62,32.85Z"/><path class="cls-89" d="M230.07,12.23c-6.09-4.51-14.74-6.7-26.44-6.7H45.69c-11.71,0-20.36,2.19-26.45,6.7-8,6-12.14,16.69-12.14,31.88v410.7c0,15.31,4.08,26.07,12.12,32,6.11,4.49,14.52,6.58,26.47,6.58H203.63c11.92,0,20.33-2.1,26.45-6.61,8-5.93,12.11-16.67,12.11-31.95V44.11C242.19,28.92,238.11,18.19,230.07,12.23Zm11.72,442.58c0,15.14-4,25.78-11.95,31.62-6.05,4.46-14.38,6.54-26.21,6.54H45.69c-11.86,0-20.2-2.07-26.23-6.5-7.93-5.83-12-16.48-12-31.66V44.11c0-15.06,4-25.67,12-31.56,6-4.45,14.59-6.62,26.21-6.62H203.63c11.61,0,20.18,2.17,26.2,6.62,7.94,5.88,12,16.5,12,31.56Z"/><path class="cls-90" d="M45.69,489c-11,0-18.54-1.82-23.85-5.72-6.84-5-10.32-14.59-10.32-28.42V44.11c0-13.71,3.48-23.24,10.35-28.33C27.17,11.86,35,10,45.69,10H203.63c10.72,0,18.51,1.91,23.8,5.83,6.86,5.08,10.34,14.62,10.34,28.33v410.7c0,13.79-3.47,23.34-10.31,28.39-5.33,3.92-12.9,5.75-23.83,5.75Z"/><path class="cls-91" d="M229.83,12.55c-6-4.45-14.59-6.62-26.2-6.62H45.69c-11.62,0-20.2,2.17-26.21,6.62-8,5.89-12,16.5-12,31.56v410.7c0,15.18,4,25.83,12,31.66,6,4.43,14.37,6.5,26.23,6.5H203.63c11.83,0,20.16-2.08,26.21-6.54,7.93-5.84,11.95-16.48,11.95-31.62V44.11C241.79,29.05,237.77,18.43,229.83,12.55Zm7.94,442.26c0,13.79-3.47,23.34-10.31,28.39-5.33,3.92-12.9,5.75-23.83,5.75H45.69c-11,0-18.54-1.82-23.85-5.72-6.84-5-10.32-14.59-10.32-28.42V44.11c0-13.71,3.48-23.24,10.35-28.33C27.17,11.86,35,10,45.69,10H203.63c10.72,0,18.51,1.91,23.8,5.83,6.86,5.08,10.34,14.62,10.34,28.33Z"/><path class="cls-92" d="M11.47,454.81V44.11c0-16.53,6.8-28.08,14.76-35.21a28.3,28.3,0,0,0-6.81,3.65c-7.94,5.89-12,16.5-12,31.56v410.7c0,15.18,4,25.83,12,31.66a28.06,28.06,0,0,0,6.71,3.59C18.19,483,11.47,471.43,11.47,454.81Z"/><path class="cls-92" d="M229.77,12.55a28.45,28.45,0,0,0-6.87-3.68,47.31,47.31,0,0,1,14.82,34.24v411.7c0,16.53-7,28.22-15.1,35.41a28.33,28.33,0,0,0,7.16-3.79c7.94-5.84,12-16.48,12-31.62V44.11C241.74,29.05,237.71,18.43,229.77,12.55Z"/><path class="cls-93" d="M45.69,484.53c-10,0-16.72-1.55-21.23-4.86C18.81,475.52,16,467.15,16,454.81V44.11c0-12.24,2.87-20.57,8.55-24.77,4.51-3.34,11.44-5,21.19-5H60.12a4,4,0,0,1,4.05,4.05v1A12.65,12.65,0,0,0,76.83,32.05h95.59a12.66,12.66,0,0,0,12.66-12.51V18.38a4.06,4.06,0,0,1,4-4h14.49c9.74,0,16.67,1.62,21.17,5,5.68,4.21,8.55,12.54,8.55,24.78v410.7c0,12.31-2.86,20.66-8.52,24.83-4.52,3.33-11.26,4.89-21.2,4.89Z"/><path class="cls-94" d="M155,20.16a3.67,3.67,0,1,1-3.67-3.67A3.66,3.66,0,0,1,155,20.16Z"/><path class="cls-90" d="M153.74,20.16a2.43,2.43,0,1,1-2.43-2.43A2.43,2.43,0,0,1,153.74,20.16Z"/><g class="cls-95"><path class="cls-96" d="M151.31,22.12a2,2,0,1,1,2-2A2,2,0,0,1,151.31,22.12Z"/><path class="cls-97" d="M151.31,22.1a1.95,1.95,0,1,1,1.95-1.94A2,2,0,0,1,151.31,22.1Z"/><path class="cls-98" d="M151.31,22.09a1.94,1.94,0,1,1,1.94-1.93A1.94,1.94,0,0,1,151.31,22.09Z"/><path class="cls-99" d="M151.31,22.08a1.93,1.93,0,1,1,1.93-1.92A1.92,1.92,0,0,1,151.31,22.08Z"/><path class="cls-100" d="M151.31,22.07a1.92,1.92,0,1,1,1.92-1.91A1.92,1.92,0,0,1,151.31,22.07Z"/><path class="cls-101" d="M151.31,22.06a1.91,1.91,0,1,1,1.91-1.9A1.9,1.9,0,0,1,151.31,22.06Z"/><path class="cls-102" d="M151.31,22.05a1.9,1.9,0,1,1,1.9-1.89A1.89,1.89,0,0,1,151.31,22.05Z"/><path class="cls-103" d="M151.31,22a1.89,1.89,0,1,1,1.89-1.88A1.89,1.89,0,0,1,151.31,22Z"/><path class="cls-104" d="M151.31,22a1.88,1.88,0,1,1,1.88-1.87A1.87,1.87,0,0,1,151.31,22Z"/><path class="cls-105" d="M151.31,22a1.87,1.87,0,1,1,1.86-1.86A1.87,1.87,0,0,1,151.31,22Z"/><path class="cls-106" d="M151.31,22a1.85,1.85,0,1,1,1.85-1.84A1.84,1.84,0,0,1,151.31,22Z"/><path class="cls-107" d="M151.31,22a1.84,1.84,0,1,1,1.84-1.83A1.83,1.83,0,0,1,151.31,22Z"/><path class="cls-108" d="M151.31,22a1.83,1.83,0,1,1,1.83-1.82A1.83,1.83,0,0,1,151.31,22Z"/><path class="cls-109" d="M151.31,22a1.82,1.82,0,1,1,1.82-1.81A1.81,1.81,0,0,1,151.31,22Z"/><path class="cls-110" d="M151.31,22a1.81,1.81,0,1,1,1.81-1.8A1.81,1.81,0,0,1,151.31,22Z"/><path class="cls-111" d="M151.31,22a1.8,1.8,0,1,1,1.8-1.79A1.79,1.79,0,0,1,151.31,22Z"/><path class="cls-112" d="M151.31,21.94a1.79,1.79,0,1,1,1.79-1.78A1.78,1.78,0,0,1,151.31,21.94Z"/><path class="cls-113" d="M151.31,21.93a1.78,1.78,0,1,1,1.78-1.77A1.78,1.78,0,0,1,151.31,21.93Z"/><path class="cls-114" d="M151.31,21.92a1.77,1.77,0,1,1,1.76-1.76A1.76,1.76,0,0,1,151.31,21.92Z"/><path class="cls-115" d="M151.31,21.9a1.75,1.75,0,1,1,1.75-1.74A1.75,1.75,0,0,1,151.31,21.9Z"/><path class="cls-116" d="M151.31,21.89a1.74,1.74,0,1,1,1.74-1.73A1.74,1.74,0,0,1,151.31,21.89Z"/><path class="cls-117" d="M151.31,21.88A1.73,1.73,0,1,1,153,20.16,1.72,1.72,0,0,1,151.31,21.88Z"/><path class="cls-118" d="M151.31,21.87A1.72,1.72,0,1,1,153,20.16,1.72,1.72,0,0,1,151.31,21.87Z"/><path class="cls-119" d="M151.31,21.86a1.71,1.71,0,1,1,1.71-1.7A1.7,1.7,0,0,1,151.31,21.86Z"/><path class="cls-120" d="M151.31,21.85A1.69,1.69,0,1,1,153,20.16,1.69,1.69,0,0,1,151.31,21.85Z"/><path class="cls-121" d="M151.31,21.83A1.68,1.68,0,1,1,153,20.16,1.67,1.67,0,0,1,151.31,21.83Z"/><path class="cls-122" d="M151.31,21.82A1.67,1.67,0,1,1,153,20.16,1.67,1.67,0,0,1,151.31,21.82Z"/><path class="cls-123" d="M151.31,21.81A1.66,1.66,0,1,1,153,20.16,1.65,1.65,0,0,1,151.31,21.81Z"/><path class="cls-124" d="M151.31,21.79A1.64,1.64,0,1,1,153,20.16,1.64,1.64,0,0,1,151.31,21.79Z"/><path class="cls-125" d="M151.31,21.78a1.63,1.63,0,1,1,1.63-1.62A1.63,1.63,0,0,1,151.31,21.78Z"/><path class="cls-126" d="M151.31,21.77a1.62,1.62,0,0,1,0-3.23,1.62,1.62,0,1,1,0,3.23Z"/><path class="cls-127" d="M151.31,21.76a1.61,1.61,0,1,1,1.61-1.6A1.6,1.6,0,0,1,151.31,21.76Z"/><path class="cls-128" d="M151.31,21.74a1.59,1.59,0,1,1,1.59-1.58A1.59,1.59,0,0,1,151.31,21.74Z"/><path class="cls-129" d="M151.31,21.73a1.58,1.58,0,1,1,1.58-1.57A1.57,1.57,0,0,1,151.31,21.73Z"/><path class="cls-130" d="M151.31,21.72a1.57,1.57,0,1,1,1.57-1.56A1.56,1.56,0,0,1,151.31,21.72Z"/><path class="cls-131" d="M151.31,21.71a1.56,1.56,0,1,1,1.56-1.55A1.56,1.56,0,0,1,151.31,21.71Z"/><path class="cls-132" d="M151.31,21.69a1.54,1.54,0,1,1,1.54-1.53A1.55,1.55,0,0,1,151.31,21.69Z"/><path class="cls-133" d="M151.31,21.68a1.53,1.53,0,1,1,1.53-1.52A1.52,1.52,0,0,1,151.31,21.68Z"/><path class="cls-134" d="M151.31,21.67a1.52,1.52,0,1,1,1.52-1.51A1.52,1.52,0,0,1,151.31,21.67Z"/><path class="cls-135" d="M151.31,21.66a1.51,1.51,0,1,1,1.5-1.5A1.51,1.51,0,0,1,151.31,21.66Z"/><path class="cls-136" d="M151.31,21.64a1.49,1.49,0,1,1,1.49-1.48A1.49,1.49,0,0,1,151.31,21.64Z"/><path class="cls-137" d="M151.31,21.63a1.48,1.48,0,1,1,1.48-1.47A1.47,1.47,0,0,1,151.31,21.63Z"/><path class="cls-138" d="M151.31,21.62a1.47,1.47,0,1,1,1.47-1.46A1.47,1.47,0,0,1,151.31,21.62Z"/><path class="cls-139" d="M151.31,21.61a1.46,1.46,0,1,1,1.45-1.45A1.45,1.45,0,0,1,151.31,21.61Z"/><path class="cls-140" d="M151.31,21.59a1.44,1.44,0,1,1,1.44-1.43A1.43,1.43,0,0,1,151.31,21.59Z"/><path class="cls-141" d="M151.31,21.58a1.43,1.43,0,1,1,1.43-1.42A1.43,1.43,0,0,1,151.31,21.58Z"/><path class="cls-142" d="M151.31,21.57a1.42,1.42,0,1,1,1.41-1.41A1.42,1.42,0,0,1,151.31,21.57Z"/><path class="cls-143" d="M151.31,21.55a1.4,1.4,0,1,1,1.4-1.39A1.39,1.39,0,0,1,151.31,21.55Z"/><path class="cls-144" d="M151.31,21.54a1.39,1.39,0,1,1,1.39-1.38A1.38,1.38,0,0,1,151.31,21.54Z"/><path class="cls-145" d="M151.31,21.53a1.38,1.38,0,1,1,1.38-1.37A1.38,1.38,0,0,1,151.31,21.53Z"/><path class="cls-146" d="M151.31,21.51a1.36,1.36,0,1,1,1.36-1.35A1.36,1.36,0,0,1,151.31,21.51Z"/><path class="cls-147" d="M151.31,21.5a1.35,1.35,0,1,1,1.35-1.34A1.34,1.34,0,0,1,151.31,21.5Z"/><path class="cls-148" d="M151.31,21.49a1.34,1.34,0,1,1,1.34-1.33A1.34,1.34,0,0,1,151.31,21.49Z"/><path class="cls-149" d="M151.31,21.48a1.32,1.32,0,1,1,1.32-1.32A1.33,1.33,0,0,1,151.31,21.48Z"/><path class="cls-150" d="M151.31,21.46a1.31,1.31,0,1,1,1.31-1.3A1.3,1.3,0,0,1,151.31,21.46Z"/><path class="cls-151" d="M151.31,21.45a1.3,1.3,0,1,1,1.3-1.29A1.29,1.29,0,0,1,151.31,21.45Z"/><path class="cls-152" d="M151.31,21.44a1.29,1.29,0,1,1,1.28-1.28A1.29,1.29,0,0,1,151.31,21.44Z"/><path class="cls-153" d="M151.31,21.42a1.27,1.27,0,1,1,1.27-1.26A1.26,1.26,0,0,1,151.31,21.42Z"/><path class="cls-154" d="M151.31,21.41a1.26,1.26,0,1,1,1.26-1.25A1.25,1.25,0,0,1,151.31,21.41Z"/><path class="cls-155" d="M151.31,21.4a1.25,1.25,0,1,1,1.25-1.24A1.25,1.25,0,0,1,151.31,21.4Z"/><circle class="cls-156" cx="151.31" cy="20.16" r="1.23"/><circle class="cls-157" cx="151.31" cy="20.16" r="1.22"/><circle class="cls-158" cx="151.31" cy="20.16" r="1.2"/><circle class="cls-159" cx="151.31" cy="20.16" r="1.19"/><circle class="cls-160" cx="151.31" cy="20.16" r="1.18"/><circle class="cls-161" cx="151.31" cy="20.16" r="1.16"/><circle class="cls-162" cx="151.31" cy="20.16" r="1.15"/><path class="cls-163" d="M151.31,21.29a1.14,1.14,0,1,1,1.14-1.13A1.14,1.14,0,0,1,151.31,21.29Z"/><path class="cls-164" d="M151.31,21.28a1.13,1.13,0,1,1,1.13-1.12A1.13,1.13,0,0,1,151.31,21.28Z"/><path class="cls-165" d="M151.31,21.26a1.11,1.11,0,1,1,1.11-1.1A1.1,1.1,0,0,1,151.31,21.26Z"/><path class="cls-166" d="M151.31,21.25a1.1,1.1,0,1,1,1.1-1.09A1.09,1.09,0,0,1,151.31,21.25Z"/><path class="cls-167" d="M151.31,21.24a1.09,1.09,0,1,1,1.08-1.08A1.09,1.09,0,0,1,151.31,21.24Z"/><path class="cls-168" d="M151.31,21.22a1.07,1.07,0,1,1,1.07-1.06A1.07,1.07,0,0,1,151.31,21.22Z"/><path class="cls-169" d="M151.31,21.21a1.06,1.06,0,0,1,0-2.11,1.06,1.06,0,1,1,0,2.11Z"/><path class="cls-170" d="M151.31,21.2a1,1,0,1,1,0-2.08,1,1,0,0,1,0,2.08Z"/><path class="cls-171" d="M151.31,21.18a1,1,0,1,1,1-1A1,1,0,0,1,151.31,21.18Z"/><path class="cls-172" d="M151.31,21.17a1,1,0,0,1,0-2,1,1,0,1,1,0,2Z"/><path class="cls-173" d="M151.31,21.16a1,1,0,1,1,1-1A1,1,0,0,1,151.31,21.16Z"/><path class="cls-174" d="M151.31,21.14a1,1,0,1,1,1-1A1,1,0,0,1,151.31,21.14Z"/><path class="cls-175" d="M151.31,21.13a1,1,0,1,1,1-1A1,1,0,0,1,151.31,21.13Z"/><path class="cls-176" d="M151.31,21.11a1,1,0,1,1,1-.95A1,1,0,0,1,151.31,21.11Z"/><path class="cls-177" d="M151.31,21.1a.95.95,0,1,1,.95-.94A.94.94,0,0,1,151.31,21.1Z"/><path class="cls-178" d="M151.31,21.09a.94.94,0,1,1,.94-.93A.93.93,0,0,1,151.31,21.09Z"/><path class="cls-179" d="M151.31,21.07a.92.92,0,1,1,.92-.91A.91.91,0,0,1,151.31,21.07Z"/><path class="cls-180" d="M151.31,21.06a.91.91,0,0,1,0-1.81.91.91,0,1,1,0,1.81Z"/><g class="cls-181"><path class="cls-182" d="M153.34,18c.87.79,1.13,1.93.57,2.55a1.9,1.9,0,0,1-2.59-.3,1.91,1.91,0,0,1-.58-2.55C151.3,17.07,152.46,17.21,153.34,18Z"/></g><g class="cls-183"><path class="cls-182" d="M151.13,20.33c.88.78,1.14,1.92.58,2.54a1.89,1.89,0,0,1-2.59-.3c-.88-.78-1.14-1.92-.58-2.54A1.89,1.89,0,0,1,151.13,20.33Z"/></g><g class="cls-184"><path class="cls-185" d="M152.23,18.36a.76.76,0,1,1-1,1.11.82.82,0,0,1-.17-1.15A.83.83,0,0,1,152.23,18.36Z"/></g><g class="cls-186"><path class="cls-187" d="M150.76,20.74a.76.76,0,1,1-1,1.11.76.76,0,1,1,1-1.11Z"/></g><path class="cls-93" d="M152.89,19a.35.35,0,1,1-.35-.35A.35.35,0,0,1,152.89,19Z"/><path class="cls-93" d="M152.44,19.43a.35.35,0,1,1-.34-.34A.34.34,0,0,1,152.44,19.43Z"/><path class="cls-93" d="M151.91,19.79a.18.18,0,0,1-.17.18.18.18,0,0,1-.18-.18.18.18,0,0,1,.18-.17A.18.18,0,0,1,151.91,19.79Z"/><path class="cls-188" d="M150.45,21.08a1.6,1.6,0,0,1-.32-.43s-.06,0-.06,0h0a.79.79,0,0,0,.79.8h0s0-.06,0-.07A1.6,1.6,0,0,1,150.45,21.08Z"/></g><path class="cls-189" d="M138.38,23.14H110.92a3,3,0,0,1-3-3h0a3,3,0,0,1,3-3h27.46a3,3,0,0,1,3,3h0A3,3,0,0,1,138.38,23.14Z"/><g class="cls-190"><path class="cls-191" d="M111.4,17.17h-.48a3,3,0,0,0,0,6h.48Z"/></g><g class="cls-192"><path class="cls-191" d="M138.38,17.17h-1.26v6h1.26a3,3,0,0,0,0-6Z"/></g><path class="cls-193" d="M110.92,22.22a2.07,2.07,0,0,1,0-4.13h27.46a2.07,2.07,0,0,1,0,4.13Z"/><path class="cls-194" d="M140.35,20.61a2.24,2.24,0,0,0,.09-.45,2.21,2.21,0,0,0-.09-.46l-.43-.43.18-.18a2,2,0,0,0-.2-.3l-.23.23-.63-.63.13-.14a2.06,2.06,0,0,0-.79-.16h-.14l.29.3-.63.63-.63-.63.29-.3h-.5l0,.05,0-.05h-.51l.29.3-.63.63-.63-.63.3-.3h-.51l0,.05,0-.05h-.51l.3.3-.63.63-.63-.63.29-.3h-.5l-.05.05,0-.05h-.5l.29.3-.63.63-.63-.63.29-.3h-.5l0,.05-.05-.05h-.5l.29.3-.63.63-.63-.63.3-.3H130l0,.05,0-.05h-.51l.3.3-.63.63-.64-.63.3-.3h-.51l0,.05,0-.05h-.5l.29.3-.63.63-.63-.63.29-.3h-.5l0,.05,0-.05h-.5l.29.3-.63.63-.63-.63.3-.3h-.51l0,.05,0-.05h-.51l.3.3-.63.63-.64-.63.3-.3h-.51l0,.05,0-.05h-.5l.29.3L122,19l-.63-.63.29-.3h-.5l0,.05,0-.05h-.5l.29.3-.63.63-.63-.63.29-.3h-.5l0,.05,0-.05h-.51l.3.3-.64.63-.63-.63.3-.3h-.51l0,.05,0-.05H117l.3.3-.63.63-.63-.63.29-.3h-.5l0,.05,0-.05h-.5l.29.3-.63.63-.63-.63.29-.3h-.5l0,.05,0-.05h-.51l.3.3-.64.63-.63-.63.3-.3h-.51l0,.05,0-.05h-.51l.3.3-.63.63-.63-.63.29-.3h-.14a2.06,2.06,0,0,0-.79.16l.13.14-.63.63-.23-.23a2,2,0,0,0-.2.3l.18.18-.43.43a2.21,2.21,0,0,0-.09.46,2.24,2.24,0,0,0,.09.45l.43.43-.18.18a2,2,0,0,0,.2.3l.23-.23.63.63-.13.14a2.06,2.06,0,0,0,.79.16h.14l-.29-.3.63-.63.63.63-.3.3h.51l0,0,0,0h.51l-.3-.3.63-.63.64.63-.3.3H114l0,0,0,0h.5l-.29-.3.63-.63.63.63-.29.3h.5l0,0,0,0h.5l-.29-.3.63-.63.63.63-.3.3h.51l0,0,0,0h.51l-.3-.3.63-.63.64.63-.3.3h.51l0,0,0,0h.51l-.3-.3.63-.63.63.63-.29.3h.5l0,0,0,0h.5l-.29-.3.63-.63.63.63-.3.3h.51l0,0,0,0h.51l-.3-.3.64-.63.63.63-.3.3h.51l0,0,0,0h.51l-.3-.3.63-.63.63.63-.29.3h.5l0,0,0,0h.5l-.29-.3.63-.63.63.63-.29.3h.5l0,0,0,0h.51l-.3-.3.64-.63.63.63-.3.3h.51l0,0,0,0h.51l-.3-.3.63-.63.63.63-.29.3h.5l.05,0,0,0h.5l-.29-.3.63-.63.63.63-.29.3h.5l0,0,.05,0h.5l-.29-.3.63-.63.63.63-.3.3h.51l0,0,0,0h.51l-.3-.3.63-.63.63.63-.29.3H137l0,0,0,0h.5l-.29-.3.63-.63.63.63-.29.3h.14a2.06,2.06,0,0,0,.79-.16l-.13-.14.63-.63.23.23a2,2,0,0,0,.2-.3l-.18-.18Zm-1.57-2,.64.63-.64.63-.63-.63Zm-1.76,0,.63.63-.63.63-.63-.63Zm-1.77,0,.63.63-.63.63-.63-.63Zm-1.77,0,.63.63-.63.63-.63-.63Zm-1.76,0,.63.63-.63.63-.63-.63Zm-1.77,0,.63.63-.63.63-.63-.63Zm-1.77,0,.63.63-.63.63-.63-.63Zm-1.76,0,.63.63-.63.63-.64-.63Zm-1.77,0,.63.63-.63.63-.63-.63Zm-1.77,0,.63.63-.63.63-.63-.63Zm-1.77,0,.64.63-.64.63-.63-.63Zm-1.76,0,.63.63-.63.63-.63-.63Zm-1.77,0,.63.63-.63.63-.63-.63Zm-1.77,0,.64.63-.64.63-.63-.63Zm-1.76,0,.63.63-.63.63-.63-.63Zm-1.77,0,.63.63-.63.63-.63-.63Zm-1.77,0,.63.63-.63.63-.63-.63ZM109,20.16l.63-.64.63.64-.63.63Zm1.51,1.51-.63-.63.63-.63.63.63Zm.26-1.51.63-.64.63.64-.63.63Zm1.51,1.51-.63-.63.63-.63.63.63Zm.25-1.51.63-.64.64.64-.64.63Zm1.52,1.51-.63-.63.63-.63.63.63Zm.25-1.51.63-.64.63.64-.63.63Zm1.51,1.51-.63-.63.63-.63.64.63Zm.26-1.51.63-.64.63.64-.63.63Zm1.51,1.51L117,21l.63-.63.63.63Zm.25-1.51.63-.64.64.64-.64.63Zm1.52,1.51-.63-.63.63-.63L120,21Zm.25-1.51.63-.64.63.64-.63.63Zm1.51,1.51-.63-.63.63-.63.64.63Zm.26-1.51.63-.64.63.64-.63.63Zm1.51,1.51-.63-.63.63-.63.63.63Zm.25-1.51.64-.64.63.64-.63.63Zm1.52,1.51L124,21l.63-.63.63.63Zm.25-1.51.63-.64.63.64-.63.63Zm1.52,1.51-.64-.63.64-.63.63.63Zm.25-1.51.63-.64.63.64-.63.63Zm1.51,1.51-.63-.63.63-.63.63.63Zm.25-1.51.64-.64.63.64-.63.63ZM130,21.67l-.63-.63.63-.63.63.63Zm.25-1.51.63-.64.63.64-.63.63Zm1.52,1.51-.63-.63.63-.63.63.63Zm.25-1.51.63-.64.63.64-.63.63Zm1.51,1.51-.63-.63.63-.63.63.63Zm.26-1.51.63-.64.63.64-.63.63Zm1.51,1.51-.63-.63.63-.63.63.63Zm.25-1.51.63-.64.63.64-.63.63ZM137,21.67l-.63-.63.63-.63.63.63Zm.25-1.51.63-.64.63.64-.63.63Zm1.51,1.51-.63-.63.63-.63.64.63Zm.26-1.51.63-.64.63.64-.63.63Z"/><path class="cls-189" d="M110.92,22.22a2.07,2.07,0,0,1,0-4.13h27.46a2.07,2.07,0,0,1,0,4.13Z"/><path class="cls-195" d="M110.92,22.17a2,2,0,1,1,0-4h27.46a2,2,0,1,1,0,4Z"/><path class="cls-196" d="M110.92,22.13a2,2,0,0,1,0-3.95h27.46a2,2,0,0,1,0,3.95Z"/><path class="cls-197" d="M110.92,22.08a1.93,1.93,0,1,1,0-3.85h27.46a1.93,1.93,0,1,1,0,3.85Z"/><path class="cls-198" d="M110.92,22a1.89,1.89,0,1,1,0-3.77h27.46a1.89,1.89,0,0,1,0,3.77Z"/><path class="cls-199" d="M110.92,22a1.85,1.85,0,0,1,0-3.69h27.46a1.85,1.85,0,0,1,0,3.69Z"/><path class="cls-200" d="M110.92,22a1.8,1.8,0,1,1,0-3.59h27.46a1.8,1.8,0,1,1,0,3.59Z"/><path class="cls-201" d="M110.92,21.91a1.76,1.76,0,0,1,0-3.51h27.46a1.76,1.76,0,0,1,0,3.51Z"/><path class="cls-202" d="M110.92,21.87a1.72,1.72,0,0,1,0-3.43h27.46a1.72,1.72,0,0,1,0,3.43Z"/><path class="cls-203" d="M110.92,21.82a1.67,1.67,0,1,1,0-3.33h27.46a1.67,1.67,0,0,1,0,3.33Z"/><path class="cls-204" d="M110.92,21.78a1.63,1.63,0,0,1,0-3.25h27.46a1.63,1.63,0,0,1,0,3.25Z"/><path class="cls-205" d="M110.92,21.73a1.58,1.58,0,1,1,0-3.15h27.46a1.58,1.58,0,1,1,0,3.15Z"/><path class="cls-206" d="M110.92,21.69a1.54,1.54,0,1,1,0-3.07h27.46a1.54,1.54,0,0,1,0,3.07Z"/><path class="cls-207" d="M110.92,21.65a1.5,1.5,0,0,1,0-3h27.46a1.5,1.5,0,0,1,0,3Z"/><path class="cls-208" d="M110.92,21.6a1.45,1.45,0,1,1,0-2.89h27.46a1.45,1.45,0,1,1,0,2.89Z"/><path class="cls-209" d="M110.92,21.56a1.41,1.41,0,0,1,0-2.81h27.46a1.41,1.41,0,0,1,0,2.81Z"/><path class="cls-210" d="M110.92,21.51a1.36,1.36,0,1,1,0-2.72h27.46a1.36,1.36,0,1,1,0,2.72Z"/><path class="cls-211" d="M110.92,21.47a1.32,1.32,0,1,1,0-2.63h27.46a1.32,1.32,0,0,1,0,2.63Z"/><path class="cls-212" d="M110.92,21.43a1.28,1.28,0,0,1,0-2.55h27.46a1.28,1.28,0,0,1,0,2.55Z"/><path class="cls-213" d="M110.92,21.38a1.23,1.23,0,1,1,0-2.45h27.46a1.23,1.23,0,1,1,0,2.45Z"/><path class="cls-214" d="M110.92,21.34a1.19,1.19,0,0,1,0-2.37h27.46a1.19,1.19,0,0,1,0,2.37Z"/><path class="cls-215" d="M110.92,21.29a1.14,1.14,0,0,1,0-2.28h27.46a1.14,1.14,0,0,1,0,2.28Z"/></g></g></svg>