<?xml version="1.0" encoding="utf-8"?>
<!-- Generator: Adobe Illustrator 25.0.1, SVG Export Plug-In . SVG Version: 6.00 Build 0)  -->
<svg version="1.1" id="memo" xmlns="http://www.w3.org/2000/svg" xmlns:xlink="http://www.w3.org/1999/xlink" x="0px" y="0px"
	 viewBox="0 0 559.7 496.9" style="enable-background:new 0 0 559.7 496.9;" xml:space="preserve">
<style type="text/css">
	.st0{fill:#AAAAAA;}
	.st1{fill:#FFFFFF;}
</style>
<g id="_2_1_">
	<path class="st0" d="M542.7,167.1l-24.4-24.4c-14.8-14.9-38.9-14.9-53.8-0.1l-0.1,0.1l-25.6,25.6v-103c0-31.1-22.2-56.4-49.7-56.4
		H83.5C56,8.9,33.7,34.1,33.7,65.3v52.9c-19.2,8.2-28,30.6-19.7,49.8c3.8,8.8,10.9,15.9,19.7,19.7v118.3
		c-19.2,8.2-28,30.6-19.7,49.8c3.8,8.8,10.9,15.9,19.7,19.7v65.1c0,27.8,22.2,50.4,49.7,50.4h305.6c27.5,0,49.7-22.6,49.7-50.4
		V325.1L542.7,221C557.5,206.1,557.5,182,542.7,167.1z"/>
</g>
<path class="st1" d="M548.2,163.1L523,137.9c-15.3-15.4-40.1-15.4-55.5-0.1l-0.1,0.1L441,164.3V58.1C441,26,418.1,0,389.8,0h-315
	C46.5,0,23.5,26,23.5,58.1v54.5c-19.8,8.5-28.9,31.5-20.3,51.3c3.9,9.1,11.2,16.4,20.3,20.3v122c-19.8,8.5-28.9,31.5-20.3,51.3
	c3.9,9.1,11.2,16.4,20.3,20.3v67.1c0,28.7,22.9,52,51.2,52h315c28.3,0,51.2-23.3,51.2-52V326l107.3-107.3
	C563.5,203.3,563.5,178.5,548.2,163.1z M47.3,61.8L47.3,61.8C47.3,38.7,66,20,89.1,20h284.6c25,0,45.3,20.3,45.3,45.3v118.6
	l-34.6,34.6V86.3c0-17.5-14.2-31.7-31.7-31.7H89.1c0,0,0,0-0.1,0c-4,0-7.2,3.2-7.1,7.2v50.5H47.3V61.8z M164.1,261.6v-25.9h155.6
	v25.9H164.1z M259.2,330.8v25.9h-95.1v-25.9H259.2z M164.1,166.5v-25.9h155.6v25.9H164.1z M43,131.6h46.4c10.2,0,18.5,8.3,18.5,18.5
	s-8.3,18.5-18.5,18.5H43c-10.2,0-18.5-8.3-18.5-18.5S32.8,131.6,43,131.6z M81.9,187.9v116.6H47.3V187.9H81.9z M24.5,342.3
	c0-10.2,8.3-18.5,18.5-18.5h46.3c10.2,0,18.5,8.3,18.5,18.5l0,0c0,10.2-8.2,18.5-18.4,18.5H43C32.8,360.8,24.5,352.5,24.5,342.3z
	 M419,432.3c0,22.1-18,40.1-40.1,40.1H89.1l0,0c-23.1,0-41.8-18.7-41.8-41.8v-50.5h34.6v50.5c0,0,0,0,0,0.1c0,4,3.2,7.2,7.2,7.1
	h263.7c17.5,0,31.7-14.2,31.7-31.7v-23.6l34.5-34.7V432.3z M361.4,378.6h-55.1v-55.1l136.1-136l55.1,55.1L361.4,378.6z M528.7,211.4
	l-16.1,16.1l-55.1-55.1l16.1-16.1l0.1-0.1c10.5-10.4,27.4-10.4,37.8,0.1l17.2,17.2C539.2,183.9,539.2,200.9,528.7,211.4z"/>
</svg>
