<svg xmlns="http://www.w3.org/2000/svg" viewBox="0 0 56.67 56.67"><defs><style>.cls-1{fill:#e5db64;}</style></defs><g id="レイヤー_2" data-name="レイヤー 2"><g id="レイヤー_2-2" data-name="レイヤー 2"><rect class="cls-1" x="13.75" y="15.11" width="30.57" height="20.05" rx="1.47" transform="translate(-1.71 48.15) rotate(-77.7)"/><path class="cls-1" d="M25.31,42.24a2.46,2.46,0,1,0,1.87,2.93A2.46,2.46,0,0,0,25.31,42.24Z"/><path class="cls-1" d="M56.65,27.31A28.33,28.33,0,1,0,29.36,56.65,28.32,28.32,0,0,0,56.65,27.31ZM37.74,48.84a4.28,4.28,0,0,1-5.11,3.28l-18.1-3.94a4.3,4.3,0,0,1-3.28-5.12L18.93,7.83A4.3,4.3,0,0,1,24,4.55l18.1,4a4.3,4.3,0,0,1,3.29,5.11Z"/></g></g></svg>