<?xml version="1.0" encoding="utf-8"?>
<!-- Generator: Adobe Illustrator 25.0.1, SVG Export Plug-In . SVG Version: 6.00 Build 0)  -->
<svg version="1.1" id="レイヤー_1" xmlns="http://www.w3.org/2000/svg" xmlns:xlink="http://www.w3.org/1999/xlink" x="0px"
	 y="0px" viewBox="0 0 286.3 286.3" style="enable-background:new 0 0 286.3 286.3;" xml:space="preserve">
<style type="text/css">
	.st0{fill:#7f3838;}
	.st1{fill:none;stroke:#7f3838;stroke-width:15;stroke-linejoin:bevel;stroke-miterlimit:10;}
</style>
<g>
	<path class="st0" d="M143.1,15c34.2,0,66.4,13.3,90.6,37.5c24.2,24.2,37.5,56.4,37.5,90.6s-13.3,66.4-37.5,90.6
		c-24.2,24.2-56.4,37.5-90.6,37.5S76.7,258,52.5,233.8C28.3,209.6,15,177.4,15,143.1s13.3-66.4,37.5-90.6
		C76.7,28.3,108.9,15,143.1,15 M143.1,0C64.1,0,0,64.1,0,143.1s64.1,143.1,143.1,143.1s143.1-64.1,143.1-143.1S222.2,0,143.1,0
		L143.1,0z"/>
</g>
<polyline class="st1" points="52,143.2 234.2,143.2 167.3,76.2 234.2,143.2 167.3,210.2 "/>
</svg>
