<?xml version="1.0" encoding="utf-8"?>
<!-- Generator: Adobe Illustrator 25.0.1, SVG Export Plug-In . SVG Version: 6.00 Build 0)  -->
<svg version="1.1" id="_x32_" xmlns="http://www.w3.org/2000/svg" xmlns:xlink="http://www.w3.org/1999/xlink" x="0px" y="0px"
	 viewBox="0 0 363.2 512" style="enable-background:new 0 0 363.2 512;" xml:space="preserve">
<style type="text/css">
	.st0{fill:#4B4B4B;}
</style>
<g>
	<path class="st0" d="M363.2,351.6V89.9c0-49.6-40.2-89.9-89.9-89.9H89.9C40.2,0,0,40.2,0,89.9v261.8c0,37.6,27.4,69,63.3,75.2
		L6.9,512H57l23.1-35H283l23.1,35h50.1l-56.3-85.1C335.8,420.6,363.2,389.3,363.2,351.6z M103.8,40.3h155.6v25.9H103.8V40.3z
		 M56.9,124.2c0-11.3,9.1-20.4,20.4-20.4h208.5c11.3,0,20.4,9.2,20.4,20.4v86.2c0,11.3-9.2,20.4-20.4,20.4H77.4
		c-11.3,0-20.4-9.1-20.4-20.4L56.9,124.2L56.9,124.2z M76.4,374c-13.2,0-23.8-10.7-23.8-23.8c0-13.2,10.7-23.8,23.8-23.8
		c13.2,0,23.8,10.7,23.8,23.8C100.2,363.3,89.5,374,76.4,374z M95.2,454.3l17.4-26.3h138l17.4,26.3H95.2z M286.8,374
		c-13.2,0-23.8-10.7-23.8-23.8c0-13.2,10.7-23.8,23.8-23.8c13.2,0,23.8,10.7,23.8,23.8C310.6,363.3,299.9,374,286.8,374z"/>
</g>
</svg>
