<?xml version="1.0" encoding="utf-8"?>
<!-- Generator: Adobe Illustrator 25.0.1, SVG Export Plug-In . SVG Version: 6.00 Build 0)  -->
<svg version="1.1" id="_x32_" xmlns="http://www.w3.org/2000/svg" xmlns:xlink="http://www.w3.org/1999/xlink" x="0px" y="0px"
	 viewBox="0 0 512 512" style="enable-background:new 0 0 512 512;" xml:space="preserve">
<style type="text/css">
	.st0{fill:#FFFFFF;}
	.st1{fill:#7F3838;}
</style>
<g>
	<path class="st0" d="M348.9,450.2H68.5c-25.2,0-45.6-20.4-45.6-45.6V101.3c0-25.2,20.4-45.6,45.6-45.6H349
		c25.2,0,45.6,20.4,45.6,45.6v303.3C394.6,429.8,374.1,450.2,348.9,450.2z"/>
	<path class="st1" d="M504.2,183.3L487,166.1c-10.5-10.5-27.4-10.5-37.9,0L433,182.2l55.1,55.1l16.1-16.1
		C514.6,210.7,514.6,193.8,504.2,183.3z"/>
	<path class="st1" d="M18.5,178.4h46.4c10.2,0,18.5-8.3,18.5-18.5s-8.3-18.5-18.5-18.5H18.5C8.3,141.4,0,149.7,0,159.9
		C0,170.1,8.3,178.4,18.5,178.4z"/>
	<rect x="22.8" y="197.7" class="st1" width="34.6" height="116.6"/>
	<path class="st1" d="M83.3,352.1c0-10.2-8.3-18.5-18.5-18.5H18.5C8.3,333.6,0,341.9,0,352.1s8.3,18.5,18.5,18.5h46.4
		C75.1,370.6,83.3,362.3,83.3,352.1z"/>
	<rect x="139.6" y="150.4" class="st1" width="155.6" height="25.9"/>
	<rect x="139.6" y="245.5" class="st1" width="155.6" height="25.9"/>
	<rect x="139.6" y="340.6" class="st1" width="95.1" height="25.9"/>
	<path class="st1" d="M57.4,71.6c0-4,3.2-7.2,7.2-7.2h263.6c8.8,0,16.6,3.5,22.4,9.3s9.3,13.6,9.3,22.4v132.2l34.6-34.6V96.1
		c0-36.6-29.7-66.3-66.3-66.3H64.6c-23.1,0-41.8,18.7-41.8,41.8v50.5h34.6C57.4,122.1,57.4,71.6,57.4,71.6z"/>
	<path class="st1" d="M360,415.9c0,8.8-3.5,16.6-9.3,22.4s-13.6,9.3-22.4,9.3H64.6c-4,0-7.2-3.2-7.2-7.2v-50.5H22.8v50.5
		c0,23.1,18.7,41.8,41.8,41.8h263.6c36.6,0,66.3-29.7,66.3-66.3v-58.3L360,392.3V415.9L360,415.9z"/>
	<polygon class="st1" points="281.8,333.3 281.8,388.4 336.9,388.4 473,252.4 417.9,197.3 	"/>
</g>
</svg>
