<?xml version="1.0" encoding="utf-8"?>
<!-- Generator: Adobe Illustrator 25.0.1, SVG Export Plug-In . SVG Version: 6.00 Build 0)  -->
<svg version="1.1" id="レイヤー_1" xmlns="http://www.w3.org/2000/svg" xmlns:xlink="http://www.w3.org/1999/xlink" x="0px"
	 y="0px" viewBox="0 0 39.8 52.7" style="enable-background:new 0 0 39.8 52.7;" xml:space="preserve">
<style type="text/css">
	.st0{fill:#707070;}
	.st1{fill:none;stroke:#707070;stroke-width:4;stroke-linecap:round;stroke-linejoin:round;}
</style>
<path class="st0" d="M19.9,52.7c-0.5,0-1-0.2-1.4-0.6C17.7,51.4,0,33.6,0,19.9C0,8.9,8.9,0,19.9,0c11,0,19.9,8.9,19.9,19.9
	c0,13.7-17.7,31.5-18.5,32.2C20.9,52.5,20.4,52.7,19.9,52.7z M19.9,4C11.1,4,4,11.1,4,19.9c0,10,11.8,23.5,15.9,27.9
	c4.1-4.4,15.9-18,15.9-27.9C35.8,11.1,28.7,4,19.9,4z"/>
<circle id="楕円形_85" class="st1" cx="20" cy="20.2" r="5"/>
</svg>
