<?xml version="1.0" encoding="utf-8"?>
<!-- Generator: Adobe Illustrator 25.0.1, SVG Export Plug-In . SVG Version: 6.00 Build 0)  -->
<svg version="1.1" id="レイヤー_1" xmlns="http://www.w3.org/2000/svg" xmlns:xlink="http://www.w3.org/1999/xlink" x="0px"
	 y="0px" viewBox="0 0 453.6 101.7" style="enable-background:new 0 0 453.6 101.7;" xml:space="preserve">
<style type="text/css">
	.st0{fill:#7F3838;}
</style>
<g>
	<g>
		<g>
			<path class="st0" d="M385.7,0h-1.8l-2.8,9.3l2.2,6.3c1,0.2,2,0.5,3,0.8l3.6-10.5C390.9,3,388.8,0,385.7,0z"/>
			<g>
				<path class="st0" d="M374,19.1v3.6c0,1.5,1.3,2.8,2.8,2.8h6.6c1.5,0,2.8-1.3,2.8-2.8v-3.6l-0.7-0.3c-1.5-0.7-3.2-1-4.8-1H380
					c-1.9,0-3.8,0.4-5.6,1.1L374,19.1z"/>
			</g>
			<path class="st0" d="M399.5,20.4h-10.6v2.4c0,2-1.1,3.7-2.5,4.4l0,0c0.1,2.2-1,4.4-3,5.4c-4.8,2.4-9.5-1-9.5-5.4c0,0,0,0,0,0
				c-1.5-0.7-2.5-2.4-2.5-4.4v-2.4H361v59h14.9v22.3h8.7V79.4h14.9V20.4z"/>
			<g>
				<path class="st0" d="M380,15.4h0.4L376.1,3c-0.6-1.8-2.3-3-4.2-3H368c0,0,4.3,12.1,5.8,16.5C375.8,15.8,377.9,15.4,380,15.4z"/>
			</g>
		</g>
	</g>
	<path class="st0" d="M0,33.2h41.6v-8.8H12.7V14h28.8V3l11.5,0.4c2.3,0.1,3.9,0.6,3.9,1.7c0,0.7-0.2,1-1.2,1.7s-1.5,1.2-1.5,2.5V14
		h30.4v10.4H54.2v8.8h41.7v10.4H74.9V53h14.4v10.8H74.9v23.9c0,9.2-5,11.6-12.8,11.6h-9.7l-3.3-12c1.8,0.2,8.5,0.7,10.1,0.7
		c2,0,3.5-0.4,3.5-3.3V63.9H7.1V53h55.6v-9.4H0V33.2z"/>
	<path class="st0" d="M24,66c8.4,7.3,12.6,12,16.8,18L31.7,92c-3.1-4.5-9.1-11.8-16.7-18.3L24,66z"/>
	<path class="st0" d="M136.2,66.3c-6.2,5.5-8.5,7.2-11.4,9.3l-8.1-9c15.9-10.1,23.1-19.5,31.4-31.9h-26.5V23.3h14.6V3.2l11.2,0.4
		c0.3,0,3.2,0.1,3.2,1.4c0,0.7-0.2,0.8-2.2,2c-0.9,0.7-0.9,1.2-0.9,1.8v14.5h12.3l5.1,3.3c-3.8,8.7-5.6,12.7-12.8,22.5
		c3.2,3.5,5.5,5.9,14.7,13.2l-6.6,9c-6.2-4.2-10.6-8.7-12.6-11.2v38.6h-11.3V66.3z"/>
	<path class="st0" d="M180.6,3.2l11.5,0.7c2.4,0.1,4.1,0.2,4.1,1.7c0,0.4-1.9,1.7-2.4,2.1c-1,0.7-1,1.5-1,2.2v25.6h20.9v11.1h-20.9
		v38.6h23.3v11.1h-62.9V85.1h27.4V46.5h-18.1V35.5h18.1V3.2z"/>
	<path class="st0" d="M281.1,21c-11.9,1.3-17.9,1.4-30.9,1.7L246,11.8c28.5,0.9,52.2-3.3,69.2-9.5l6.6,7.7c0.9,1.1,1.7,2,1.7,2.8
		c0,0.9-0.8,1.1-1.3,1.1c-0.7,0-1.9-0.1-2.5-0.2c-1.1,0.2-6.7,1.7-9,2.2c-7,1.7-13,2.8-17.4,3.3v14h35V44h-35v10.7h43.1v11.1h-43.1
		v21.9c0,11.9-6.6,11.9-21.1,11.9l-5.3-11.9c4,0.4,6,0.6,8.4,0.6c5.7,0,5.7-2.7,5.7-6.1V65.7h-43.6V54.7h43.6V44h-34.5V33.2h34.5V21
		z"/>
	<path class="st0" d="M453.6,30.9V20.2h-23V7.9c0.2-0.8,2.8-3.2,2.8-3.9c0-0.8-1.1-1.1-2.2-1.2l-11.9-0.7v49.7h-16.8v47.6h11.4v-4.6
		H440v4.6h11.4V51.9h-20.8v-21H453.6z M440,61.3v24.1h-26.2V61.3H440z"/>
</g>
</svg>
