<?xml version="1.0" encoding="utf-8"?>
<!-- Generator: Adobe Illustrator 25.0.1, SVG Export Plug-In . SVG Version: 6.00 Build 0)  -->
<svg version="1.1" id="レイヤー_1" xmlns="http://www.w3.org/2000/svg" xmlns:xlink="http://www.w3.org/1999/xlink" x="0px"
	 y="0px" viewBox="0 0 247.7 282.3" style="enable-background:new 0 0 247.7 282.3;" xml:space="preserve">
<style type="text/css">
	.st0{fill:#A29D8F;}
	.st1{fill:url(#SVGID_1_);}
	.st2{fill:url(#SVGID_2_);}
	.st3{fill:url(#SVGID_3_);}
	.st4{fill:url(#SVGID_4_);}
	.st5{fill:url(#SVGID_5_);}
	.st6{fill:url(#SVGID_6_);}
	.st7{fill:#9C968A;}
	.st8{fill:#9E998C;}
	.st9{fill:#A19B8F;}
	.st10{fill:#A39D91;}
	.st11{fill:#A6A094;}
	.st12{fill:#A8A296;}
	.st13{fill:#AAA599;}
	.st14{fill:#ADA79B;}
	.st15{fill:#AFA99E;}
	.st16{fill:#B1ACA0;}
	.st17{fill:#B4AEA3;}
	.st18{fill:#B6B1A6;}
	.st19{fill:#B8B3A8;}
	.st20{fill:#BBB6AB;}
	.st21{fill:#BDB8AE;}
	.st22{fill:#BFBAB0;}
	.st23{fill:#C2BDB3;}
	.st24{fill:#C4BFB6;}
	.st25{fill:#C6C2B9;}
	.st26{fill:#C9C4BB;}
	.st27{fill:#CBC7BE;}
	.st28{fill:#CDC9C1;}
	.st29{fill:#D0CCC4;}
	.st30{fill:#D2CEC6;}
	.st31{fill:#D4D1C9;}
	.st32{fill:#D7D4CC;}
	.st33{fill:#D9D6CF;}
	.st34{fill:#DAD7D0;}
	.st35{fill:#DBD8D1;}
	.st36{fill:#DCDAD2;}
	.st37{fill:#DEDBD4;}
	.st38{fill:#DFDCD5;}
	.st39{fill:#E0DDD6;}
	.st40{fill:#E1DED7;}
	.st41{fill:#E2DFD8;}
	.st42{fill:#E3E1DA;}
	.st43{fill:#E4E2DB;}
	.st44{fill:#E6E3DC;}
	.st45{fill:#E7E4DD;}
	.st46{fill:#E8E5DE;}
	.st47{fill:#E9E6E0;}
	.st48{fill:#EAE8E1;}
	.st49{fill:#EBE9E2;}
	.st50{fill:#ECEAE3;}
	.st51{fill:#EDEBE5;}
	.st52{fill:#EFECE6;}
	.st53{fill:#F0EDE7;}
	.st54{fill:#F1EFE8;}
	.st55{fill:#F2F0E9;}
	.st56{fill:#F3F1EB;}
	.st57{fill:#F4F2EC;}
	.st58{fill:#F5F3ED;}
	.st59{fill:#F7F5EE;}
	.st60{fill:url(#SVGID_7_);}
	.st61{fill:#1F1D1E;}
	.st62{fill:#121212;}
	.st63{fill:#040001;}
	.st64{fill:url(#SVGID_8_);}
	.st65{fill:#6B6E6C;}
	.st66{fill:#FFFFFF;}
	.st67{fill:url(#SVGID_9_);}
	.st68{clip-path:url(#SVGID_11_);}
	.st69{fill:url(#SVGID_12_);}
	.st70{fill:url(#SVGID_13_);}
	.st71{fill:url(#SVGID_14_);}
	.st72{fill:url(#SVGID_15_);}
	.st73{fill:url(#SVGID_16_);}
	.st74{fill:url(#SVGID_17_);}
	.st75{fill:url(#SVGID_18_);}
	.st76{fill:url(#SVGID_19_);}
	.st77{fill:url(#SVGID_20_);}
	.st78{fill:url(#SVGID_21_);}
	.st79{fill:url(#SVGID_22_);}
	.st80{fill:url(#SVGID_23_);}
	.st81{fill:url(#SVGID_24_);}
	.st82{fill:url(#SVGID_25_);}
	.st83{fill:url(#SVGID_26_);}
	.st84{fill:url(#SVGID_27_);}
	.st85{fill:url(#SVGID_28_);}
	.st86{fill:url(#SVGID_29_);}
	.st87{fill:url(#SVGID_30_);}
	.st88{fill:url(#SVGID_31_);}
	.st89{fill:url(#SVGID_32_);}
	.st90{fill:url(#SVGID_33_);}
	.st91{fill:url(#SVGID_34_);}
	.st92{fill:url(#SVGID_35_);}
	.st93{fill:url(#SVGID_36_);}
	.st94{fill:url(#SVGID_37_);}
	.st95{fill:url(#SVGID_38_);}
	.st96{fill:url(#SVGID_39_);}
	.st97{fill:url(#SVGID_40_);}
	.st98{fill:url(#SVGID_41_);}
	.st99{fill:url(#SVGID_42_);}
	.st100{fill:url(#SVGID_43_);}
	.st101{fill:url(#SVGID_44_);}
	.st102{fill:url(#SVGID_45_);}
	.st103{fill:url(#SVGID_46_);}
	.st104{fill:url(#SVGID_47_);}
	.st105{fill:url(#SVGID_48_);}
	.st106{fill:url(#SVGID_49_);}
	.st107{fill:url(#SVGID_50_);}
	.st108{fill:url(#SVGID_51_);}
	.st109{fill:url(#SVGID_52_);}
	.st110{fill:url(#SVGID_53_);}
	.st111{fill:url(#SVGID_54_);}
	.st112{fill:url(#SVGID_55_);}
	.st113{fill:url(#SVGID_56_);}
	.st114{fill:url(#SVGID_57_);}
	.st115{fill:url(#SVGID_58_);}
	.st116{fill:url(#SVGID_59_);}
	.st117{fill:url(#SVGID_60_);}
	.st118{fill:url(#SVGID_61_);}
	.st119{fill:url(#SVGID_62_);}
	.st120{fill:url(#SVGID_63_);}
	.st121{fill:url(#SVGID_64_);}
	.st122{fill:url(#SVGID_65_);}
	.st123{fill:url(#SVGID_66_);}
	.st124{fill:url(#SVGID_67_);}
	.st125{fill:url(#SVGID_68_);}
	.st126{fill:url(#SVGID_69_);}
	.st127{fill:url(#SVGID_70_);}
	.st128{fill:url(#SVGID_71_);}
	.st129{fill:url(#SVGID_72_);}
	.st130{fill:url(#SVGID_73_);}
	.st131{fill:url(#SVGID_74_);}
	.st132{fill:url(#SVGID_75_);}
	.st133{fill:url(#SVGID_76_);}
	.st134{fill:url(#SVGID_77_);}
	.st135{fill:url(#SVGID_78_);}
	.st136{fill:url(#SVGID_79_);}
	.st137{fill:url(#SVGID_80_);}
	.st138{fill:url(#SVGID_81_);}
	.st139{fill:url(#SVGID_82_);}
	.st140{fill:url(#SVGID_83_);}
	.st141{fill:url(#SVGID_84_);}
	.st142{fill:url(#SVGID_85_);}
	.st143{fill:url(#SVGID_86_);}
	.st144{fill:url(#SVGID_87_);}
	.st145{fill:url(#SVGID_88_);}
	.st146{fill:url(#SVGID_89_);}
	.st147{fill:url(#SVGID_90_);}
	.st148{fill:url(#SVGID_91_);}
	.st149{fill:url(#SVGID_92_);}
	.st150{fill:url(#SVGID_93_);}
	.st151{fill:url(#SVGID_94_);}
	.st152{fill:url(#SVGID_95_);}
	.st153{fill:#111210;}
	.st154{fill:#4A3390;}
	.st155{opacity:0.7;fill:#BF98C4;enable-background:new    ;}
	.st156{fill:#009FD1;}
	.st157{fill:#9EC1E6;}
	.st158{fill:#040000;}
	.st159{opacity:0.7;fill:#9B9B9B;enable-background:new    ;}
	.st160{fill:#2F3030;}
	.st161{fill:#131313;}
	.st162{opacity:0.95;fill:#040000;enable-background:new    ;}
	.st163{opacity:0.9;fill:#040000;enable-background:new    ;}
	.st164{opacity:0.86;fill:#040000;enable-background:new    ;}
	.st165{opacity:0.81;fill:#040000;enable-background:new    ;}
	.st166{opacity:0.76;fill:#040000;enable-background:new    ;}
	.st167{opacity:0.71;fill:#040000;enable-background:new    ;}
	.st168{opacity:0.67;fill:#040000;enable-background:new    ;}
	.st169{opacity:0.62;fill:#040000;enable-background:new    ;}
	.st170{opacity:0.57;fill:#040000;enable-background:new    ;}
	.st171{opacity:0.52;fill:#040000;enable-background:new    ;}
	.st172{opacity:0.48;fill:#040000;enable-background:new    ;}
	.st173{opacity:0.43;fill:#040000;enable-background:new    ;}
	.st174{opacity:0.38;fill:#040000;enable-background:new    ;}
	.st175{opacity:0.33;fill:#040000;enable-background:new    ;}
	.st176{opacity:0.29;fill:#040000;enable-background:new    ;}
	.st177{opacity:0.24;fill:#040000;enable-background:new    ;}
	.st178{opacity:0.19;fill:#040000;enable-background:new    ;}
	.st179{opacity:0.14;fill:#040000;enable-background:new    ;}
	.st180{opacity:0.1;fill:#040000;enable-background:new    ;}
	.st181{opacity:5.000000e-02;fill:#040000;enable-background:new    ;}
	.st182{fill:#040000;fill-opacity:0;}
</style>
<path class="st0" d="M0.8,102.8h1.3V139H0.8c-0.4,0-0.8-0.4-0.8-0.8c0,0,0,0,0,0v-34.6C0,103.1,0.4,102.8,0.8,102.8z"/>
<linearGradient id="SVGID_1_" gradientUnits="userSpaceOnUse" x1="5929.6548" y1="3793.8474" x2="5929.6548" y2="3830.0576" gradientTransform="matrix(-1 0 0 1 5930.9199 -3691.0576)">
	<stop  offset="0" style="stop-color:#F4F2EC"/>
	<stop  offset="0" style="stop-color:#DEDCD5"/>
	<stop  offset="1.000000e-02" style="stop-color:#C0BDB5"/>
	<stop  offset="1.000000e-02" style="stop-color:#A8A49B"/>
	<stop  offset="2.000000e-02" style="stop-color:#959186"/>
	<stop  offset="3.000000e-02" style="stop-color:#878378"/>
	<stop  offset="4.000000e-02" style="stop-color:#7F7B70"/>
	<stop  offset="5.000000e-02" style="stop-color:#7D796D"/>
	<stop  offset="0.2" style="stop-color:#E4E1DC"/>
	<stop  offset="0.72" style="stop-color:#E4E1DC"/>
	<stop  offset="0.8" style="stop-color:#E4E1DC"/>
	<stop  offset="0.84" style="stop-color:#E2DFD9"/>
	<stop  offset="0.87" style="stop-color:#DAD7D1"/>
	<stop  offset="0.89" style="stop-color:#CDC9C3"/>
	<stop  offset="0.91" style="stop-color:#BAB6AF"/>
	<stop  offset="0.93" style="stop-color:#A19E94"/>
	<stop  offset="0.95" style="stop-color:#848074"/>
	<stop  offset="0.95" style="stop-color:#7D796D"/>
	<stop  offset="1" style="stop-color:#F4F2EC"/>
</linearGradient>
<path class="st1" d="M1.2,102.8h1V139h-1c-0.4,0-0.8-0.3-0.8-0.8c0,0,0,0,0,0v-34.6C0.4,103.1,0.7,102.8,1.2,102.8
	C1.2,102.8,1.2,102.8,1.2,102.8z"/>
<path class="st0" d="M0.8,67.1h1.3v19.1H0.8c-0.4,0-0.8-0.4-0.8-0.8c0,0,0,0,0,0V67.9C0,67.5,0.4,67.1,0.8,67.1z"/>
<linearGradient id="SVGID_2_" gradientUnits="userSpaceOnUse" x1="5929.6548" y1="3758.1775" x2="5929.6548" y2="3777.3276" gradientTransform="matrix(-1 0 0 1 5930.9199 -3691.0576)">
	<stop  offset="0" style="stop-color:#F4F2EC"/>
	<stop  offset="0" style="stop-color:#DEDCD5"/>
	<stop  offset="1.000000e-02" style="stop-color:#C0BDB5"/>
	<stop  offset="1.000000e-02" style="stop-color:#A8A49B"/>
	<stop  offset="2.000000e-02" style="stop-color:#959186"/>
	<stop  offset="3.000000e-02" style="stop-color:#878378"/>
	<stop  offset="4.000000e-02" style="stop-color:#7F7B70"/>
	<stop  offset="5.000000e-02" style="stop-color:#7D796D"/>
	<stop  offset="0.2" style="stop-color:#E4E1DC"/>
	<stop  offset="0.72" style="stop-color:#E4E1DC"/>
	<stop  offset="0.8" style="stop-color:#E4E1DC"/>
	<stop  offset="0.84" style="stop-color:#E2DFD9"/>
	<stop  offset="0.87" style="stop-color:#DAD7D1"/>
	<stop  offset="0.89" style="stop-color:#CDC9C3"/>
	<stop  offset="0.91" style="stop-color:#BAB6AF"/>
	<stop  offset="0.93" style="stop-color:#A19E94"/>
	<stop  offset="0.95" style="stop-color:#848074"/>
	<stop  offset="0.95" style="stop-color:#7D796D"/>
	<stop  offset="1" style="stop-color:#F4F2EC"/>
</linearGradient>
<path class="st2" d="M1.2,67.1h1v19.1h-1c-0.4,0-0.8-0.3-0.8-0.8c0,0,0,0,0,0V67.9C0.4,67.5,0.7,67.1,1.2,67.1
	C1.2,67.1,1.2,67.1,1.2,67.1z"/>
<linearGradient id="SVGID_3_" gradientUnits="userSpaceOnUse" x1="1.57" y1="448.0226" x2="247.72" y2="448.0226" gradientTransform="matrix(1 0 0 -1 0 497.5276)">
	<stop  offset="0" style="stop-color:#D3CFC6"/>
	<stop  offset="0" style="stop-color:#E2E0DA"/>
	<stop  offset="1.000000e-02" style="stop-color:#EFEEEB"/>
	<stop  offset="2.000000e-02" style="stop-color:#F8F8F6"/>
	<stop  offset="2.000000e-02" style="stop-color:#FEFDFD"/>
	<stop  offset="5.000000e-02" style="stop-color:#FFFFFF"/>
	<stop  offset="0.82" style="stop-color:#FFFFFF"/>
	<stop  offset="0.95" style="stop-color:#FFFFFF"/>
	<stop  offset="0.98" style="stop-color:#FEFDFD"/>
	<stop  offset="0.98" style="stop-color:#F8F8F6"/>
	<stop  offset="0.99" style="stop-color:#EFEEEB"/>
	<stop  offset="1" style="stop-color:#E2E0DA"/>
	<stop  offset="1" style="stop-color:#D3CFC6"/>
</linearGradient>
<rect x="1.6" y="47.7" class="st3" width="246.1" height="3.5"/>
<linearGradient id="SVGID_4_" gradientUnits="userSpaceOnUse" x1="1.57" y1="48.1526" x2="247.72" y2="48.1526" gradientTransform="matrix(1 0 0 -1 0 497.5276)">
	<stop  offset="0" style="stop-color:#D3CFC6"/>
	<stop  offset="0" style="stop-color:#E2E0DA"/>
	<stop  offset="1.000000e-02" style="stop-color:#EFEEEB"/>
	<stop  offset="2.000000e-02" style="stop-color:#F8F8F6"/>
	<stop  offset="2.000000e-02" style="stop-color:#FEFDFD"/>
	<stop  offset="5.000000e-02" style="stop-color:#FFFFFF"/>
	<stop  offset="0.82" style="stop-color:#FFFFFF"/>
	<stop  offset="0.95" style="stop-color:#FFFFFF"/>
	<stop  offset="0.98" style="stop-color:#FEFDFD"/>
	<stop  offset="0.98" style="stop-color:#F8F8F6"/>
	<stop  offset="0.99" style="stop-color:#EFEEEB"/>
	<stop  offset="1" style="stop-color:#E2E0DA"/>
	<stop  offset="1" style="stop-color:#D3CFC6"/>
</linearGradient>
<rect x="1.6" y="447.6" class="st4" width="246.1" height="3.5"/>
<g>
	<path class="st0" d="M0.8,148.6h1.3v36.2H0.8c-0.4,0-0.8-0.4-0.8-0.8c0,0,0,0,0,0v-34.6C0,149,0.4,148.6,0.8,148.6z"/>
	
		<linearGradient id="SVGID_5_" gradientUnits="userSpaceOnUse" x1="5929.6553" y1="3839.6575" x2="5929.6553" y2="3875.8977" gradientTransform="matrix(-1 0 0 1 5930.9199 -3691.0576)">
		<stop  offset="0" style="stop-color:#F4F2EC"/>
		<stop  offset="0" style="stop-color:#DEDCD5"/>
		<stop  offset="1.000000e-02" style="stop-color:#C0BDB5"/>
		<stop  offset="1.000000e-02" style="stop-color:#A8A49B"/>
		<stop  offset="2.000000e-02" style="stop-color:#959186"/>
		<stop  offset="3.000000e-02" style="stop-color:#878378"/>
		<stop  offset="4.000000e-02" style="stop-color:#7F7B70"/>
		<stop  offset="5.000000e-02" style="stop-color:#7D796D"/>
		<stop  offset="0.2" style="stop-color:#E4E1DC"/>
		<stop  offset="0.72" style="stop-color:#E4E1DC"/>
		<stop  offset="0.8" style="stop-color:#E4E1DC"/>
		<stop  offset="0.84" style="stop-color:#E2DFD9"/>
		<stop  offset="0.87" style="stop-color:#DAD7D1"/>
		<stop  offset="0.89" style="stop-color:#CDC9C3"/>
		<stop  offset="0.91" style="stop-color:#BAB6AF"/>
		<stop  offset="0.93" style="stop-color:#A19E94"/>
		<stop  offset="0.95" style="stop-color:#848074"/>
		<stop  offset="0.95" style="stop-color:#7D796D"/>
		<stop  offset="1" style="stop-color:#F4F2EC"/>
	</linearGradient>
	<path class="st5" d="M1.2,148.6h1v36.2h-1c-0.4,0-0.8-0.4-0.8-0.8c0,0,0,0,0,0v-34.6C0.4,149,0.7,148.6,1.2,148.6
		C1.2,148.6,1.2,148.6,1.2,148.6z"/>
	
		<linearGradient id="SVGID_6_" gradientUnits="userSpaceOnUse" x1="124.645" y1="-0.2625" x2="124.645" y2="496.4176" gradientTransform="matrix(1 0 0 -1 0 497.5276)">
		<stop  offset="0" style="stop-color:#151314"/>
		<stop  offset="2.000000e-02" style="stop-color:#828283"/>
		<stop  offset="3.000000e-02" style="stop-color:#8B8B8C"/>
		<stop  offset="5.000000e-02" style="stop-color:#A3A3A3"/>
		<stop  offset="8.000000e-02" style="stop-color:#CBCACA"/>
		<stop  offset="0.1" style="stop-color:#F1F0EF"/>
		<stop  offset="0.47" style="stop-color:#EFEEED"/>
		<stop  offset="0.6" style="stop-color:#E8E7E6"/>
		<stop  offset="0.69" style="stop-color:#DDDCDB"/>
		<stop  offset="0.77" style="stop-color:#CCCBCA"/>
		<stop  offset="0.83" style="stop-color:#B6B5B4"/>
		<stop  offset="0.89" style="stop-color:#9A9999"/>
		<stop  offset="0.94" style="stop-color:#7A7979"/>
		<stop  offset="0.99" style="stop-color:#565555"/>
		<stop  offset="1" style="stop-color:#4D4C4C"/>
	</linearGradient>
	<path class="st6" d="M232.7,8.7c-6.9-5.1-16.4-7.6-29.1-7.6H45.7C33,1.1,23.5,3.6,16.6,8.7C7.4,15.5,2.7,27.4,2.7,44.1v410.7
		c0,16.8,4.7,28.8,13.9,35.5c6.9,5.1,16.1,7.4,29.1,7.4h157.9c12.9,0,22.1-2.4,29.1-7.5c9.2-6.8,13.9-18.8,13.9-35.5V44.1
		C246.6,27.4,241.9,15.5,232.7,8.7z"/>
	<path class="st7" d="M45.7,498.9c-13.2,0-22.6-2.4-29.7-7.6c-9.5-7-14.4-19.3-14.4-36.4V44.1c0-17,4.8-29.3,14.4-36.3
		C23,2.5,32.8,0,45.7,0h158c12.9,0,22.7,2.5,29.7,7.8c9.5,7.1,14.4,19.3,14.4,36.3v410.7c0,17.1-4.8,29.4-14.4,36.4
		c-7.1,5.2-16.6,7.7-29.7,7.7H45.7z"/>
	<path class="st8" d="M233.3,7.8c9.5,7,14.4,19.3,14.4,36.3v410.7c0,17.1-4.8,29.4-14.4,36.4c-7.1,5.2-16.6,7.7-29.7,7.7h-158
		c-13.2,0-22.6-2.4-29.7-7.6c-9.5-7-14.4-19.2-14.4-36.4V44.1c0-17,4.8-29.2,14.4-36.3C23,2.6,32.8,0,45.7,0h158
		C216.6,0,226.3,2.6,233.3,7.8z"/>
	<path class="st9" d="M233.3,7.9c9.5,7,14.3,19.2,14.3,36.2v410.7c0,17.1-4.8,29.3-14.3,36.3c-7.1,5.2-16.5,7.7-29.7,7.7h-158
		c-13.2,0-22.6-2.4-29.7-7.6c-9.5-7-14.3-19.2-14.3-36.4V44.1c0-17,4.8-29.2,14.3-36.2c7.1-5.2,16.8-7.8,29.7-7.8h158
		C216.5,0.1,226.2,2.6,233.3,7.9z"/>
	<path class="st10" d="M233.3,7.9c9.5,7,14.3,19.2,14.3,36.2v410.7c0,17.1-4.8,29.3-14.3,36.3c-7.1,5.2-16.5,7.7-29.6,7.7h-158
		c-13.2,0-22.6-2.4-29.7-7.6c-9.5-7-14.3-19.2-14.3-36.3V44.1c0-17,4.8-29.2,14.3-36.2c7-5.2,16.8-7.8,29.7-7.8h158
		C216.5,0.1,226.2,2.7,233.3,7.9z"/>
	<path class="st11" d="M233.3,7.9c9.5,7,14.3,19.2,14.3,36.2v410.7c0,17.1-4.8,29.3-14.3,36.3c-7.1,5.2-16.5,7.7-29.6,7.7H45.7
		c-13.1,0-22.6-2.4-29.6-7.6c-9.5-7-14.3-19.2-14.3-36.3V44.1c0-17,4.8-29.2,14.3-36.2c7-5.2,16.7-7.8,29.6-7.8h158
		C216.5,0.2,226.2,2.7,233.3,7.9z"/>
	<path class="st12" d="M233.2,8c9.5,7,14.3,19.2,14.3,36.2v410.7c0,17.1-4.8,29.2-14.3,36.2c-7.1,5.2-16.5,7.6-29.6,7.6H45.7
		c-13.1,0-22.5-2.4-29.6-7.6c-9.5-7-14.3-19.2-14.3-36.3V44.1C1.8,27.1,6.6,15,16.1,8c7-5.2,16.7-7.8,29.6-7.8h158
		C216.5,0.2,226.2,2.8,233.2,8z"/>
	<path class="st13" d="M233.2,8c9.5,7,14.3,19.2,14.3,36.1v410.7c0,17-4.8,29.2-14.3,36.2c-7.1,5.2-16.5,7.6-29.6,7.6h-158
		c-13.1,0-22.5-2.4-29.6-7.6c-9.5-7-14.3-19.1-14.3-36.2V44.1C1.8,27.2,6.6,15,16.1,8c7-5.2,16.7-7.7,29.6-7.7h158
		C216.5,0.3,226.2,2.8,233.2,8z"/>
	<path class="st14" d="M233.2,8c9.4,7,14.2,19.1,14.2,36.1v410.7c0,17-4.8,29.2-14.2,36.2c-7.1,5.2-16.5,7.6-29.6,7.6H45.7
		c-13.1,0-22.5-2.4-29.6-7.6c-9.4-7-14.2-19.1-14.2-36.2V44.1C1.9,27.2,6.7,15,16.1,8c7-5.2,16.7-7.7,29.6-7.7h158
		C216.5,0.3,226.2,2.8,233.2,8z"/>
	<path class="st15" d="M233.1,8.1c9.4,7,14.2,19.1,14.2,36v410.7c0,17-4.8,29.2-14.2,36.1c-7.1,5.2-16.4,7.6-29.5,7.6H45.7
		c-13.1,0-22.5-2.4-29.5-7.6c-9.4-7-14.2-19.1-14.2-36.2V44.1c0-16.9,4.8-29,14.2-36c7-5.2,16.7-7.8,29.5-7.8h157.9
		C216.5,0.3,226.1,2.9,233.1,8.1z"/>
	<path class="st16" d="M233.1,8.1c9.4,7,14.2,19.1,14.2,36v410.7c0,17-4.8,29.1-14.2,36.1c-7,5.2-16.4,7.6-29.5,7.6H45.7
		c-13.1,0-22.5-2.4-29.5-7.6C6.7,484,2,471.9,2,454.8V44.1c0-16.9,4.8-29,14.2-36c7-5.2,16.6-7.7,29.5-7.7h157.9
		C216.5,0.4,226.1,2.9,233.1,8.1z"/>
	<path class="st17" d="M233.1,8.1c9.4,7,14.2,19.1,14.2,36v410.7c0,17-4.8,29.1-14.2,36.1c-7.1,5.2-16.4,7.6-29.5,7.6H45.7
		c-13.1,0-22.5-2.4-29.5-7.6C6.8,484,2,471.8,2,454.8V44.1c0-16.9,4.8-29,14.2-36c7-5.1,16.6-7.7,29.5-7.7h157.9
		C216.5,0.4,226.1,3,233.1,8.1z"/>
	<path class="st18" d="M233.1,8.2c9.4,7,14.2,19.1,14.2,36v410.7c0,17-4.8,29.1-14.2,36c-7,5.2-16.4,7.6-29.4,7.6H45.7
		c-13.1,0-22.5-2.4-29.5-7.6C6.8,484,2,471.8,2,454.8V44.1c0-16.9,4.8-29,14.2-36c7-5.2,16.7-7.7,29.5-7.7h157.9
		C216.5,0.5,226.1,3,233.1,8.2z"/>
	<path class="st19" d="M233.1,8.2c9.4,7,14.2,19,14.2,35.9v410.7c0,17-4.8,29.1-14.2,36c-7,5.2-16.4,7.6-29.4,7.6H45.7
		c-13.1,0-22.4-2.4-29.4-7.6c-9.4-6.9-14.2-19-14.2-36V44.1c0-16.9,4.8-29,14.2-35.9c7-5.2,16.6-7.7,29.4-7.7h157.9
		C216.4,0.5,226.1,3,233.1,8.2z"/>
	<path class="st20" d="M233,8.2c9.4,7,14.1,19,14.1,35.9v410.7c0,16.9-4.8,29-14.1,36c-7,5.2-16.4,7.6-29.4,7.6H45.7
		c-13.1,0-22.4-2.4-29.4-7.5c-9.4-6.9-14.1-19-14.1-36V44.1c0-16.9,4.8-28.9,14.2-35.9c7-5.2,16.6-7.7,29.4-7.7h157.9
		C216.4,0.6,226.1,3.1,233,8.2z"/>
	<path class="st21" d="M233,8.3c9.4,6.9,14.1,19,14.1,35.8v410.7c0,16.9-4.8,29-14.1,35.9c-7,5.2-16.3,7.6-29.4,7.6H45.7
		c-13.1,0-22.4-2.4-29.4-7.5c-9.4-6.9-14.1-19-14.1-36V44.1c0-16.8,4.8-28.9,14.1-35.8c7-5.2,16.6-7.7,29.4-7.7h157.9
		C216.4,0.6,226,3.1,233,8.3z"/>
	<path class="st22" d="M233,8.3c9.4,6.9,14.1,19,14.1,35.8v410.7c0,16.9-4.7,29-14.1,35.9c-7,5.2-16.3,7.6-29.4,7.6h-158
		c-13,0-22.4-2.4-29.4-7.5c-9.4-6.9-14.1-19-14.1-35.9V44.1C2.2,27.3,7,15.2,16.3,8.3c7-5.2,16.6-7.7,29.4-7.7h157.9
		C216.4,0.6,226,3.2,233,8.3z"/>
	<path class="st23" d="M233,8.3c9.3,6.9,14,19,14,35.8v410.7c0,16.9-4.7,29-14.1,35.9c-7,5.2-16.3,7.6-29.3,7.6H45.7
		c-13,0-22.4-2.4-29.3-7.5c-9.3-6.9-14.1-19-14.1-35.9V44.1C2.3,27.3,7,15.3,16.4,8.3c7-5.2,16.6-7.7,29.3-7.7h157.9
		C216.4,0.7,226,3.2,233,8.3z"/>
	<path class="st24" d="M232.9,8.4c9.3,6.9,14.1,18.9,14.1,35.7v410.7c0,16.9-4.7,28.9-14.1,35.8c-7,5.1-16.3,7.5-29.3,7.5H45.7
		c-13,0-22.3-2.4-29.3-7.5C7,483.8,2.3,471.7,2.3,454.8V44.1C2.3,27.3,7,15.3,16.4,8.4c6.9-5.1,16.5-7.6,29.3-7.6h157.9
		C216.4,0.7,226,3.2,232.9,8.4z"/>
	<path class="st25" d="M232.9,8.4c9.3,6.9,14.1,18.9,14.1,35.7v410.7c0,16.9-4.7,28.9-14.1,35.8c-7,5.1-16.3,7.5-29.3,7.5h-158
		c-13,0-22.3-2.4-29.3-7.5c-9.3-6.9-14.1-18.9-14.1-35.8V44.1c0-16.8,4.7-28.8,14.1-35.7c6.9-5.1,16.5-7.6,29.3-7.6h157.9
		C216.4,0.8,226,3.3,232.9,8.4z"/>
	<path class="st26" d="M232.9,8.4c9.3,6.9,14,18.9,14,35.7v410.7c0,16.9-4.7,28.9-14,35.8c-7,5.1-16.3,7.5-29.2,7.5H45.7
		c-13,0-22.3-2.4-29.3-7.5c-9.3-6.9-14-18.9-14-35.8V44.1c0-16.8,4.7-28.8,14.1-35.7c6.9-5.1,16.5-7.6,29.2-7.6h157.9
		C216.4,0.8,226,3.3,232.9,8.4z"/>
	<path class="st27" d="M232.9,8.5c9.3,6.9,14,18.9,14,35.6v410.7c0,16.8-4.7,28.9-14,35.7c-7,5.1-16.2,7.5-29.2,7.5H45.7
		c-13,0-22.3-2.4-29.2-7.5c-9.3-6.8-14-18.9-14-35.8V44.1c0-16.8,4.7-28.8,14-35.6c6.9-5.1,16.5-7.6,29.2-7.6h157.9
		C216.4,0.9,225.9,3.3,232.9,8.5z"/>
	<path class="st28" d="M232.8,8.5c9.3,6.9,14,18.9,14,35.6v410.7c0,16.8-4.7,28.8-14,35.7c-7,5.1-16.2,7.5-29.2,7.5H45.7
		c-13,0-22.3-2.4-29.2-7.5c-9.3-6.8-14-18.9-14-35.7V44.1c0-16.7,4.7-28.7,14-35.6C23.4,3.4,33,0.9,45.7,0.9h157.9
		C216.4,0.9,225.9,3.4,232.8,8.5z"/>
	<path class="st29" d="M232.8,8.5c9.3,6.9,14,18.8,14,35.6v410.7c0,16.8-4.7,28.8-14,35.6c-7,5.1-16.2,7.5-29.2,7.5H45.7
		c-13,0-22.3-2.4-29.2-7.5c-9.3-6.8-14-18.8-14-35.7V44.1c0-16.7,4.7-28.7,14-35.6C23.4,3.4,33,0.9,45.7,0.9h157.9
		C216.4,0.9,225.9,3.4,232.8,8.5z"/>
	<path class="st30" d="M232.8,8.6c9.3,6.9,14,18.8,14,35.5v410.7c0,16.8-4.7,28.8-14,35.6c-6.9,5.1-16.2,7.5-29.1,7.5H45.7
		c-13,0-22.2-2.4-29.2-7.5c-9.3-6.8-14-18.8-14-35.6V44.1c0-16.7,4.7-28.7,14-35.5C23.4,3.5,33,1,45.7,1h157.9
		C216.3,1,225.9,3.5,232.8,8.6z"/>
	<path class="st31" d="M232.8,8.6c9.3,6.9,13.9,18.8,13.9,35.5v410.7c0,16.8-4.7,28.8-13.9,35.6c-6.9,5.1-16.2,7.5-29.1,7.5H45.7
		c-13,0-22.2-2.4-29.1-7.5c-9.3-6.8-13.9-18.8-13.9-35.6V44.1c0-16.7,4.7-28.6,14-35.5C23.5,3.5,33,1,45.7,1h157.9
		C216.3,1,225.9,3.5,232.8,8.6z"/>
	<path class="st32" d="M232.7,8.6c9.2,6.8,13.9,18.8,13.9,35.5v410.7c0,16.8-4.7,28.7-13.9,35.5c-6.9,5.1-16.2,7.5-29.1,7.5H45.7
		c-13,0-22.2-2.4-29.1-7.4c-9.2-6.8-13.9-18.8-13.9-35.6V44.1c0-16.7,4.7-28.6,13.9-35.5C23.5,3.5,33,1.1,45.7,1.1h157.9
		C216.3,1.1,225.8,3.5,232.7,8.6z"/>
	<path class="st33" d="M232.7,8.7c-6.9-5.1-16.4-7.6-29.1-7.6H45.7C33,1.1,23.5,3.6,16.6,8.7C7.4,15.5,2.7,27.4,2.7,44.1v410.7
		c0,16.8,4.7,28.8,13.9,35.5c6.9,5.1,16.1,7.4,29.1,7.4h157.9c12.9,0,22.1-2.4,29.1-7.5c9.2-6.8,13.9-18.8,13.9-35.5V44.1
		C246.6,27.4,241.9,15.5,232.7,8.7z"/>
	<path class="st34" d="M45.7,497.7c-12.9,0-22.1-2.4-29-7.4c-9.2-6.8-13.9-18.7-13.9-35.5V44.1c0-16.6,4.7-28.5,13.9-35.4
		c6.9-5.1,16.4-7.6,29-7.6h157.9c12.7,0,22.2,2.5,29,7.6c9.2,6.8,13.9,18.7,13.9,35.4v410.7c0,16.7-4.7,28.6-13.9,35.4
		c-6.9,5.1-16.1,7.5-29,7.5H45.7z"/>
	<path class="st35" d="M45.7,497.6c-12.9,0-22.1-2.4-29-7.4c-9.2-6.8-13.9-18.7-13.9-35.4V44.1c0-16.6,4.7-28.5,13.9-35.3
		c6.8-5.1,16.3-7.5,29-7.5h157.9c12.6,0,22.1,2.5,29,7.5c9.2,6.8,13.8,18.7,13.8,35.3v410.7c0,16.7-4.6,28.6-13.8,35.4
		c-6.9,5.1-16.1,7.4-29,7.4H45.7z"/>
	<path class="st36" d="M45.7,497.5c-12.9,0-22.1-2.3-28.9-7.4c-9.2-6.7-13.8-18.6-13.8-35.3V44.1c0-16.6,4.7-28.4,13.8-35.2
		C23.6,3.8,33,1.4,45.7,1.4h157.9c12.6,0,22.1,2.5,28.9,7.5c9.2,6.8,13.8,18.6,13.8,35.2v410.7c0,16.7-4.6,28.5-13.8,35.3
		c-6.9,5.1-16.1,7.4-28.9,7.4H45.7z"/>
	<path class="st37" d="M45.7,497.5c-12.9,0-22-2.3-28.9-7.4C7.7,483.4,3,471.5,3,454.8V44.1C3,27.6,7.7,15.7,16.8,9
		c6.8-5,16.3-7.5,28.9-7.5h157.9c12.6,0,22.1,2.5,28.9,7.5c9.1,6.8,13.8,18.6,13.8,35.2v410.7c0,16.6-4.6,28.5-13.8,35.2
		c-6.9,5.1-16,7.4-28.9,7.4L45.7,497.5z"/>
	<path class="st38" d="M45.7,497.4c-12.9,0-22-2.3-28.8-7.4c-9.1-6.7-13.8-18.5-13.8-35.2V44.1C3.1,27.6,7.7,15.8,16.9,9
		c6.8-5,16.2-7.5,28.8-7.5h157.9c12.6,0,22,2.4,28.8,7.5c9.1,6.8,13.8,18.6,13.8,35.1v410.7c0,16.6-4.6,28.4-13.7,35.2
		c-6.9,5-16,7.4-28.8,7.4L45.7,497.4z"/>
	<path class="st39" d="M45.7,497.3c-12.8,0-22-2.3-28.8-7.3c-9.1-6.7-13.7-18.5-13.7-35.1V44.1c0-16.5,4.6-28.3,13.7-35
		c6.8-5,16.2-7.5,28.8-7.5h157.9c12.6,0,22,2.4,28.8,7.5c9.1,6.7,13.7,18.5,13.7,35v410.7c0,16.6-4.6,28.4-13.7,35.1
		c-6.8,5-16,7.4-28.8,7.4H45.7z"/>
	<path class="st40" d="M45.7,497.2c-12.8,0-21.9-2.3-28.7-7.3c-9.1-6.7-13.7-18.5-13.7-35.1V44.1c0-16.5,4.6-28.2,13.7-35
		c6.8-5,16.2-7.4,28.7-7.4h157.9c12.6,0,21.9,2.4,28.7,7.4c9.1,6.7,13.7,18.5,13.7,35v410.7c0,16.6-4.6,28.3-13.7,35
		c-6.8,5-15.9,7.4-28.7,7.4L45.7,497.2z"/>
	<path class="st41" d="M45.7,497.1c-12.8,0-21.9-2.3-28.7-7.3c-9-6.6-13.6-18.4-13.6-35V44.1C3.4,27.7,8,15.9,17,9.2
		c6.8-5,16.1-7.4,28.7-7.4h158c12.5,0,21.9,2.4,28.7,7.4c9.1,6.7,13.6,18.4,13.6,34.9v410.7c0,16.5-4.6,28.3-13.6,35
		c-6.8,5-15.9,7.3-28.7,7.3L45.7,497.1z"/>
	<path class="st42" d="M45.7,497c-12.8,0-21.9-2.3-28.6-7.3C8,483.1,3.5,471.4,3.5,454.8V44.1C3.5,27.7,8,16,17.1,9.3
		c6.7-5,16.1-7.4,28.6-7.4h157.9c12.5,0,21.9,2.4,28.6,7.4c9,6.7,13.6,18.4,13.6,34.8v410.7c0,16.5-4.6,28.2-13.6,34.9
		c-6.8,5-15.9,7.3-28.6,7.3L45.7,497z"/>
	<path class="st43" d="M45.7,496.9c-12.8,0-21.8-2.3-28.6-7.3c-9-6.6-13.6-18.4-13.6-34.9V44.1C3.5,27.7,8.1,16,17.1,9.4
		C23.8,4.4,33.2,2,45.7,2h157.9c12.5,0,21.8,2.4,28.6,7.4c9,6.7,13.6,18.4,13.6,34.8v410.7c0,16.5-4.6,28.2-13.6,34.8
		c-6.8,5-15.8,7.3-28.6,7.3L45.7,496.9z"/>
	<path class="st44" d="M45.7,496.9c-12.7,0-21.8-2.3-28.5-7.2c-9-6.6-13.5-18.3-13.5-34.8V44.1c0-16.4,4.6-28,13.5-34.7
		c6.7-5,16-7.4,28.5-7.4h157.9c12.5,0,21.8,2.4,28.5,7.4c9,6.7,13.5,18.3,13.5,34.7v410.7c0,16.4-4.6,28.1-13.5,34.8
		c-6.8,5-15.8,7.3-28.5,7.3H45.7z"/>
	<path class="st45" d="M45.7,496.8c-12.7,0-21.8-2.3-28.5-7.2c-9-6.6-13.5-18.3-13.5-34.7V44.1c0-16.3,4.5-28,13.5-34.6
		c6.7-5,16-7.4,28.5-7.4h157.9c12.5,0,21.8,2.4,28.5,7.4c9,6.6,13.5,18.3,13.5,34.6v410.7c0,16.4-4.5,28.1-13.5,34.7
		c-6.7,5-15.8,7.3-28.5,7.3H45.7z"/>
	<path class="st46" d="M45.7,496.7c-12.7,0-21.7-2.3-28.4-7.2c-8.9-6.6-13.5-18.2-13.5-34.6V44.1c0-16.3,4.5-27.9,13.5-34.5
		c6.7-4.9,16-7.3,28.4-7.3h157.9c12.4,0,21.7,2.4,28.4,7.3c8.9,6.6,13.5,18.2,13.5,34.5v410.7c0,16.4-4.5,28-13.5,34.6
		c-6.7,5-15.8,7.3-28.4,7.3H45.7z"/>
	<path class="st47" d="M45.7,496.6c-12.7,0-21.7-2.3-28.4-7.2c-8.9-6.6-13.4-18.2-13.4-34.6V44.1c0-16.3,4.5-27.9,13.4-34.5
		C24,4.7,33.3,2.3,45.7,2.3h157.9c12.4,0,21.7,2.4,28.4,7.3c8.9,6.6,13.4,18.2,13.4,34.5v410.7c0,16.4-4.5,28-13.4,34.5
		c-6.7,4.9-15.7,7.2-28.4,7.2L45.7,496.6z"/>
	<path class="st48" d="M45.7,496.5c-12.7,0-21.7-2.3-28.3-7.2C8.5,482.8,4,471.2,4,454.8V44.1C4,27.9,8.5,16.3,17.4,9.7
		C24,4.8,33.3,2.4,45.7,2.4h157.9c12.4,0,21.7,2.4,28.3,7.3c8.9,6.6,13.4,18.2,13.4,34.4v410.7c0,16.3-4.5,27.9-13.4,34.5
		c-6.7,4.9-15.7,7.2-28.3,7.2H45.7z"/>
	<path class="st49" d="M45.7,496.4c-12.6,0-21.6-2.3-28.3-7.2C8.5,482.7,4,471.1,4,454.8V44.1C4,27.9,8.5,16.4,17.4,9.8
		C24,4.9,33.3,2.5,45.7,2.5h157.9c12.4,0,21.6,2.4,28.3,7.3c8.9,6.6,13.4,18.1,13.4,34.3v410.7c0,16.3-4.5,27.9-13.4,34.4
		c-6.7,4.9-15.6,7.2-28.3,7.2H45.7z"/>
	<path class="st50" d="M45.7,496.3c-12.6,0-21.6-2.3-28.2-7.2c-8.8-6.5-13.3-18.1-13.3-34.4V44.1c0-16.2,4.5-27.7,13.3-34.3
		c6.6-4.9,15.9-7.3,28.2-7.3h157.9c12.4,0,21.6,2.4,28.2,7.3c8.9,6.6,13.3,18.1,13.3,34.3v410.7c0,16.3-4.5,27.8-13.3,34.3
		c-6.7,4.9-15.6,7.2-28.2,7.2H45.7z"/>
	<path class="st51" d="M45.7,496.2c-12.6,0-21.5-2.3-28.2-7.1c-8.8-6.5-13.3-18-13.3-34.3V44.1C4.2,28,8.7,16.5,17.5,9.9
		C24.1,5,33.3,2.6,45.7,2.6h157.9c12.4,0,21.5,2.4,28.1,7.3c8.8,6.5,13.3,18,13.3,34.2v410.7c0,16.2-4.5,27.8-13.3,34.3
		c-6.6,4.9-15.6,7.2-28.2,7.2H45.7z"/>
	<path class="st52" d="M45.7,496.2c-12.6,0-21.5-2.3-28.1-7.1c-8.8-6.5-13.3-18-13.3-34.2V44.1C4.3,28,8.8,16.5,17.6,10
		c6.6-4.9,15.8-7.3,28.1-7.3h158c12.3,0,21.5,2.4,28.1,7.2c8.8,6.5,13.2,18,13.2,34.1v410.7c0,16.2-4.5,27.7-13.2,34.2
		c-6.6,4.9-15.6,7.2-28.1,7.2H45.7z"/>
	<path class="st53" d="M45.7,496.1c-12.5,0-21.5-2.2-28.1-7.1c-8.8-6.5-13.2-18-13.2-34.2V44.1C4.4,28,8.8,16.6,17.6,10
		c6.6-4.9,15.8-7.2,28.1-7.2h158c12.3,0,21.5,2.4,28.1,7.2c8.8,6.5,13.2,18,13.2,34.1v410.7c0,16.2-4.4,27.7-13.2,34.1
		c-6.6,4.9-15.5,7.1-28.1,7.1L45.7,496.1z"/>
	<path class="st54" d="M45.7,496c-12.5,0-21.4-2.2-28-7.1C8.9,482.5,4.5,471,4.5,454.8V44.1c0-16.1,4.4-27.5,13.2-34
		c6.6-4.9,15.7-7.2,28-7.2h158c12.3,0,21.4,2.4,28,7.2c8.8,6.5,13.2,17.9,13.2,34v410.7c0,16.2-4.4,27.6-13.2,34.1
		c-6.6,4.9-15.5,7.1-28,7.1H45.7z"/>
	<path class="st55" d="M45.7,495.9c-12.5,0-21.4-2.2-28-7.1C9,482.4,4.6,471,4.6,454.8V44.1c0-16,4.4-27.5,13.2-33.9
		C24.3,5.3,33.4,3,45.7,3h158c12.3,0,21.4,2.3,28,7.2c8.7,6.5,13.2,17.9,13.2,33.9v410.7c0,16.1-4.4,27.6-13.1,34
		c-6.6,4.8-15.5,7.1-28,7.1L45.7,495.9z"/>
	<path class="st56" d="M45.7,495.8c-12.5,0-21.4-2.2-27.9-7.1c-8.7-6.4-13.1-17.8-13.1-34V44.1c0-16,4.4-27.4,13.1-33.9
		c6.5-4.8,15.7-7.2,27.9-7.2h158c12.2,0,21.4,2.4,27.9,7.2c8.7,6.5,13.1,17.9,13.1,33.9v410.7c0,16.1-4.4,27.5-13.1,33.9
		c-6.6,4.8-15.4,7.1-27.9,7.1H45.7z"/>
	<path class="st57" d="M45.7,495.7c-12.5,0-21.3-2.2-27.9-7C9.1,482.4,4.7,471,4.7,454.8V44.1c0-16,4.4-27.4,13.1-33.8
		c6.5-4.8,15.6-7.2,27.9-7.2h158c12.2,0,21.3,2.3,27.9,7.2c8.7,6.4,13.1,17.8,13.1,33.8v410.7c0,16.1-4.4,27.5-13.1,33.9
		c-6.6,4.8-15.4,7.1-27.9,7.1H45.7z"/>
	<path class="st58" d="M45.7,495.7c-12.5,0-21.3-2.2-27.8-7c-8.7-6.4-13-17.8-13-33.8V44.1c0-16,4.4-27.3,13.1-33.7
		c6.5-4.8,15.6-7.2,27.8-7.2h158c12.2,0,21.3,2.3,27.8,7.2c8.7,6.4,13,17.8,13,33.7v410.7c0,16-4.4,27.4-13,33.8
		c-6.5,4.8-15.4,7.1-27.8,7.1H45.7z"/>
	<path class="st59" d="M45.7,495.6c-12.4,0-21.3-2.2-27.8-7c-8.6-6.4-13-17.7-13-33.8V44.1c0-15.9,4.4-27.2,13-33.7
		c6.5-4.8,15.6-7.1,27.7-7.1h158c12.2,0,21.3,2.3,27.8,7.1c8.6,6.4,13,17.7,13,33.7v410.7c0,16-4.4,27.4-13,33.7
		c-6.5,4.8-15.3,7-27.8,7L45.7,495.6z"/>
	
		<linearGradient id="SVGID_7_" gradientUnits="userSpaceOnUse" x1="124.645" y1="2.1476" x2="124.645" y2="494.0076" gradientTransform="matrix(1 0 0 -1 0 497.5276)">
		<stop  offset="0" style="stop-color:#5A5B5B"/>
		<stop  offset="0" style="stop-color:#4F5050"/>
		<stop  offset="0" style="stop-color:#3A3A3A"/>
		<stop  offset="1.000000e-02" style="stop-color:#2A2929"/>
		<stop  offset="1.000000e-02" style="stop-color:#1E1E1E"/>
		<stop  offset="2.000000e-02" style="stop-color:#181717"/>
		<stop  offset="4.000000e-02" style="stop-color:#161515"/>
		<stop  offset="0.11" style="stop-color:#212121"/>
		<stop  offset="0.2" style="stop-color:#2A2A2A"/>
		<stop  offset="0.8" style="stop-color:#2A2A2A"/>
		<stop  offset="0.89" style="stop-color:#212121"/>
		<stop  offset="0.96" style="stop-color:#161515"/>
		<stop  offset="0.98" style="stop-color:#181717"/>
		<stop  offset="0.99" style="stop-color:#1E1E1E"/>
		<stop  offset="0.99" style="stop-color:#2A2929"/>
		<stop  offset="0.99" style="stop-color:#3A3A3A"/>
		<stop  offset="1" style="stop-color:#4F5050"/>
		<stop  offset="1" style="stop-color:#5A5B5B"/>
	</linearGradient>
	<path class="st60" d="M45.7,495.4c-12.4,0-21.2-2.2-27.7-7c-8.6-6.3-12.9-17.6-12.9-33.6V44.1C5.1,28.2,9.4,17,18,10.6
		c6.5-4.8,15.5-7.1,27.7-7.1h158c12.1,0,21.2,2.3,27.6,7.1c8.6,6.4,12.9,17.6,12.9,33.5v410.7c0,16-4.4,27.2-12.9,33.6
		c-6.5,4.8-15.3,7-27.6,7H45.7z"/>
	<path class="st61" d="M231.3,10.6c-6.4-4.8-15.5-7.1-27.6-7.1H45.7c-12.2,0-21.2,2.3-27.6,7.1C9.4,17,5.1,28.2,5.1,44.1v410.7
		c0,16,4.4,27.3,12.9,33.6c6.5,4.8,15.3,7,27.7,7h157.9c12.4,0,21.2-2.2,27.6-7c8.6-6.3,12.9-17.6,12.9-33.6V44.1
		C244.2,28.2,239.9,17,231.3,10.6z M243.4,454.8c0,15.7-4.2,26.8-12.6,32.9c-6.3,4.7-15,6.8-27.2,6.8H45.7
		c-12.2,0-20.9-2.2-27.2-6.8c-8.4-6.1-12.6-17.2-12.6-32.9V44.1c0-15.6,4.2-26.6,12.6-32.8c6.3-4.7,15.2-6.9,27.2-6.9h157.9
		c12,0,20.9,2.3,27.1,6.9c8.4,6.2,12.6,17.2,12.6,32.8V454.8z"/>
	<path class="st62" d="M230.1,12.2c-6.1-4.5-14.7-6.7-26.4-6.7H45.7c-11.7,0-20.4,2.2-26.5,6.7c-8,6-12.1,16.7-12.1,31.9v410.7
		c0,15.3,4.1,26.1,12.1,32c6.1,4.5,14.5,6.6,26.5,6.6h157.9c11.9,0,20.3-2.1,26.4-6.6c8-5.9,12.1-16.7,12.1-32V44.1
		C242.2,28.9,238.1,18.2,230.1,12.2z M241.8,454.8c0,15.1-4,25.8-11.9,31.6c-6.1,4.5-14.4,6.5-26.2,6.5H45.7
		c-11.9,0-20.2-2.1-26.2-6.5c-7.9-5.8-12-16.5-12-31.7V44.1c0-15.1,4-25.7,12-31.6c6-4.4,14.6-6.6,26.2-6.6h158
		c11.6,0,20.2,2.2,26.2,6.6c7.9,5.9,12,16.5,12,31.6L241.8,454.8z"/>
	<path class="st63" d="M45.7,489c-11,0-18.5-1.8-23.9-5.7c-6.8-5-10.3-14.6-10.3-28.4V44.1c0-13.7,3.5-23.2,10.4-28.3
		C27.2,11.9,35,10,45.7,10h157.9c10.7,0,18.5,1.9,23.8,5.8c6.9,5.1,10.3,14.6,10.3,28.3v410.7c0,13.8-3.5,23.3-10.3,28.4
		c-5.3,3.9-12.9,5.8-23.8,5.8H45.7z"/>
	
		<linearGradient id="SVGID_8_" gradientUnits="userSpaceOnUse" x1="124.635" y1="4.5576" x2="124.635" y2="491.5976" gradientTransform="matrix(1 0 0 -1 0 497.5276)">
		<stop  offset="0" style="stop-color:#616165"/>
		<stop  offset="0" style="stop-color:#545357"/>
		<stop  offset="0" style="stop-color:#3B3A3C"/>
		<stop  offset="1.000000e-02" style="stop-color:#272426"/>
		<stop  offset="1.000000e-02" style="stop-color:#171415"/>
		<stop  offset="2.000000e-02" style="stop-color:#0C080A"/>
		<stop  offset="2.000000e-02" style="stop-color:#060203"/>
		<stop  offset="4.000000e-02" style="stop-color:#040001"/>
		<stop  offset="0.83" style="stop-color:#040001"/>
		<stop  offset="0.96" style="stop-color:#040001"/>
		<stop  offset="0.98" style="stop-color:#060203"/>
		<stop  offset="0.98" style="stop-color:#0C080A"/>
		<stop  offset="0.99" style="stop-color:#171415"/>
		<stop  offset="0.99" style="stop-color:#272426"/>
		<stop  offset="1" style="stop-color:#3B3A3C"/>
		<stop  offset="1" style="stop-color:#545357"/>
		<stop  offset="1" style="stop-color:#616165"/>
	</linearGradient>
	<path class="st64" d="M229.8,12.6c-6-4.4-14.6-6.6-26.2-6.6H45.7c-11.6,0-20.2,2.2-26.2,6.6c-8,5.9-12,16.5-12,31.6v410.7
		c0,15.2,4,25.8,12,31.7c6,4.4,14.4,6.5,26.2,6.5h157.9c11.8,0,20.2-2.1,26.2-6.5c7.9-5.8,11.9-16.5,11.9-31.6V44.1
		C241.8,29,237.8,18.4,229.8,12.6z M237.8,454.8c0,13.8-3.5,23.3-10.3,28.4c-5.3,3.9-12.9,5.8-23.8,5.8H45.7
		c-11,0-18.5-1.8-23.9-5.7c-6.8-5-10.3-14.6-10.3-28.4V44.1c0-13.7,3.5-23.2,10.4-28.3C27.2,11.9,35,10,45.7,10h157.9
		c10.7,0,18.5,1.9,23.8,5.8c6.9,5.1,10.3,14.6,10.3,28.3V454.8z"/>
	<path class="st65" d="M11.5,454.8V44.1c0-16.5,6.8-28.1,14.8-35.2c-2.4,0.9-4.7,2.1-6.8,3.6c-7.9,5.9-12,16.5-12,31.6v410.7
		c0,15.2,4,25.8,12,31.7c2.1,1.5,4.3,2.7,6.7,3.6C18.2,483,11.5,471.4,11.5,454.8z"/>
	<path class="st65" d="M229.8,12.6c-2.1-1.5-4.4-2.8-6.9-3.7c9.4,8.9,14.8,21.3,14.8,34.2v411.7c0,16.5-7,28.2-15.1,35.4
		c2.6-0.9,5-2.2,7.2-3.8c7.9-5.8,12-16.5,12-31.6V44.1C241.7,29,237.7,18.4,229.8,12.6z"/>
	<path class="st66" d="M45.7,484.5c-10,0-16.7-1.5-21.2-4.9c-5.6-4.2-8.5-12.5-8.5-24.9V44.1c0-12.2,2.9-20.6,8.5-24.8
		c4.5-3.3,11.4-5,21.2-5h14.4c2.2,0,4,1.7,4,3.9c0,0,0,0.1,0,0.1v1c0,7,5.7,12.7,12.6,12.7c0,0,0,0,0,0h95.6
		c6.9,0,12.6-5.6,12.7-12.5v-1.2c0-2.2,1.8-4,4-4h14.5c9.7,0,16.7,1.6,21.2,5c5.7,4.2,8.6,12.5,8.6,24.8v410.7
		c0,12.3-2.9,20.7-8.5,24.8c-4.5,3.3-11.3,4.9-21.2,4.9L45.7,484.5z"/>
</g>
<radialGradient id="SVGID_9_" cx="147.76" cy="477.3676" r="8.27" gradientTransform="matrix(1 0 0 -1 0 497.5276)" gradientUnits="userSpaceOnUse">
	<stop  offset="0" style="stop-color:#040001"/>
	<stop  offset="0.26" style="stop-color:#090506"/>
	<stop  offset="0.58" style="stop-color:#161414"/>
	<stop  offset="0.93" style="stop-color:#2D2C2C"/>
	<stop  offset="1" style="stop-color:#323232"/>
</radialGradient>
<path class="st67" d="M155,20.2c0,2-1.6,3.7-3.7,3.7s-3.7-1.6-3.7-3.7s1.6-3.7,3.7-3.7l0,0C153.4,16.5,155,18.1,155,20.2
	C155,20.1,155,20.2,155,20.2z"/>
<path class="st63" d="M153.7,20.2c0,1.3-1.1,2.4-2.4,2.4c-1.3,0-2.4-1.1-2.4-2.4s1.1-2.4,2.4-2.4l0,0
	C152.7,17.7,153.7,18.8,153.7,20.2z"/>
<g>
	<defs>
		<circle id="SVGID_10_" cx="151.3" cy="20.1" r="2"/>
	</defs>
	<clipPath id="SVGID_11_">
		<use xlink:href="#SVGID_10_"  style="overflow:visible;"/>
	</clipPath>
	<g class="st68">
		
			<linearGradient id="SVGID_12_" gradientUnits="userSpaceOnUse" x1="149.945" y1="478.7726" x2="152.715" y2="476.0026" gradientTransform="matrix(1 0 0 -1 0 497.5276)">
			<stop  offset="0" style="stop-color:#1D315B"/>
			<stop  offset="1" style="stop-color:#172146"/>
		</linearGradient>
		<path class="st69" d="M151.3,22.1c-1.1,0-2-0.9-2-2s0.9-2,2-2s2,0.9,2,2S152.4,22.1,151.3,22.1z"/>
		
			<linearGradient id="SVGID_13_" gradientUnits="userSpaceOnUse" x1="149.94" y1="478.7476" x2="152.69" y2="475.9976" gradientTransform="matrix(1 0 0 -1 0 497.5276)">
			<stop  offset="0" style="stop-color:#1D3159"/>
			<stop  offset="1" style="stop-color:#172249"/>
		</linearGradient>
		<path class="st70" d="M151.3,22.1c-1.1,0-1.9-0.9-1.9-2c0-1.1,0.9-1.9,2-1.9c1.1,0,1.9,0.9,1.9,2c0,0,0,0,0,0
			C153.2,21.2,152.4,22.1,151.3,22.1z"/>
		
			<linearGradient id="SVGID_14_" gradientUnits="userSpaceOnUse" x1="149.945" y1="478.7426" x2="152.685" y2="476.0026" gradientTransform="matrix(1 0 0 -1 0 497.5276)">
			<stop  offset="0" style="stop-color:#1D3057"/>
			<stop  offset="1" style="stop-color:#18244B"/>
		</linearGradient>
		<path class="st71" d="M151.3,22.1c-1.1,0-1.9-0.9-1.9-1.9c0-1.1,0.9-1.9,1.9-1.9c1.1,0,1.9,0.9,1.9,1.9c0,0,0,0,0,0
			C153.2,21.2,152.4,22.1,151.3,22.1z"/>
		
			<linearGradient id="SVGID_15_" gradientUnits="userSpaceOnUse" x1="149.95" y1="478.7376" x2="152.6824" y2="476.0052" gradientTransform="matrix(1 0 0 -1 0 497.5276)">
			<stop  offset="0" style="stop-color:#1D3054"/>
			<stop  offset="1" style="stop-color:#19254E"/>
		</linearGradient>
		<path class="st72" d="M151.3,22.1c-1.1,0-1.9-0.9-1.9-1.9c0-1.1,0.9-1.9,1.9-1.9c1.1,0,1.9,0.9,1.9,1.9c0,0,0,0,0,0
			C153.2,21.2,152.4,22.1,151.3,22.1C151.3,22.1,151.3,22.1,151.3,22.1z"/>
		
			<linearGradient id="SVGID_16_" gradientUnits="userSpaceOnUse" x1="149.96" y1="478.7276" x2="152.67" y2="476.0176" gradientTransform="matrix(1 0 0 -1 0 497.5276)">
			<stop  offset="0" style="stop-color:#1D2F52"/>
			<stop  offset="1" style="stop-color:#1A2651"/>
		</linearGradient>
		<path class="st73" d="M151.3,22.1c-1.1,0-1.9-0.9-1.9-1.9c0-1.1,0.9-1.9,1.9-1.9c1.1,0,1.9,0.9,1.9,1.9c0,0,0,0,0,0
			C153.2,21.2,152.4,22.1,151.3,22.1z"/>
		
			<linearGradient id="SVGID_17_" gradientUnits="userSpaceOnUse" x1="149.97" y1="478.7176" x2="152.66" y2="476.0276" gradientTransform="matrix(1 0 0 -1 0 497.5276)">
			<stop  offset="0" style="stop-color:#1D2E50"/>
			<stop  offset="1" style="stop-color:#1B2853"/>
		</linearGradient>
		<path class="st74" d="M151.3,22.1c-1.1,0-1.9-0.9-1.9-1.9c0-1.1,0.9-1.9,1.9-1.9c1.1,0,1.9,0.9,1.9,1.9c0,0,0,0,0,0
			C153.2,21.2,152.4,22.1,151.3,22.1C151.3,22.1,151.3,22.1,151.3,22.1z"/>
		
			<linearGradient id="SVGID_18_" gradientUnits="userSpaceOnUse" x1="149.98" y1="478.7076" x2="152.65" y2="476.0376" gradientTransform="matrix(1 0 0 -1 0 497.5276)">
			<stop  offset="0" style="stop-color:#1D2E4D"/>
			<stop  offset="1" style="stop-color:#1C2956"/>
		</linearGradient>
		<path class="st75" d="M151.3,22c-1,0-1.9-0.9-1.9-1.9s0.9-1.9,1.9-1.9c1,0,1.9,0.9,1.9,1.9c0,0,0,0,0,0
			C153.2,21.2,152.4,22.1,151.3,22C151.3,22.1,151.3,22.1,151.3,22z"/>
		
			<linearGradient id="SVGID_19_" gradientUnits="userSpaceOnUse" x1="150.0025" y1="478.73" x2="152.6625" y2="476.06" gradientTransform="matrix(1 0 0 -1 0 497.5276)">
			<stop  offset="0" style="stop-color:#1D2D4B"/>
			<stop  offset="1" style="stop-color:#1D2A59"/>
		</linearGradient>
		<path class="st76" d="M151.3,22c-1,0-1.9-0.8-1.9-1.9s0.8-1.9,1.9-1.9c1,0,1.9,0.8,1.9,1.9c0,0,0,0,0,0
			C153.2,21.2,152.3,22,151.3,22z"/>
		
			<linearGradient id="SVGID_20_" gradientUnits="userSpaceOnUse" x1="150.005" y1="478.7126" x2="152.655" y2="476.0626" gradientTransform="matrix(1 0 0 -1 0 497.5276)">
			<stop  offset="0" style="stop-color:#1D2C49"/>
			<stop  offset="1" style="stop-color:#1E2C5C"/>
		</linearGradient>
		<path class="st77" d="M151.3,22c-1,0-1.9-0.8-1.9-1.9c0-1,0.8-1.9,1.9-1.9s1.9,0.8,1.9,1.9c0,0,0,0,0,0
			C153.2,21.2,152.4,22,151.3,22C151.3,22,151.3,22,151.3,22z"/>
		
			<linearGradient id="SVGID_21_" gradientUnits="userSpaceOnUse" x1="150.005" y1="478.6926" x2="152.635" y2="476.0626" gradientTransform="matrix(1 0 0 -1 0 497.5276)">
			<stop  offset="0" style="stop-color:#1D2B47"/>
			<stop  offset="1" style="stop-color:#1F2D5F"/>
		</linearGradient>
		<path class="st78" d="M151.3,22c-1,0-1.9-0.8-1.9-1.9s0.8-1.9,1.9-1.9c1,0,1.9,0.8,1.9,1.9c0,0,0,0,0,0
			C153.2,21.2,152.3,22,151.3,22z"/>
		
			<linearGradient id="SVGID_22_" gradientUnits="userSpaceOnUse" x1="150.01" y1="478.6776" x2="152.62" y2="476.0676" gradientTransform="matrix(1 0 0 -1 0 497.5276)">
			<stop  offset="0" style="stop-color:#1D2B44"/>
			<stop  offset="1" style="stop-color:#202E62"/>
		</linearGradient>
		<path class="st79" d="M151.3,22c-1,0-1.8-0.8-1.8-1.9c0-1,0.8-1.8,1.9-1.8c1,0,1.8,0.8,1.8,1.9c0,0,0,0,0,0
			C153.2,21.2,152.3,22,151.3,22C151.3,22,151.3,22,151.3,22z"/>
		
			<linearGradient id="SVGID_23_" gradientUnits="userSpaceOnUse" x1="150.0064" y1="478.6661" x2="152.6064" y2="476.0761" gradientTransform="matrix(1 0 0 -1 0 497.5276)">
			<stop  offset="0" style="stop-color:#1D2A42"/>
			<stop  offset="1" style="stop-color:#213065"/>
		</linearGradient>
		<path class="st80" d="M151.3,22c-1,0-1.8-0.8-1.8-1.8c0-1,0.8-1.8,1.8-1.8s1.8,0.8,1.8,1.8c0,0,0,0,0,0
			C153.2,21.2,152.3,22,151.3,22C151.3,22,151.3,22,151.3,22z"/>
		
			<linearGradient id="SVGID_24_" gradientUnits="userSpaceOnUse" x1="150.01" y1="478.6576" x2="152.598" y2="476.0695" gradientTransform="matrix(1 0 0 -1 0 497.5276)">
			<stop  offset="0" style="stop-color:#1C293F"/>
			<stop  offset="1" style="stop-color:#223168"/>
		</linearGradient>
		<path class="st81" d="M151.3,22c-1,0-1.8-0.8-1.8-1.8s0.8-1.8,1.8-1.8c1,0,1.8,0.8,1.8,1.8c0,0,0,0,0,0
			C153.1,21.2,152.3,22,151.3,22z"/>
		
			<linearGradient id="SVGID_25_" gradientUnits="userSpaceOnUse" x1="150.015" y1="478.6426" x2="152.585" y2="476.0726" gradientTransform="matrix(1 0 0 -1 0 497.5276)">
			<stop  offset="0" style="stop-color:#1C283D"/>
			<stop  offset="1" style="stop-color:#22326B"/>
		</linearGradient>
		<path class="st82" d="M151.3,22c-1,0-1.8-0.8-1.8-1.8c0-1,0.8-1.8,1.8-1.8s1.8,0.8,1.8,1.8c0,0,0,0,0,0
			C153.1,21.2,152.3,22,151.3,22C151.3,22,151.3,22,151.3,22z"/>
		
			<linearGradient id="SVGID_26_" gradientUnits="userSpaceOnUse" x1="150.02" y1="478.6276" x2="152.57" y2="476.0776" gradientTransform="matrix(1 0 0 -1 0 497.5276)">
			<stop  offset="0" style="stop-color:#1C273B"/>
			<stop  offset="1" style="stop-color:#23346E"/>
		</linearGradient>
		<path class="st83" d="M151.3,22c-1,0-1.8-0.8-1.8-1.8c0-1,0.8-1.8,1.8-1.8c1,0,1.8,0.8,1.8,1.8c0,0,0,0,0,0
			C153.1,21.2,152.3,22,151.3,22z"/>
		
			<linearGradient id="SVGID_27_" gradientUnits="userSpaceOnUse" x1="150.025" y1="478.6126" x2="152.555" y2="476.0826" gradientTransform="matrix(1 0 0 -1 0 497.5276)">
			<stop  offset="0" style="stop-color:#1B2638"/>
			<stop  offset="1" style="stop-color:#243571"/>
		</linearGradient>
		<path class="st84" d="M151.3,22c-1,0-1.8-0.8-1.8-1.8c0-1,0.8-1.8,1.8-1.8s1.8,0.8,1.8,1.8c0,0,0,0,0,0
			C153.1,21.2,152.3,22,151.3,22C151.3,22,151.3,22,151.3,22z"/>
		
			<linearGradient id="SVGID_28_" gradientUnits="userSpaceOnUse" x1="150.055" y1="478.6326" x2="152.575" y2="476.1126" gradientTransform="matrix(1 0 0 -1 0 497.5276)">
			<stop  offset="0" style="stop-color:#1B2536"/>
			<stop  offset="1" style="stop-color:#253674"/>
		</linearGradient>
		<path class="st85" d="M151.3,21.9c-1,0-1.8-0.8-1.8-1.8c0-1,0.8-1.8,1.8-1.8s1.8,0.8,1.8,1.8c0,0,0,0,0,0
			C153.1,21.1,152.3,21.9,151.3,21.9C151.3,21.9,151.3,21.9,151.3,21.9z"/>
		
			<linearGradient id="SVGID_29_" gradientUnits="userSpaceOnUse" x1="150.06" y1="478.6276" x2="152.57" y2="476.1176" gradientTransform="matrix(1 0 0 -1 0 497.5276)">
			<stop  offset="0" style="stop-color:#1A2434"/>
			<stop  offset="1" style="stop-color:#263877"/>
		</linearGradient>
		<path class="st86" d="M151.3,21.9c-1,0-1.8-0.8-1.8-1.8s0.8-1.8,1.8-1.8c1,0,1.8,0.8,1.8,1.8c0,0,0,0,0,0
			C153.1,21.1,152.3,21.9,151.3,21.9z"/>
		
			<linearGradient id="SVGID_30_" gradientUnits="userSpaceOnUse" x1="150.065" y1="478.6125" x2="152.555" y2="476.1226" gradientTransform="matrix(1 0 0 -1 0 497.5276)">
			<stop  offset="0" style="stop-color:#192231"/>
			<stop  offset="1" style="stop-color:#26397A"/>
		</linearGradient>
		<path class="st87" d="M151.3,21.9c-1,0-1.8-0.8-1.8-1.8s0.8-1.8,1.8-1.8c1,0,1.8,0.8,1.8,1.8c0,0,0,0,0,0
			C153.1,21.1,152.3,21.9,151.3,21.9z"/>
		
			<linearGradient id="SVGID_31_" gradientUnits="userSpaceOnUse" x1="150.08" y1="478.6076" x2="152.55" y2="476.1376" gradientTransform="matrix(1 0 0 -1 0 497.5276)">
			<stop  offset="0" style="stop-color:#19212E"/>
			<stop  offset="1" style="stop-color:#273A7D"/>
		</linearGradient>
		<path class="st88" d="M151.3,21.9c-1,0-1.7-0.8-1.7-1.8s0.8-1.7,1.8-1.7c1,0,1.7,0.8,1.7,1.8c0,0,0,0,0,0
			C153.1,21.1,152.3,21.9,151.3,21.9z"/>
		
			<linearGradient id="SVGID_32_" gradientUnits="userSpaceOnUse" x1="150.0825" y1="478.6001" x2="152.5425" y2="476.1501" gradientTransform="matrix(1 0 0 -1 0 497.5276)">
			<stop  offset="0" style="stop-color:#18202C"/>
			<stop  offset="1" style="stop-color:#283C80"/>
		</linearGradient>
		<path class="st89" d="M151.3,21.9c-1,0-1.7-0.8-1.7-1.7c0-1,0.8-1.7,1.7-1.7c1,0,1.7,0.8,1.7,1.7c0,0,0,0,0,0
			C153,21.1,152.3,21.9,151.3,21.9z"/>
		
			<linearGradient id="SVGID_33_" gradientUnits="userSpaceOnUse" x1="150.0722" y1="478.5798" x2="152.5122" y2="476.1298" gradientTransform="matrix(1 0 0 -1 0 497.5276)">
			<stop  offset="0" style="stop-color:#171E29"/>
			<stop  offset="1" style="stop-color:#293D83"/>
		</linearGradient>
		<path class="st90" d="M151.3,21.9c-1,0-1.7-0.7-1.8-1.7c0-1,0.7-1.7,1.7-1.8s1.7,0.7,1.8,1.7c0,0,0,0,0,0
			C153,21.1,152.2,21.9,151.3,21.9z"/>
		
			<linearGradient id="SVGID_34_" gradientUnits="userSpaceOnUse" x1="150.0849" y1="478.5724" x2="152.5149" y2="476.1424" gradientTransform="matrix(1 0 0 -1 0 497.5276)">
			<stop  offset="0" style="stop-color:#18202C"/>
			<stop  offset="1" style="stop-color:#283C80"/>
		</linearGradient>
		<path class="st91" d="M151.3,21.9c-0.9,0-1.7-0.7-1.7-1.7c0-0.9,0.7-1.7,1.7-1.7s1.7,0.7,1.7,1.7c0,0,0,0,0,0
			C153,21.1,152.2,21.9,151.3,21.9z"/>
		
			<linearGradient id="SVGID_35_" gradientUnits="userSpaceOnUse" x1="150.11" y1="478.5776" x2="152.52" y2="476.1676" gradientTransform="matrix(1 0 0 -1 0 497.5276)">
			<stop  offset="0" style="stop-color:#19212E"/>
			<stop  offset="1" style="stop-color:#273A7D"/>
		</linearGradient>
		<path class="st92" d="M151.3,21.9c-0.9,0-1.7-0.8-1.7-1.7c0-0.9,0.8-1.7,1.7-1.7c0.9,0,1.7,0.8,1.7,1.7c0,0,0,0,0,0
			C153,21.1,152.3,21.9,151.3,21.9C151.3,21.9,151.3,21.9,151.3,21.9z"/>
		
			<linearGradient id="SVGID_36_" gradientUnits="userSpaceOnUse" x1="150.115" y1="478.5626" x2="152.505" y2="476.1725" gradientTransform="matrix(1 0 0 -1 0 497.5276)">
			<stop  offset="0" style="stop-color:#192231"/>
			<stop  offset="1" style="stop-color:#26397A"/>
		</linearGradient>
		<path class="st93" d="M151.3,21.9c-0.9,0-1.7-0.8-1.7-1.7s0.8-1.7,1.7-1.7c0.9,0,1.7,0.8,1.7,1.7C153,21.1,152.2,21.9,151.3,21.9
			L151.3,21.9z"/>
		
			<linearGradient id="SVGID_37_" gradientUnits="userSpaceOnUse" x1="150.135" y1="478.5626" x2="152.505" y2="476.1926" gradientTransform="matrix(1 0 0 -1 0 497.5276)">
			<stop  offset="0" style="stop-color:#1A2434"/>
			<stop  offset="1" style="stop-color:#263877"/>
		</linearGradient>
		<path class="st94" d="M151.3,21.8c-0.9,0-1.7-0.8-1.7-1.7s0.8-1.7,1.7-1.7c0.9,0,1.7,0.8,1.7,1.7C153,21.1,152.3,21.8,151.3,21.8
			C151.3,21.8,151.3,21.8,151.3,21.8z"/>
		
			<linearGradient id="SVGID_38_" gradientUnits="userSpaceOnUse" x1="150.1492" y1="478.5583" x2="152.4992" y2="476.2083" gradientTransform="matrix(1 0 0 -1 0 497.5276)">
			<stop  offset="0" style="stop-color:#1B2536"/>
			<stop  offset="1" style="stop-color:#253674"/>
		</linearGradient>
		<path class="st95" d="M151.3,21.8c-0.9,0-1.7-0.8-1.6-1.7s0.8-1.7,1.7-1.6c0.9,0,1.7,0.8,1.6,1.7C153,21.1,152.2,21.8,151.3,21.8
			C151.3,21.8,151.3,21.8,151.3,21.8z"/>
		
			<linearGradient id="SVGID_39_" gradientUnits="userSpaceOnUse" x1="150.1662" y1="478.5511" x2="152.4962" y2="476.2211" gradientTransform="matrix(1 0 0 -1 0 497.5276)">
			<stop  offset="0" style="stop-color:#1B2638"/>
			<stop  offset="1" style="stop-color:#243571"/>
		</linearGradient>
		<path class="st96" d="M151.3,21.8c-0.9,0-1.6-0.8-1.6-1.7c0-0.9,0.8-1.6,1.7-1.6c0.9,0,1.6,0.8,1.6,1.7
			C153,21.1,152.3,21.8,151.3,21.8C151.3,21.8,151.3,21.8,151.3,21.8z"/>
		
			<linearGradient id="SVGID_40_" gradientUnits="userSpaceOnUse" x1="150.177" y1="478.5547" x2="152.497" y2="476.2447" gradientTransform="matrix(1 0 0 -1 0 497.5276)">
			<stop  offset="0" style="stop-color:#1C273B"/>
			<stop  offset="1" style="stop-color:#23346E"/>
		</linearGradient>
		<path class="st97" d="M151.3,21.8c-0.9,0-1.6-0.8-1.6-1.7c0-0.9,0.8-1.6,1.7-1.6c0.9,0,1.6,0.8,1.6,1.6
			C153,21.1,152.3,21.8,151.3,21.8C151.3,21.8,151.3,21.8,151.3,21.8z"/>
		
			<linearGradient id="SVGID_41_" gradientUnits="userSpaceOnUse" x1="150.165" y1="478.5226" x2="152.465" y2="476.2226" gradientTransform="matrix(1 0 0 -1 0 497.5276)">
			<stop  offset="0" style="stop-color:#1C283D"/>
			<stop  offset="1" style="stop-color:#22326B"/>
		</linearGradient>
		<path class="st98" d="M151.3,21.8c-0.9,0-1.6-0.7-1.6-1.6c0-0.9,0.7-1.6,1.6-1.6s1.6,0.7,1.6,1.6c0,0,0,0,0,0
			C152.9,21.1,152.2,21.8,151.3,21.8z"/>
		
			<linearGradient id="SVGID_42_" gradientUnits="userSpaceOnUse" x1="150.2339" y1="478.5811" x2="152.5139" y2="476.2911" gradientTransform="matrix(1 0 0 -1 0 497.5276)">
			<stop  offset="0" style="stop-color:#1C293F"/>
			<stop  offset="1" style="stop-color:#223168"/>
		</linearGradient>
		<path class="st99" d="M151.3,21.8c-0.9-0.1-1.6-0.9-1.5-1.7c0.1-0.8,0.7-1.4,1.5-1.5c0.9-0.1,1.7,0.6,1.7,1.5
			c0.1,0.9-0.6,1.7-1.5,1.7C151.5,21.8,151.4,21.8,151.3,21.8z"/>
		
			<linearGradient id="SVGID_43_" gradientUnits="userSpaceOnUse" x1="150.18" y1="478.5076" x2="152.45" y2="476.2376" gradientTransform="matrix(1 0 0 -1 0 497.5276)">
			<stop  offset="0" style="stop-color:#1D2A42"/>
			<stop  offset="1" style="stop-color:#213065"/>
		</linearGradient>
		<path class="st100" d="M151.3,21.8c-0.9,0-1.6-0.7-1.6-1.6c0-0.9,0.7-1.6,1.6-1.6c0.9,0,1.6,0.7,1.6,1.6c0,0,0,0,0,0
			C152.9,21,152.2,21.8,151.3,21.8C151.3,21.8,151.3,21.8,151.3,21.8z"/>
		
			<linearGradient id="SVGID_44_" gradientUnits="userSpaceOnUse" x1="150.19" y1="478.4976" x2="152.4386" y2="476.249" gradientTransform="matrix(1 0 0 -1 0 497.5276)">
			<stop  offset="0" style="stop-color:#1D2B44"/>
			<stop  offset="1" style="stop-color:#202E62"/>
		</linearGradient>
		<path class="st101" d="M151.3,21.7c-0.9,0-1.6-0.7-1.6-1.6c0-0.9,0.7-1.6,1.6-1.6c0.9,0,1.6,0.7,1.6,1.6c0,0,0,0,0,0
			C152.9,21,152.2,21.7,151.3,21.7z"/>
		
			<linearGradient id="SVGID_45_" gradientUnits="userSpaceOnUse" x1="150.2" y1="478.4876" x2="152.43" y2="476.2576" gradientTransform="matrix(1 0 0 -1 0 497.5276)">
			<stop  offset="0" style="stop-color:#1D2B47"/>
			<stop  offset="1" style="stop-color:#1F2D5F"/>
		</linearGradient>
		<path class="st102" d="M151.3,21.7c-0.9,0-1.6-0.7-1.6-1.6c0-0.9,0.7-1.6,1.6-1.6c0.9,0,1.6,0.7,1.6,1.6c0,0,0,0,0,0
			C152.9,21,152.2,21.7,151.3,21.7C151.3,21.7,151.3,21.7,151.3,21.7z"/>
		
			<linearGradient id="SVGID_46_" gradientUnits="userSpaceOnUse" x1="150.21" y1="478.4776" x2="152.42" y2="476.2676" gradientTransform="matrix(1 0 0 -1 0 497.5276)">
			<stop  offset="0" style="stop-color:#1D2C49"/>
			<stop  offset="1" style="stop-color:#1E2C5C"/>
		</linearGradient>
		<path class="st103" d="M151.3,21.7c-0.9,0-1.6-0.7-1.6-1.6c0-0.9,0.7-1.6,1.6-1.6c0.9,0,1.6,0.7,1.6,1.6c0,0,0,0,0,0
			C152.9,21,152.2,21.7,151.3,21.7C151.3,21.7,151.3,21.7,151.3,21.7z"/>
		
			<linearGradient id="SVGID_47_" gradientUnits="userSpaceOnUse" x1="150.22" y1="478.4676" x2="152.41" y2="476.2776" gradientTransform="matrix(1 0 0 -1 0 497.5276)">
			<stop  offset="0" style="stop-color:#1D2D4B"/>
			<stop  offset="1" style="stop-color:#1D2A59"/>
		</linearGradient>
		<path class="st104" d="M151.3,21.7c-0.9,0-1.6-0.7-1.6-1.6s0.7-1.6,1.6-1.6c0.9,0,1.6,0.7,1.6,1.6c0,0,0,0,0,0
			C152.9,21,152.2,21.7,151.3,21.7z"/>
		
			<linearGradient id="SVGID_48_" gradientUnits="userSpaceOnUse" x1="150.23" y1="478.4576" x2="152.4" y2="476.2876" gradientTransform="matrix(1 0 0 -1 0 497.5276)">
			<stop  offset="0" style="stop-color:#1D2E4D"/>
			<stop  offset="1" style="stop-color:#1C2956"/>
		</linearGradient>
		<path class="st105" d="M151.3,21.7c-0.9,0-1.5-0.7-1.5-1.5s0.7-1.5,1.5-1.5c0.9,0,1.5,0.7,1.5,1.5c0,0,0,0,0,0
			C152.8,21,152.2,21.7,151.3,21.7z"/>
		
			<linearGradient id="SVGID_49_" gradientUnits="userSpaceOnUse" x1="150.2325" y1="478.4501" x2="152.3925" y2="476.3001" gradientTransform="matrix(1 0 0 -1 0 497.5276)">
			<stop  offset="0" style="stop-color:#1D2E50"/>
			<stop  offset="1" style="stop-color:#1B2853"/>
		</linearGradient>
		<path class="st106" d="M151.3,21.7c-0.8,0-1.5-0.7-1.5-1.5s0.7-1.5,1.5-1.5s1.5,0.7,1.5,1.5c0,0,0,0,0,0
			C152.8,21,152.2,21.7,151.3,21.7C151.3,21.7,151.3,21.7,151.3,21.7z"/>
		
			<linearGradient id="SVGID_50_" gradientUnits="userSpaceOnUse" x1="150.245" y1="478.4426" x2="152.385" y2="476.3026" gradientTransform="matrix(1 0 0 -1 0 497.5276)">
			<stop  offset="0" style="stop-color:#1D2F52"/>
			<stop  offset="1" style="stop-color:#1A2651"/>
		</linearGradient>
		<path class="st107" d="M151.3,21.7c-0.8,0-1.5-0.7-1.5-1.5c0-0.8,0.7-1.5,1.5-1.5c0.8,0,1.5,0.7,1.5,1.5c0,0,0,0,0,0
			C152.8,21,152.1,21.7,151.3,21.7z"/>
		
			<linearGradient id="SVGID_51_" gradientUnits="userSpaceOnUse" x1="150.2475" y1="478.4351" x2="152.3675" y2="476.3051" gradientTransform="matrix(1 0 0 -1 0 497.5276)">
			<stop  offset="0" style="stop-color:#1D3054"/>
			<stop  offset="1" style="stop-color:#19254E"/>
		</linearGradient>
		<path class="st108" d="M151.3,21.7c-0.8,0-1.5-0.7-1.5-1.5c0-0.8,0.7-1.5,1.5-1.5c0.8,0,1.5,0.7,1.5,1.5c0,0,0,0,0,0
			C152.8,21,152.1,21.7,151.3,21.7z"/>
		
			<linearGradient id="SVGID_52_" gradientUnits="userSpaceOnUse" x1="150.26" y1="478.4276" x2="152.37" y2="476.3176" gradientTransform="matrix(1 0 0 -1 0 497.5276)">
			<stop  offset="0" style="stop-color:#1D3057"/>
			<stop  offset="1" style="stop-color:#18244B"/>
		</linearGradient>
		<path class="st109" d="M151.3,21.6c-0.8,0-1.5-0.7-1.5-1.5c0-0.8,0.7-1.5,1.5-1.5c0.8,0,1.5,0.7,1.5,1.5c0,0,0,0,0,0
			C152.8,21,152.1,21.6,151.3,21.6z"/>
		
			<linearGradient id="SVGID_53_" gradientUnits="userSpaceOnUse" x1="150.27" y1="478.4176" x2="152.36" y2="476.3276" gradientTransform="matrix(1 0 0 -1 0 497.5276)">
			<stop  offset="0" style="stop-color:#1D3159"/>
			<stop  offset="1" style="stop-color:#172249"/>
		</linearGradient>
		<path class="st110" d="M151.3,21.6c-0.8,0-1.5-0.7-1.5-1.5c0-0.8,0.7-1.5,1.5-1.5c0.8,0,1.5,0.7,1.5,1.5c0,0,0,0,0,0
			C152.8,21,152.1,21.6,151.3,21.6C151.3,21.6,151.3,21.6,151.3,21.6z"/>
		
			<linearGradient id="SVGID_54_" gradientUnits="userSpaceOnUse" x1="150.28" y1="478.4076" x2="152.35" y2="476.3376" gradientTransform="matrix(1 0 0 -1 0 497.5276)">
			<stop  offset="0" style="stop-color:#1D315B"/>
			<stop  offset="1" style="stop-color:#172146"/>
		</linearGradient>
		<path class="st111" d="M151.3,21.6c-0.8,0-1.5-0.7-1.5-1.5c0-0.8,0.7-1.5,1.5-1.5s1.5,0.7,1.5,1.5c0,0,0,0,0,0
			C152.8,21,152.1,21.6,151.3,21.6z"/>
		
			<linearGradient id="SVGID_55_" gradientUnits="userSpaceOnUse" x1="150.285" y1="478.3925" x2="152.335" y2="476.3426" gradientTransform="matrix(1 0 0 -1 0 497.5276)">
			<stop  offset="0" style="stop-color:#1D325A"/>
			<stop  offset="1" style="stop-color:#172245"/>
		</linearGradient>
		<path class="st112" d="M151.3,21.6c-0.8,0-1.5-0.6-1.5-1.4c0-0.8,0.6-1.5,1.4-1.5c0.8,0,1.5,0.6,1.5,1.4c0,0,0,0,0,0
			C152.8,21,152.1,21.6,151.3,21.6z"/>
		
			<linearGradient id="SVGID_56_" gradientUnits="userSpaceOnUse" x1="150.3" y1="478.3876" x2="152.33" y2="476.3576" gradientTransform="matrix(1 0 0 -1 0 497.5276)">
			<stop  offset="0" style="stop-color:#1D3259"/>
			<stop  offset="1" style="stop-color:#172244"/>
		</linearGradient>
		<path class="st113" d="M151.3,21.6c-0.8,0-1.4-0.6-1.4-1.4c0-0.8,0.6-1.4,1.4-1.4c0.8,0,1.4,0.6,1.4,1.4c0,0,0,0,0,0
			C152.8,20.9,152.1,21.6,151.3,21.6C151.3,21.6,151.3,21.6,151.3,21.6z"/>
		
			<linearGradient id="SVGID_57_" gradientUnits="userSpaceOnUse" x1="150.31" y1="478.3776" x2="152.32" y2="476.3676" gradientTransform="matrix(1 0 0 -1 0 497.5276)">
			<stop  offset="0" style="stop-color:#1D3258"/>
			<stop  offset="1" style="stop-color:#172243"/>
		</linearGradient>
		<path class="st114" d="M151.3,21.6c-0.8,0-1.4-0.6-1.4-1.4c0-0.8,0.6-1.4,1.4-1.4c0.8,0,1.4,0.6,1.4,1.4c0,0,0,0,0,0
			C152.7,20.9,152.1,21.6,151.3,21.6z"/>
		
			<linearGradient id="SVGID_58_" gradientUnits="userSpaceOnUse" x1="150.315" y1="478.3625" x2="152.305" y2="476.3726" gradientTransform="matrix(1 0 0 -1 0 497.5276)">
			<stop  offset="0" style="stop-color:#1D3257"/>
			<stop  offset="1" style="stop-color:#182343"/>
		</linearGradient>
		<path class="st115" d="M151.3,21.6c-0.8,0-1.4-0.6-1.4-1.4c0-0.8,0.6-1.4,1.4-1.4c0.8,0,1.4,0.6,1.4,1.4c0,0,0,0,0,0
			C152.7,20.9,152.1,21.6,151.3,21.6z"/>
		
			<linearGradient id="SVGID_59_" gradientUnits="userSpaceOnUse" x1="150.33" y1="478.3576" x2="152.3" y2="476.3876" gradientTransform="matrix(1 0 0 -1 0 497.5276)">
			<stop  offset="0" style="stop-color:#1D3255"/>
			<stop  offset="1" style="stop-color:#182342"/>
		</linearGradient>
		<path class="st116" d="M151.3,21.5c-0.8,0-1.4-0.6-1.4-1.4c0-0.8,0.6-1.4,1.4-1.4c0.8,0,1.4,0.6,1.4,1.4c0,0,0,0,0,0
			C152.7,20.9,152.1,21.6,151.3,21.5C151.3,21.6,151.3,21.6,151.3,21.5z"/>
		
			<linearGradient id="SVGID_60_" gradientUnits="userSpaceOnUse" x1="150.3325" y1="478.3501" x2="152.2925" y2="476.4001" gradientTransform="matrix(1 0 0 -1 0 497.5276)">
			<stop  offset="0" style="stop-color:#1D3254"/>
			<stop  offset="1" style="stop-color:#182341"/>
		</linearGradient>
		<path class="st117" d="M151.3,21.5c-0.8,0-1.4-0.6-1.4-1.4c0-0.8,0.6-1.4,1.4-1.4c0.8,0,1.4,0.6,1.4,1.4c0,0,0,0,0,0
			C152.7,20.9,152.1,21.5,151.3,21.5C151.3,21.5,151.3,21.5,151.3,21.5z"/>
		
			<linearGradient id="SVGID_61_" gradientUnits="userSpaceOnUse" x1="150.345" y1="478.3426" x2="152.285" y2="476.4026" gradientTransform="matrix(1 0 0 -1 0 497.5276)">
			<stop  offset="0" style="stop-color:#1D3253"/>
			<stop  offset="1" style="stop-color:#192440"/>
		</linearGradient>
		<path class="st118" d="M151.3,21.5c-0.8,0-1.4-0.6-1.4-1.4c0-0.8,0.6-1.4,1.4-1.4c0.8,0,1.4,0.6,1.4,1.4c0,0,0,0,0,0
			C152.7,20.9,152.1,21.5,151.3,21.5z"/>
		
			<linearGradient id="SVGID_62_" gradientUnits="userSpaceOnUse" x1="150.3509" y1="478.3417" x2="152.2692" y2="476.4134" gradientTransform="matrix(1 0 0 -1 0 497.5276)">
			<stop  offset="0" style="stop-color:#1D3352"/>
			<stop  offset="1" style="stop-color:#19243F"/>
		</linearGradient>
		<path class="st119" d="M151.3,21.5c-0.8,0-1.4-0.6-1.4-1.4c0-0.8,0.6-1.4,1.4-1.4c0.8,0,1.4,0.6,1.4,1.4c0,0,0,0,0,0
			C152.7,20.9,152.1,21.5,151.3,21.5z"/>
		
			<linearGradient id="SVGID_63_" gradientUnits="userSpaceOnUse" x1="150.3625" y1="478.3301" x2="152.2625" y2="476.4201" gradientTransform="matrix(1 0 0 -1 0 497.5276)">
			<stop  offset="0" style="stop-color:#1E3351"/>
			<stop  offset="1" style="stop-color:#19243E"/>
		</linearGradient>
		<path class="st120" d="M151.3,21.5c-0.7,0-1.3-0.6-1.3-1.4c0-0.7,0.6-1.3,1.4-1.3c0.7,0,1.3,0.6,1.3,1.4c0,0,0,0,0,0
			C152.7,20.9,152.1,21.5,151.3,21.5C151.3,21.5,151.3,21.5,151.3,21.5z"/>
		
			<linearGradient id="SVGID_64_" gradientUnits="userSpaceOnUse" x1="150.37" y1="478.3176" x2="152.26" y2="476.4276" gradientTransform="matrix(1 0 0 -1 0 497.5276)">
			<stop  offset="0" style="stop-color:#1E334F"/>
			<stop  offset="1" style="stop-color:#19253D"/>
		</linearGradient>
		<path class="st121" d="M151.3,21.5c-0.7,0-1.3-0.6-1.3-1.3c0-0.7,0.6-1.3,1.3-1.3c0.7,0,1.3,0.6,1.3,1.3c0,0,0,0,0,0
			C152.6,20.9,152,21.5,151.3,21.5z"/>
		
			<linearGradient id="SVGID_65_" gradientUnits="userSpaceOnUse" x1="150.3766" y1="478.3009" x2="152.2466" y2="476.4309" gradientTransform="matrix(1 0 0 -1 0 497.5276)">
			<stop  offset="0" style="stop-color:#1E334E"/>
			<stop  offset="1" style="stop-color:#1A253C"/>
		</linearGradient>
		<path class="st122" d="M151.3,21.5c-0.7,0-1.3-0.6-1.3-1.3s0.6-1.3,1.3-1.3s1.3,0.6,1.3,1.3C152.6,20.9,152,21.5,151.3,21.5z"/>
		
			<linearGradient id="SVGID_66_" gradientUnits="userSpaceOnUse" x1="150.39" y1="478.2976" x2="152.24" y2="476.4476" gradientTransform="matrix(1 0 0 -1 0 497.5276)">
			<stop  offset="0" style="stop-color:#1E334D"/>
			<stop  offset="1" style="stop-color:#1A253B"/>
		</linearGradient>
		<path class="st123" d="M151.3,21.5c-0.7,0-1.3-0.6-1.3-1.3s0.6-1.3,1.3-1.3c0.7,0,1.3,0.6,1.3,1.3c0,0,0,0,0,0
			C152.6,20.9,152,21.5,151.3,21.5C151.3,21.5,151.3,21.5,151.3,21.5z"/>
		
			<linearGradient id="SVGID_67_" gradientUnits="userSpaceOnUse" x1="150.4" y1="478.2876" x2="152.23" y2="476.4576" gradientTransform="matrix(1 0 0 -1 0 497.5276)">
			<stop  offset="0" style="stop-color:#1E334C"/>
			<stop  offset="1" style="stop-color:#1A253A"/>
		</linearGradient>
		<path class="st124" d="M151.3,21.5c-0.7,0-1.3-0.6-1.3-1.3c0-0.7,0.6-1.3,1.3-1.3c0.7,0,1.3,0.6,1.3,1.3c0,0,0,0,0,0
			C152.6,20.9,152,21.5,151.3,21.5C151.3,21.5,151.3,21.5,151.3,21.5z"/>
		
			<linearGradient id="SVGID_68_" gradientUnits="userSpaceOnUse" x1="150.405" y1="478.2726" x2="152.215" y2="476.4626" gradientTransform="matrix(1 0 0 -1 0 497.5276)">
			<stop  offset="0" style="stop-color:#1E334B"/>
			<stop  offset="1" style="stop-color:#1B2639"/>
		</linearGradient>
		<path class="st125" d="M151.3,21.4c-0.7,0-1.3-0.6-1.3-1.3c0-0.7,0.6-1.3,1.3-1.3c0.7,0,1.3,0.6,1.3,1.3c0,0,0,0,0,0
			C152.6,20.9,152,21.4,151.3,21.4z"/>
		
			<linearGradient id="SVGID_69_" gradientUnits="userSpaceOnUse" x1="150.42" y1="478.2676" x2="152.21" y2="476.4776" gradientTransform="matrix(1 0 0 -1 0 497.5276)">
			<stop  offset="0" style="stop-color:#1E3349"/>
			<stop  offset="1" style="stop-color:#1B2638"/>
		</linearGradient>
		<path class="st126" d="M151.3,21.4c-0.7,0-1.3-0.6-1.3-1.3c0-0.7,0.6-1.3,1.3-1.3c0.7,0,1.3,0.6,1.3,1.3c0,0,0,0,0,0
			C152.6,20.9,152,21.4,151.3,21.4C151.3,21.4,151.3,21.4,151.3,21.4z"/>
		
			<linearGradient id="SVGID_70_" gradientUnits="userSpaceOnUse" x1="150.43" y1="478.2576" x2="152.2" y2="476.4876" gradientTransform="matrix(1 0 0 -1 0 497.5276)">
			<stop  offset="0" style="stop-color:#1E3348"/>
			<stop  offset="1" style="stop-color:#1B2637"/>
		</linearGradient>
		<path class="st127" d="M151.3,21.4c-0.7,0-1.3-0.6-1.3-1.3s0.6-1.3,1.3-1.3c0.7,0,1.3,0.6,1.3,1.3c0,0,0,0,0,0
			C152.6,20.9,152,21.4,151.3,21.4C151.3,21.4,151.3,21.4,151.3,21.4z"/>
		
			<linearGradient id="SVGID_71_" gradientUnits="userSpaceOnUse" x1="150.44" y1="478.2476" x2="152.19" y2="476.4976" gradientTransform="matrix(1 0 0 -1 0 497.5276)">
			<stop  offset="0" style="stop-color:#1E3347"/>
			<stop  offset="1" style="stop-color:#1B2636"/>
		</linearGradient>
		<path class="st128" d="M151.3,21.4c-0.7,0-1.2-0.6-1.2-1.3c0-0.7,0.6-1.2,1.3-1.2s1.2,0.6,1.2,1.3c0,0,0,0,0,0
			C152.6,20.8,152,21.4,151.3,21.4z"/>
		
			<linearGradient id="SVGID_72_" gradientUnits="userSpaceOnUse" x1="150.445" y1="478.2325" x2="152.175" y2="476.5026" gradientTransform="matrix(1 0 0 -1 0 497.5276)">
			<stop  offset="0" style="stop-color:#1E3346"/>
			<stop  offset="1" style="stop-color:#1C2635"/>
		</linearGradient>
		<circle class="st129" cx="151.3" cy="20.2" r="1.2"/>
		
			<linearGradient id="SVGID_73_" gradientUnits="userSpaceOnUse" x1="150.4475" y1="478.225" x2="152.1675" y2="476.515" gradientTransform="matrix(1 0 0 -1 0 497.5276)">
			<stop  offset="0" style="stop-color:#1E3344"/>
			<stop  offset="1" style="stop-color:#1C2634"/>
		</linearGradient>
		<circle class="st130" cx="151.3" cy="20.2" r="1.2"/>
		
			<linearGradient id="SVGID_74_" gradientUnits="userSpaceOnUse" x1="150.4615" y1="478.2161" x2="152.1615" y2="476.5161" gradientTransform="matrix(1 0 0 -1 0 497.5276)">
			<stop  offset="0" style="stop-color:#1E3243"/>
			<stop  offset="1" style="stop-color:#1C2633"/>
		</linearGradient>
		<circle class="st131" cx="151.3" cy="20.2" r="1.2"/>
		
			<linearGradient id="SVGID_75_" gradientUnits="userSpaceOnUse" x1="150.4675" y1="478.2151" x2="152.1475" y2="476.5251" gradientTransform="matrix(1 0 0 -1 0 497.5276)">
			<stop  offset="0" style="stop-color:#1E3242"/>
			<stop  offset="1" style="stop-color:#1C2632"/>
		</linearGradient>
		<circle class="st132" cx="151.3" cy="20.2" r="1.2"/>
		
			<linearGradient id="SVGID_76_" gradientUnits="userSpaceOnUse" x1="150.4781" y1="478.2044" x2="152.1381" y2="476.5345" gradientTransform="matrix(1 0 0 -1 0 497.5276)">
			<stop  offset="0" style="stop-color:#1E3140"/>
			<stop  offset="1" style="stop-color:#1C2531"/>
		</linearGradient>
		<circle class="st133" cx="151.3" cy="20.2" r="1.2"/>
		
			<linearGradient id="SVGID_77_" gradientUnits="userSpaceOnUse" x1="150.485" y1="478.1926" x2="152.135" y2="476.5425" gradientTransform="matrix(1 0 0 -1 0 497.5276)">
			<stop  offset="0" style="stop-color:#1D303D"/>
			<stop  offset="1" style="stop-color:#1B252F"/>
		</linearGradient>
		<circle class="st134" cx="151.3" cy="20.2" r="1.2"/>
		
			<linearGradient id="SVGID_78_" gradientUnits="userSpaceOnUse" x1="150.495" y1="478.1826" x2="152.125" y2="476.5526" gradientTransform="matrix(1 0 0 -1 0 497.5276)">
			<stop  offset="0" style="stop-color:#1D2F3B"/>
			<stop  offset="1" style="stop-color:#1B242E"/>
		</linearGradient>
		<circle class="st135" cx="151.3" cy="20.2" r="1.1"/>
		
			<linearGradient id="SVGID_79_" gradientUnits="userSpaceOnUse" x1="150.51" y1="478.1776" x2="152.12" y2="476.5676" gradientTransform="matrix(1 0 0 -1 0 497.5276)">
			<stop  offset="0" style="stop-color:#1D2D39"/>
			<stop  offset="1" style="stop-color:#1B232C"/>
		</linearGradient>
		<path class="st136" d="M151.3,21.3c-0.6,0-1.1-0.5-1.1-1.1c0-0.6,0.5-1.1,1.1-1.1c0.6,0,1.1,0.5,1.1,1.1c0,0,0,0,0,0
			C152.4,20.8,151.9,21.3,151.3,21.3z"/>
		
			<linearGradient id="SVGID_80_" gradientUnits="userSpaceOnUse" x1="150.52" y1="478.1676" x2="152.11" y2="476.5776" gradientTransform="matrix(1 0 0 -1 0 497.5276)">
			<stop  offset="0" style="stop-color:#1C2C37"/>
			<stop  offset="1" style="stop-color:#1A222A"/>
		</linearGradient>
		<path class="st137" d="M151.3,21.3c-0.6,0-1.1-0.5-1.1-1.1c0-0.6,0.5-1.1,1.1-1.1c0.6,0,1.1,0.5,1.1,1.1c0,0,0,0,0,0
			C152.4,20.8,151.9,21.3,151.3,21.3z"/>
		
			<linearGradient id="SVGID_81_" gradientUnits="userSpaceOnUse" x1="150.53" y1="478.1576" x2="152.1" y2="476.5876" gradientTransform="matrix(1 0 0 -1 0 497.5276)">
			<stop  offset="0" style="stop-color:#1C2B34"/>
			<stop  offset="1" style="stop-color:#1A2129"/>
		</linearGradient>
		<path class="st138" d="M151.3,21.3c-0.6,0-1.1-0.5-1.1-1.1c0-0.6,0.5-1.1,1.1-1.1c0.6,0,1.1,0.5,1.1,1.1c0,0,0,0,0,0
			C152.4,20.8,151.9,21.3,151.3,21.3C151.3,21.3,151.3,21.3,151.3,21.3z"/>
		
			<linearGradient id="SVGID_82_" gradientUnits="userSpaceOnUse" x1="150.54" y1="478.1476" x2="152.09" y2="476.5976" gradientTransform="matrix(1 0 0 -1 0 497.5276)">
			<stop  offset="0" style="stop-color:#1C2932"/>
			<stop  offset="1" style="stop-color:#192027"/>
		</linearGradient>
		<path class="st139" d="M151.3,21.2c-0.6,0-1.1-0.5-1.1-1.1s0.5-1.1,1.1-1.1s1.1,0.5,1.1,1.1c0,0,0,0,0,0
			C152.4,20.8,151.9,21.3,151.3,21.2C151.3,21.3,151.3,21.3,151.3,21.2z"/>
		
			<linearGradient id="SVGID_83_" gradientUnits="userSpaceOnUse" x1="150.545" y1="478.1326" x2="152.075" y2="476.6026" gradientTransform="matrix(1 0 0 -1 0 497.5276)">
			<stop  offset="0" style="stop-color:#1B2830"/>
			<stop  offset="1" style="stop-color:#191F26"/>
		</linearGradient>
		<path class="st140" d="M151.3,21.2c-0.6,0-1.1-0.5-1.1-1.1c0-0.6,0.5-1.1,1.1-1.1c0.6,0,1.1,0.5,1.1,1.1c0,0,0,0,0,0
			C152.4,20.8,151.9,21.2,151.3,21.2z"/>
		
			<linearGradient id="SVGID_84_" gradientUnits="userSpaceOnUse" x1="150.56" y1="478.1276" x2="152.07" y2="476.6176" gradientTransform="matrix(1 0 0 -1 0 497.5276)">
			<stop  offset="0" style="stop-color:#1A262D"/>
			<stop  offset="1" style="stop-color:#181E24"/>
		</linearGradient>
		<path class="st141" d="M151.3,21.2c-0.6,0-1.1-0.5-1.1-1.1c0-0.6,0.5-1.1,1.1-1.1c0.6,0,1.1,0.5,1.1,1.1c0,0,0,0,0,0
			C152.4,20.7,151.9,21.2,151.3,21.2z"/>
		
			<linearGradient id="SVGID_85_" gradientUnits="userSpaceOnUse" x1="150.6189" y1="478.1665" x2="152.1089" y2="476.6765" gradientTransform="matrix(1 0 0 -1 0 497.5276)">
			<stop  offset="0" style="stop-color:#1A252B"/>
			<stop  offset="1" style="stop-color:#181E23"/>
		</linearGradient>
		<path class="st142" d="M151.3,21.2c-0.6-0.1-1-0.6-1-1.2c0-0.5,0.4-0.9,1-1c0.6-0.1,1.1,0.4,1.2,1s-0.4,1.1-1,1.2
			C151.4,21.2,151.4,21.2,151.3,21.2z"/>
		
			<linearGradient id="SVGID_86_" gradientUnits="userSpaceOnUse" x1="150.5746" y1="478.1029" x2="152.0454" y2="476.6322" gradientTransform="matrix(1 0 0 -1 0 497.5276)">
			<stop  offset="0" style="stop-color:#192329"/>
			<stop  offset="1" style="stop-color:#171D21"/>
		</linearGradient>
		<path class="st143" d="M151.3,21.2c-0.6,0-1-0.5-1-1c0-0.6,0.5-1,1-1s1,0.5,1,1C152.3,20.7,151.9,21.2,151.3,21.2z"/>
		
			<linearGradient id="SVGID_87_" gradientUnits="userSpaceOnUse" x1="150.575" y1="478.0826" x2="152.025" y2="476.6326" gradientTransform="matrix(1 0 0 -1 0 497.5276)">
			<stop  offset="0" style="stop-color:#192226"/>
			<stop  offset="1" style="stop-color:#171C1F"/>
		</linearGradient>
		<path class="st144" d="M151.3,21.2c-0.6,0-1-0.4-1-1s0.4-1,1-1s1,0.4,1,1S151.9,21.2,151.3,21.2z"/>
		
			<linearGradient id="SVGID_88_" gradientUnits="userSpaceOnUse" x1="150.59" y1="478.0775" x2="152.02" y2="476.6476" gradientTransform="matrix(1 0 0 -1 0 497.5276)">
			<stop  offset="0" style="stop-color:#182024"/>
			<stop  offset="1" style="stop-color:#161B1E"/>
		</linearGradient>
		<path class="st145" d="M151.3,21.2c-0.6,0-1-0.4-1-1s0.4-1,1-1s1,0.4,1,1S151.9,21.2,151.3,21.2z"/>
		
			<linearGradient id="SVGID_89_" gradientUnits="userSpaceOnUse" x1="150.605" y1="478.0725" x2="152.015" y2="476.6626" gradientTransform="matrix(1 0 0 -1 0 497.5276)">
			<stop  offset="0" style="stop-color:#171F22"/>
			<stop  offset="1" style="stop-color:#161A1C"/>
		</linearGradient>
		<path class="st146" d="M151.3,21.2c-0.6,0-1-0.4-1-1s0.4-1,1-1s1,0.4,1,1S151.9,21.2,151.3,21.2z"/>
		
			<linearGradient id="SVGID_90_" gradientUnits="userSpaceOnUse" x1="150.625" y1="478.0726" x2="152.015" y2="476.6826" gradientTransform="matrix(1 0 0 -1 0 497.5276)">
			<stop  offset="0" style="stop-color:#171D1F"/>
			<stop  offset="1" style="stop-color:#15191A"/>
		</linearGradient>
		<path class="st147" d="M151.3,21.1c-0.6,0-1-0.4-1-1s0.4-1,1-1s1,0.4,1,1S151.9,21.1,151.3,21.1z"/>
		
			<linearGradient id="SVGID_91_" gradientUnits="userSpaceOnUse" x1="150.64" y1="478.0676" x2="152.01" y2="476.6975" gradientTransform="matrix(1 0 0 -1 0 497.5276)">
			<stop  offset="0" style="stop-color:#161B1D"/>
			<stop  offset="1" style="stop-color:#151819"/>
		</linearGradient>
		<path class="st148" d="M151.3,21.1c-0.6,0-1-0.4-1-1s0.4-1,1-1s1,0.4,1,1S151.9,21.1,151.3,21.1z"/>
		
			<linearGradient id="SVGID_92_" gradientUnits="userSpaceOnUse" x1="150.6606" y1="478.0682" x2="152.0106" y2="476.7182" gradientTransform="matrix(1 0 0 -1 0 497.5276)">
			<stop  offset="0" style="stop-color:#15191A"/>
			<stop  offset="1" style="stop-color:#141617"/>
		</linearGradient>
		<path class="st149" d="M151.3,21.1c-0.6,0-1-0.4-1-1s0.4-1,1-1c0.6,0,1,0.4,1,1c0,0,0,0,0,0C152.3,20.7,151.8,21.1,151.3,21.1z"/>
		
			<linearGradient id="SVGID_93_" gradientUnits="userSpaceOnUse" x1="150.65" y1="478.0376" x2="151.98" y2="476.7076" gradientTransform="matrix(1 0 0 -1 0 497.5276)">
			<stop  offset="0" style="stop-color:#141818"/>
			<stop  offset="1" style="stop-color:#131516"/>
		</linearGradient>
		<path class="st150" d="M151.3,21.1c-0.5,0-0.9-0.4-0.9-1c0-0.5,0.4-0.9,1-0.9c0.5,0,0.9,0.4,0.9,1c0,0,0,0,0,0
			C152.3,20.7,151.8,21.1,151.3,21.1C151.3,21.1,151.3,21.1,151.3,21.1z"/>
		
			<linearGradient id="SVGID_94_" gradientUnits="userSpaceOnUse" x1="150.6525" y1="478.0301" x2="151.9725" y2="476.7201" gradientTransform="matrix(1 0 0 -1 0 497.5276)">
			<stop  offset="0" style="stop-color:#131616"/>
			<stop  offset="1" style="stop-color:#131414"/>
		</linearGradient>
		<path class="st151" d="M151.3,21.1c-0.5,0-0.9-0.4-0.9-0.9s0.4-0.9,0.9-0.9c0.5,0,0.9,0.4,0.9,0.9c0,0,0,0,0,0
			C152.3,20.7,151.8,21.1,151.3,21.1C151.3,21.1,151.3,21.1,151.3,21.1z"/>
		
			<linearGradient id="SVGID_95_" gradientUnits="userSpaceOnUse" x1="150.6625" y1="478.0201" x2="151.9625" y2="476.7301" gradientTransform="matrix(1 0 0 -1 0 497.5276)">
			<stop  offset="0" style="stop-color:#121413"/>
			<stop  offset="1" style="stop-color:#121312"/>
		</linearGradient>
		<path class="st152" d="M151.3,21.1c-0.5,0-0.9-0.4-0.9-0.9c0-0.5,0.4-0.9,0.9-0.9s0.9,0.4,0.9,0.9c0,0,0,0,0,0
			C152.2,20.7,151.8,21.1,151.3,21.1C151.3,21.1,151.3,21.1,151.3,21.1z"/>
		<path class="st153" d="M151.3,21.1c-0.5-0.1-0.9-0.5-0.8-1c0-0.4,0.4-0.8,0.8-0.8c0.5-0.1,0.9,0.3,1,0.8s-0.3,0.9-0.8,1
			C151.4,21.1,151.4,21.1,151.3,21.1z"/>
		<g>
			<path class="st154" d="M153.3,18c0.9,0.8,1.1,1.9,0.6,2.5c-0.8,0.6-1.9,0.5-2.6-0.3c-0.8-0.6-1.1-1.7-0.6-2.5
				C151.3,17.1,152.5,17.2,153.3,18z"/>
		</g>
		<g>
			<path class="st154" d="M151.1,20.3c0.9,0.8,1.1,1.9,0.6,2.5c-0.8,0.6-1.9,0.5-2.6-0.3c-0.9-0.8-1.1-1.9-0.6-2.5
				C149.3,19.4,150.5,19.6,151.1,20.3z"/>
		</g>
		<g>
			<path class="st155" d="M152.2,18.4c0.4,0.2,0.5,0.7,0.3,1c-0.2,0.4-0.7,0.5-1,0.3c-0.1,0-0.2-0.1-0.2-0.2
				c-0.4-0.3-0.4-0.8-0.2-1.1c0,0,0,0,0,0C151.4,18,151.9,18,152.2,18.4z"/>
		</g>
		<g>
			<path class="st156" d="M150.8,20.7c0.4,0.2,0.5,0.7,0.3,1c-0.2,0.4-0.7,0.5-1,0.3c-0.1,0-0.2-0.1-0.2-0.2c-0.4-0.2-0.5-0.7-0.3-1
				c0.2-0.4,0.7-0.5,1-0.3C150.6,20.6,150.7,20.7,150.8,20.7z"/>
		</g>
		<path class="st66" d="M152.9,19c0,0.2-0.2,0.4-0.4,0.4c-0.2,0-0.3-0.2-0.3-0.4s0.2-0.3,0.3-0.4S152.9,18.8,152.9,19
			C152.9,19,152.9,19,152.9,19z"/>
		<path class="st66" d="M152.4,19.4c0,0.2-0.1,0.4-0.3,0.4s-0.4-0.1-0.4-0.3c0-0.2,0.1-0.4,0.3-0.4c0,0,0,0,0,0
			C152.3,19.1,152.4,19.2,152.4,19.4z"/>
		<path class="st66" d="M151.9,19.8c0,0.1-0.1,0.2-0.2,0.2c-0.1,0-0.2-0.1-0.2-0.2c0-0.1,0.1-0.2,0.2-0.2
			C151.8,19.6,151.9,19.7,151.9,19.8z"/>
		<path class="st157" d="M150.4,21.1c-0.1-0.1-0.2-0.3-0.3-0.4h-0.1l0,0c0,0.4,0.3,0.8,0.8,0.8c0,0,0,0,0,0l0,0c0,0,0-0.1,0-0.1
			C150.7,21.3,150.6,21.2,150.4,21.1z"/>
	</g>
</g>
<path class="st158" d="M138.4,23.1h-27.5c-1.7,0-3-1.3-3-3l0,0c0-1.7,1.3-3,3-3h27.5c1.7,0,3,1.3,3,3l0,0
	C141.4,21.8,140,23.1,138.4,23.1z"/>
<g>
	<path class="st159" d="M111.4,17.2h-0.5c-1.7,0-3,1.3-3,3s1.3,3,3,3h0.5V17.2z"/>
</g>
<g>
	<path class="st159" d="M138.4,17.2h-1.3v6h1.3c1.7,0,3-1.3,3-3S140,17.2,138.4,17.2z"/>
</g>
<path class="st160" d="M110.9,22.2c-1.1-0.1-2-1.1-1.9-2.2c0.1-1,0.9-1.8,1.9-1.9h27.5c1.1,0.1,2,1.1,1.9,2.2
	c-0.1,1-0.9,1.8-1.9,1.9L110.9,22.2z"/>
<path class="st161" d="M140.4,20.6c0-0.1,0.1-0.3,0.1-0.5c0-0.2,0-0.3-0.1-0.5l-0.4-0.4l0.2-0.2c-0.1-0.1-0.1-0.2-0.2-0.3l-0.2,0.2
	l-0.6-0.6l0.1-0.1c-0.3-0.1-0.5-0.2-0.8-0.2h-0.1l0.3,0.3l-0.6,0.6l-0.6-0.6l0.3-0.3h-0.5v0v0h-0.5l0.3,0.3l-0.6,0.6l-0.6-0.6
	l0.3-0.3h-0.5v0v0h-0.5l0.3,0.3l-0.6,0.6l-0.6-0.6l0.3-0.3h-0.5l-0.1,0v0h-0.5l0.3,0.3l-0.6,0.6l-0.6-0.6l0.3-0.3H132v0l-0.1,0h-0.5
	l0.3,0.3l-0.6,0.6l-0.6-0.6l0.3-0.3H130v0v0h-0.5l0.3,0.3l-0.6,0.6l-0.6-0.6l0.3-0.3h-0.5v0v0h-0.5l0.3,0.3l-0.6,0.6l-0.6-0.6
	l0.3-0.3h-0.5v0v0h-0.5l0.3,0.3l-0.6,0.6l-0.6-0.6l0.3-0.3H125v0v0h-0.5l0.3,0.3l-0.6,0.6l-0.6-0.6l0.3-0.3h-0.5v0v0h-0.5l0.3,0.3
	L122,19l-0.6-0.6l0.3-0.3h-0.5v0v0h-0.5l0.3,0.3l-0.6,0.6l-0.6-0.6l0.3-0.3h-0.5v0v0H119l0.3,0.3l-0.6,0.6l-0.6-0.6l0.3-0.3h-0.5v0
	v0H117l0.3,0.3l-0.6,0.6l-0.6-0.6l0.3-0.3h-0.5v0v0h-0.5l0.3,0.3L115,19l-0.6-0.6l0.3-0.3h-0.5v0v0h-0.5l0.3,0.3l-0.6,0.6l-0.6-0.6
	l0.3-0.3h-0.5v0v0H112l0.3,0.3l-0.6,0.6l-0.6-0.6l0.3-0.3h-0.1c-0.3,0-0.5,0.1-0.8,0.2l0.1,0.1l-0.6,0.6l-0.2-0.2
	c-0.1,0.1-0.1,0.2-0.2,0.3l0.2,0.2l-0.4,0.4c0,0.1-0.1,0.3-0.1,0.5c0,0.2,0,0.3,0.1,0.5l0.4,0.4l-0.2,0.2c0.1,0.1,0.1,0.2,0.2,0.3
	l0.2-0.2l0.6,0.6l-0.1,0.1c0.3,0.1,0.5,0.2,0.8,0.2h0.1l-0.3-0.3l0.6-0.6l0.6,0.6l-0.3,0.3h0.5l0,0l0,0h0.5l-0.3-0.3l0.6-0.6
	l0.6,0.6l-0.3,0.3h0.4l0,0l0,0h0.5l-0.3-0.3l0.6-0.6l0.6,0.6l-0.3,0.3h0.5l0,0l0,0h0.5l-0.3-0.3l0.6-0.6l0.6,0.6l-0.3,0.3h0.5l0,0
	l0,0h0.5l-0.3-0.3l0.6-0.6l0.6,0.6l-0.3,0.3h0.5l0,0l0,0h0.5l-0.3-0.3l0.6-0.6l0.6,0.6l-0.3,0.3h0.5l0,0l0,0h0.5l-0.3-0.3l0.6-0.6
	l0.6,0.6l-0.3,0.3h0.5l0,0l0,0h0.5l-0.3-0.3l0.6-0.6l0.6,0.6l-0.3,0.3h0.5l0,0l0,0h0.5l-0.3-0.3l0.6-0.6l0.6,0.6l-0.3,0.3h0.5l0,0
	l0,0h0.5l-0.3-0.3l0.6-0.6l0.6,0.6l-0.3,0.3h0.5l0,0l0,0h0.5l-0.3-0.3l0.6-0.6l0.6,0.6l-0.3,0.3h0.5l0,0l0,0h0.5l-0.3-0.3l0.6-0.6
	l0.6,0.6l-0.3,0.3h0.5h0.1l0,0h0.5l-0.3-0.3l0.6-0.6l0.6,0.6l-0.3,0.3h0.5l0,0h0.1h0.5l-0.3-0.3l0.6-0.6l0.6,0.6l-0.3,0.3h0.5l0,0
	l0,0h0.5l-0.3-0.3l0.6-0.6l0.6,0.6l-0.3,0.3h1.5l0,0l0,0h0.5l-0.3-0.3l0.6-0.6l0.6,0.6l-0.3,0.3h0.1c0.3,0,0.5-0.1,0.8-0.2l-0.1-0.1
	l0.6-0.6l0.2,0.2c0.1-0.1,0.1-0.2,0.2-0.3l-0.2-0.2L140.4,20.6z M138.8,18.6l0.6,0.6l-0.6,0.6l-0.6-0.6L138.8,18.6z M137,18.6
	l0.6,0.6l-0.6,0.6l-0.6-0.6L137,18.6z M135.2,18.6l0.6,0.6l-0.6,0.6l-0.6-0.6L135.2,18.6z M133.5,18.6l0.6,0.6l-0.6,0.6l-0.6-0.6
	L133.5,18.6z M131.7,18.6l0.6,0.6l-0.6,0.6l-0.6-0.6L131.7,18.6z M129.9,18.6l0.6,0.6l-0.6,0.6l-0.6-0.6L129.9,18.6z M128.2,18.6
	l0.6,0.6l-0.6,0.6l-0.6-0.6L128.2,18.6z M126.4,18.6l0.6,0.6l-0.6,0.6l-0.6-0.6L126.4,18.6z M124.6,18.6l0.6,0.6l-0.6,0.6l-0.6-0.6
	L124.6,18.6z M122.9,18.6l0.6,0.6l-0.6,0.6l-0.6-0.6L122.9,18.6z M121.1,18.6l0.6,0.6l-0.6,0.6l-0.6-0.6L121.1,18.6z M119.3,18.6
	l0.6,0.6l-0.6,0.6l-0.6-0.6L119.3,18.6z M117.6,18.6l0.6,0.6l-0.6,0.6l-0.6-0.6L117.6,18.6z M115.8,18.6l0.6,0.6l-0.6,0.6l-0.6-0.6
	L115.8,18.6z M114.1,18.6l0.6,0.6l-0.6,0.6l-0.6-0.6L114.1,18.6z M112.3,18.6l0.6,0.6l-0.6,0.6l-0.6-0.6L112.3,18.6z M110.5,18.6
	l0.6,0.6l-0.6,0.6l-0.6-0.6L110.5,18.6z M109,20.2l0.6-0.6l0.6,0.6l-0.6,0.6L109,20.2z M110.5,21.7l-0.6-0.6l0.6-0.6l0.6,0.6
	L110.5,21.7z M110.8,20.2l0.6-0.6l0.6,0.6l-0.6,0.6L110.8,20.2z M112.3,21.7l-0.6-0.6l0.6-0.6l0.6,0.6L112.3,21.7z M112.5,20.2
	l0.6-0.6l0.6,0.6l-0.6,0.6L112.5,20.2z M114.1,21.7l-0.6-0.6l0.6-0.6l0.6,0.6L114.1,21.7z M114.3,20.2l0.6-0.6l0.6,0.6l-0.6,0.6
	L114.3,20.2z M115.8,21.7l-0.6-0.6l0.6-0.6l0.6,0.6L115.8,21.7z M116.1,20.2l0.6-0.6l0.6,0.6l-0.6,0.6L116.1,20.2z M117.6,21.7
	L117,21l0.6-0.6l0.6,0.6L117.6,21.7z M117.8,20.2l0.6-0.6l0.6,0.6l-0.6,0.6L117.8,20.2z M119.4,21.7l-0.6-0.6l0.6-0.6L120,21
	L119.4,21.7z M119.6,20.2l0.6-0.6l0.6,0.6l-0.6,0.6L119.6,20.2z M121.1,21.7l-0.6-0.6l0.6-0.6l0.6,0.6L121.1,21.7z M121.4,20.2
	l0.6-0.6l0.6,0.6l-0.6,0.6L121.4,20.2z M122.9,21.7l-0.6-0.6l0.6-0.6l0.6,0.6L122.9,21.7z M123.1,20.2l0.6-0.6l0.6,0.6l-0.6,0.6
	L123.1,20.2z M124.7,21.7L124,21l0.6-0.6l0.6,0.6L124.7,21.7z M124.9,20.2l0.6-0.6l0.6,0.6l-0.6,0.6L124.9,20.2z M126.4,21.7
	l-0.6-0.6l0.6-0.6l0.6,0.6L126.4,21.7z M126.7,20.2l0.6-0.6l0.6,0.6l-0.6,0.6L126.7,20.2z M128.2,21.7l-0.6-0.6l0.6-0.6l0.6,0.6
	L128.2,21.7z M128.4,20.2l0.6-0.6l0.6,0.6l-0.6,0.6L128.4,20.2z M130,21.7l-0.6-0.6l0.6-0.6l0.6,0.6L130,21.7z M130.2,20.2l0.6-0.6
	l0.6,0.6l-0.6,0.6L130.2,20.2z M131.8,21.7l-0.6-0.6l0.6-0.6l0.6,0.6L131.8,21.7z M132,20.2l0.6-0.6l0.6,0.6l-0.6,0.6L132,20.2z
	 M133.5,21.7l-0.6-0.6l0.6-0.6l0.6,0.6L133.5,21.7z M133.8,20.2l0.6-0.6l0.6,0.6l-0.6,0.6L133.8,20.2z M135.3,21.7l-0.6-0.6l0.6-0.6
	l0.6,0.6L135.3,21.7z M135.5,20.2l0.6-0.6l0.6,0.6l-0.6,0.6L135.5,20.2z M137,21.7l-0.6-0.6l0.6-0.6l0.6,0.6L137,21.7z M137.2,20.2
	l0.6-0.6l0.6,0.6l-0.6,0.6L137.2,20.2z M138.8,21.7l-0.6-0.6l0.6-0.6l0.6,0.6L138.8,21.7z M139,20.2l0.6-0.6l0.6,0.6l-0.6,0.6
	L139,20.2z"/>
<path class="st158" d="M110.9,22.2c-1.1-0.1-2-1.1-1.9-2.2c0.1-1,0.9-1.8,1.9-1.9h27.5c1.1,0.1,2,1.1,1.9,2.2
	c-0.1,1-0.9,1.8-1.9,1.9L110.9,22.2z"/>
<path class="st162" d="M110.9,22.2c-1.1,0-2-0.9-2-2s0.9-2,2-2h27.5c1.1,0,2,0.9,2,2s-0.9,2-2,2H110.9z"/>
<path class="st163" d="M110.9,22.1c-1.1-0.2-1.8-1.2-1.7-2.3c0.1-0.9,0.8-1.5,1.7-1.7h27.5c1.1,0.2,1.8,1.2,1.7,2.3
	c-0.1,0.9-0.8,1.5-1.7,1.7H110.9z"/>
<path class="st164" d="M110.9,22.1c-1.1,0.1-2-0.7-2.1-1.8c-0.1-1.1,0.7-2,1.8-2.1c0.1,0,0.2,0,0.3,0h27.5c1.1-0.1,2,0.7,2.1,1.8
	s-0.7,2-1.8,2.1c-0.1,0-0.2,0-0.3,0H110.9z"/>
<path class="st165" d="M110.9,22c-1,0.1-1.9-0.7-2-1.7c-0.1-1,0.7-1.9,1.7-2c0.1,0,0.2,0,0.3,0h27.5c1,0.1,1.8,1,1.7,2
	c-0.1,0.9-0.8,1.7-1.7,1.7H110.9z"/>
<path class="st166" d="M110.9,22c-1-0.1-1.8-1-1.7-2c0.1-0.9,0.8-1.6,1.7-1.7h27.5c1,0.1,1.8,1,1.7,2c-0.1,0.9-0.8,1.6-1.7,1.7
	H110.9z"/>
<path class="st167" d="M110.9,22c-1,0.1-1.9-0.7-1.9-1.7c-0.1-1,0.7-1.9,1.7-1.9c0.1,0,0.2,0,0.3,0h27.5c1-0.1,1.9,0.7,1.9,1.7
	c0.1,1-0.7,1.9-1.7,1.9c-0.1,0-0.2,0-0.3,0H110.9z"/>
<path class="st168" d="M110.9,21.9c-1-0.1-1.7-0.9-1.6-1.9c0.1-0.9,0.8-1.6,1.6-1.6h27.5c1,0.1,1.7,0.9,1.6,1.9
	c-0.1,0.9-0.8,1.6-1.6,1.6H110.9z"/>
<path class="st169" d="M110.9,21.9c-0.9-0.1-1.7-0.9-1.6-1.8c0.1-0.8,0.7-1.5,1.6-1.6h27.5c0.9,0.1,1.7,0.9,1.6,1.8
	c-0.1,0.8-0.7,1.5-1.6,1.6H110.9z"/>
<path class="st170" d="M110.9,21.8c-0.9,0.1-1.7-0.6-1.8-1.5c-0.1-0.9,0.6-1.7,1.5-1.8c0.1,0,0.2,0,0.3,0h27.5
	c0.9,0.1,1.6,0.9,1.5,1.8c-0.1,0.8-0.7,1.5-1.5,1.5H110.9z"/>
<path class="st171" d="M110.9,21.8c-0.9-0.1-1.6-0.9-1.5-1.8c0.1-0.8,0.7-1.4,1.5-1.5h27.5c0.9,0.1,1.6,0.9,1.5,1.8
	c-0.1,0.8-0.7,1.4-1.5,1.5H110.9z"/>
<path class="st172" d="M110.9,21.7c-0.9,0.1-1.6-0.6-1.7-1.4s0.6-1.6,1.4-1.7c0.1,0,0.2,0,0.3,0h27.5c0.9-0.1,1.6,0.6,1.7,1.4
	s-0.6,1.6-1.4,1.7c-0.1,0-0.2,0-0.3,0H110.9z"/>
<path class="st173" d="M110.9,21.7c-0.8,0.1-1.6-0.6-1.7-1.4c-0.1-0.8,0.6-1.6,1.4-1.7c0.1,0,0.2,0,0.2,0h27.5
	c0.8,0.1,1.5,0.8,1.4,1.7c-0.1,0.8-0.7,1.4-1.4,1.4H110.9z"/>
<path class="st174" d="M110.9,21.6c-0.8,0-1.5-0.7-1.5-1.5s0.7-1.5,1.5-1.5h27.5c0.8,0,1.5,0.7,1.5,1.5s-0.7,1.5-1.5,1.5H110.9z"/>
<path class="st175" d="M110.9,21.6c-0.8,0.1-1.5-0.5-1.6-1.3c-0.1-0.8,0.5-1.5,1.3-1.6c0.1,0,0.2,0,0.2,0h27.5
	c0.8-0.1,1.5,0.5,1.6,1.3c0.1,0.8-0.5,1.5-1.3,1.6c-0.1,0-0.2,0-0.2,0H110.9z"/>
<path class="st176" d="M110.9,21.6c-0.8-0.1-1.4-0.7-1.3-1.5c0.1-0.7,0.6-1.2,1.3-1.3h27.5c0.8,0.1,1.4,0.7,1.3,1.5
	c-0.1,0.7-0.6,1.2-1.3,1.3H110.9z"/>
<path class="st177" d="M110.9,21.5c-0.8,0-1.4-0.6-1.4-1.4c0-0.8,0.6-1.4,1.4-1.4c0,0,0,0,0,0h27.5c0.8,0,1.4,0.6,1.4,1.4
	c0,0.8-0.6,1.4-1.4,1.4c0,0,0,0,0,0H110.9z"/>
<path class="st178" d="M110.9,21.5c-0.7,0.1-1.4-0.5-1.4-1.2c-0.1-0.7,0.5-1.4,1.2-1.4c0.1,0,0.2,0,0.2,0h27.5
	c0.7,0.1,1.3,0.7,1.2,1.4c-0.1,0.6-0.6,1.1-1.2,1.2L110.9,21.5z"/>
<path class="st179" d="M110.9,21.4c-0.7-0.1-1.2-0.7-1.2-1.4c0.1-0.6,0.5-1.1,1.2-1.2h27.5c0.7,0.1,1.2,0.7,1.2,1.4
	c-0.1,0.6-0.5,1.1-1.2,1.2H110.9z"/>
<path class="st180" d="M110.9,21.4c-0.7,0.1-1.3-0.4-1.3-1.1c-0.1-0.7,0.4-1.3,1.1-1.3c0.1,0,0.1,0,0.2,0h27.5
	c0.7-0.1,1.3,0.4,1.3,1.1s-0.4,1.3-1.1,1.3c-0.1,0-0.1,0-0.2,0H110.9z"/>
<path class="st181" d="M110.9,21.3c-0.7-0.1-1.1-0.6-1.1-1.3c0.1-0.6,0.5-1,1.1-1.1h27.5c0.7,0.1,1.1,0.6,1.1,1.3
	c-0.1,0.6-0.5,1-1.1,1.1H110.9z"/>
<path class="st182" d="M110.9,21.3c-0.6,0-1.1-0.5-1.1-1.1c0-0.6,0.5-1.1,1.1-1.1h27.5c0.6,0,1.1,0.5,1.1,1.1c0,0.6-0.5,1.1-1.1,1.1
	H110.9z"/>
</svg>
