<?xml version="1.0" encoding="utf-8"?>
<!-- Generator: Adobe Illustrator 25.0.1, SVG Export Plug-In . SVG Version: 6.00 Build 0)  -->
<svg version="1.1" id="レイヤー_1" xmlns="http://www.w3.org/2000/svg" xmlns:xlink="http://www.w3.org/1999/xlink" x="0px"
	 y="0px" viewBox="0 0 1000 1000" style="enable-background:new 0 0 1000 1000;" xml:space="preserve">
<style type="text/css">
	.st0{fill:#CDE1FB;}
	.st1{fill:#5573B2;}
</style>
<path class="st0" d="M2,522c-0.3,0-0.6,0-0.9,0c0-14.7,0-29.3,0-44c0.4,0,0.7,0,1.1,0C2.1,492.7,2.1,507.4,2,522z"/>
<path class="st1" d="M2.2,525c0-14.8,0.1-29.6,0.1-44.4c1.5-13.3,2-26.8,3.7-40.1c6.4-52.3,20.6-102.4,43-149.9
	C98.2,185.9,173.6,106.7,275.9,54.1c47.5-24.5,97.9-40.2,150.7-47.5c28.2-3.9,56.6-6.9,85.1-5.8C625.8,5,728.1,41.6,816.4,115.6
	c91.2,76.5,146.8,174.7,172.4,290.8c5.8,26.5,7.8,53.5,8.7,80.6c1.9,56.4-5.5,111.6-21.6,165.7c-17,56.7-44.9,107.6-80,154.7
	C850.1,868.5,793.7,916.9,726,951.5c-45.4,23.2-93.2,39.4-143.4,47.8c-1.3,0.2-2.6,0.1-4,0.2c-0.8-1.9-0.6-4-0.6-6
	c0-11.1,0-22.2,0-33.3c-0.1-101.1-0.2-202.3-0.3-303.4c0-8,0-8,7.9-8c33.3,0,66.6,0,99.9,0c7.7,0,8.4-0.8,9.5-8.3
	c6.4-42.9,13-85.7,19.4-128.5c0.3-1.7,0.4-3.3,0.6-5c0.3-2.5-0.9-3.8-3.3-4c-1.5-0.1-3-0.1-4.5-0.1c-41.3-0.1-82.6-0.2-123.9,0
	c-4.5,0-5.4-1.4-5.4-5.7c0.2-31.1-0.2-62.3,0.2-93.4c0.3-23.6,8.2-44.1,27.6-58.9c11.4-8.6,24.5-12.5,38.5-13.9
	c4.9-0.5,9.9-1.8,14.8-0.3c0.5,1.4,1.7,1.3,2.9,1.3c18.6,0,37.1,0,55.7,0c1.5,0,3.1,0.2,3.4-2c1.3-6.5,0.7-13,0.8-19.5
	c0.2-31.6,0.1-63.3,0.1-95c0-8.8,0-8.9-8.5-10.2c-37.6-5.5-75.3-10-113.4-8.6c-43.3,1.5-83.5,13-117.2,41.9
	c-29.6,25.4-46.3,58.3-54.8,96.1c-6,26.7-6,53.7-6.1,80.8c-0.1,26.8,0.1,53.5,0.1,80.3c0,6.6-0.6,7.3-7.1,7.3
	c-38.3,0-76.6-0.1-115-0.3c-4.7,0-4.5,2.6-4.5,5.8c0.2,42.2,0.3,84.5,0.4,126.7c0,1.3,0,2.7,0,4c-0.3,8.9-0.3,8.9,8.7,8.9
	c36.7,0,73.3,0,110,0c7.2,0,7.4,0.2,7.4,7.3c0,105.4,0,210.8,0,316.2c0,8.4-0.5,16.8,0.1,25.2c0.1,0.8-0.5,1.6-0.7,2.3
	c-24.9-2.7-49.1-8.7-72.7-16.9c-57.3-19.7-110.7-46.8-158.3-84.9C119.5,840.7,68.7,768.9,35.3,683.9C15.8,634.2,5.2,582.7,2.8,529.4
	C2.8,527.9,2.4,526.4,2.2,525z"/>
</svg>
