<?xml version="1.0" encoding="utf-8"?>
<!-- Generator: Adobe Illustrator 25.0.1, SVG Export Plug-In . SVG Version: 6.00 Build 0)  -->
<svg version="1.1" id="LINE_LOGO_1_" xmlns="http://www.w3.org/2000/svg" xmlns:xlink="http://www.w3.org/1999/xlink" x="0px"
	 y="0px" viewBox="0 0 120 120" style="enable-background:new 0 0 120 120;" xml:space="preserve">
<style type="text/css">
	.st0{fill:#1AE179;}
	.st1{fill:#FFFFFF;}
</style>
<circle class="st0" cx="60" cy="60" r="60"/>
<path class="st1" d="M99.9,56.4C99.9,38.5,82,24,60,24S20.1,38.5,20.1,56.4c0,16,14.2,29.4,33.4,32c1.3,0.3,3.1,0.9,3.5,2
	c0.4,1,0.3,2.6,0.1,3.6c0,0-0.5,2.8-0.6,3.4c-0.2,1-0.8,3.9,3.5,2.2c4.3-1.8,23-13.5,31.4-23.2l0,0C97.1,70,99.9,63.5,99.9,56.4"/>
<g>
	<path class="st0" d="M51.9,47.8h-2.8c-0.4,0-0.8,0.3-0.8,0.8V66c0,0.4,0.3,0.8,0.8,0.8h2.8c0.4,0,0.8-0.3,0.8-0.8V48.5
		C52.7,48.1,52.3,47.8,51.9,47.8"/>
	<path class="st0" d="M71.2,47.8h-2.8c-0.4,0-0.8,0.3-0.8,0.8v10.3l-8-10.8c0,0,0-0.1-0.1-0.1l0,0l0,0l0,0l0,0l0,0l0,0l0,0l0,0l0,0
		l0,0l0,0l0,0l0,0l0,0l0,0l0,0l0,0l0,0h-2.8c-0.4,0-0.8,0.3-0.8,0.8v17.4c0,0.4,0.3,0.8,0.8,0.8H59c0.4,0,0.8-0.3,0.8-0.8V55.6
		l8,10.8c0.1,0.1,0.1,0.1,0.2,0.2l0,0l0,0l0,0l0,0l0,0l0,0c0,0,0,0,0.1,0l0,0c0.1,0,0.1,0,0.2,0h2.8c0.4,0,0.8-0.3,0.8-0.8V48.5
		C71.9,48.1,71.6,47.8,71.2,47.8"/>
	<path class="st0" d="M45.1,62.4h-7.6V48.5c0-0.4-0.3-0.8-0.8-0.8H34c-0.4,0-0.8,0.3-0.8,0.8v17.4l0,0c0,0.2,0.1,0.4,0.2,0.5l0,0
		l0,0c0.1,0.1,0.3,0.2,0.5,0.2l0,0h11.2c0.4,0,0.8-0.3,0.8-0.8V63C45.9,62.7,45.6,62.4,45.1,62.4"/>
	<path class="st0" d="M86.6,52.1c0.4,0,0.8-0.3,0.8-0.8v-2.8c0-0.4-0.3-0.8-0.8-0.8H75.4l0,0c-0.2,0-0.4,0.1-0.5,0.2l0,0l0,0
		c-0.1,0.1-0.2,0.3-0.2,0.5l0,0v17.4l0,0c0,0.2,0.1,0.4,0.2,0.5l0,0l0,0c0.1,0.1,0.3,0.2,0.5,0.2l0,0h11.2c0.4,0,0.8-0.3,0.8-0.8
		v-2.8c0-0.4-0.3-0.8-0.8-0.8H79v-2.9h7.6c0.4,0,0.8-0.3,0.8-0.8v-2.8c0-0.4-0.3-0.8-0.8-0.8H79v-2.9h7.6V52.1z"/>
</g>
</svg>
